{"glyphs":{"0":{"ha":1908,"x_min":107,"x_max":1781,"o":"m 203 782 q 138 809 164 782 q 113 875 113 836 q 139 941 113 914 q 204 968 165 968 q 269 942 243 968 q 294 875 294 915 q 268 809 294 836 q 203 782 242 782 m 203 806 q 251 826 232 806 q 271 875 271 846 q 252 925 271 906 q 204 944 233 944 q 156 924 175 944 q 136 875 136 904 q 156 826 136 846 q 203 806 175 806 m 207 824 q 167 838 183 824 q 151 875 151 853 q 167 913 151 897 q 207 928 183 928 q 254 897 243 928 l 221 881 q 207 890 217 890 q 194 875 194 890 q 207 860 194 860 q 221 869 217 860 l 254 853 q 207 824 243 824 m 488 832 l 488 783 l 321 783 l 321 821 l 403 919 l 324 919 l 324 967 l 483 967 l 483 929 l 400 832 l 488 832 m 667 831 l 667 783 l 517 783 l 517 967 l 664 967 l 664 921 l 576 921 l 576 899 l 653 899 l 653 854 l 576 854 l 576 831 l 667 831 m 853 831 l 853 783 l 703 783 l 703 967 l 849 967 l 849 921 l 763 921 l 763 899 l 839 899 l 839 854 l 763 854 l 763 831 l 853 831 m 1067 967 l 1067 783 l 1017 783 l 947 867 l 947 783 l 888 783 l 888 967 l 938 967 l 1007 883 l 1007 967 l 1067 967 m 1258 831 l 1258 783 l 1107 783 l 1107 967 l 1254 967 l 1254 921 l 1168 921 l 1168 899 l 1244 899 l 1244 854 l 1168 854 l 1168 831 l 1258 831 m 1361 779 q 1282 799 1310 779 l 1301 843 q 1361 826 1331 826 q 1385 836 1385 826 q 1378 844 1385 842 q 1354 851 1371 847 q 1303 869 1322 858 q 1285 910 1285 881 q 1307 953 1285 936 q 1369 971 1329 971 q 1438 956 1411 971 l 1419 910 q 1368 924 1393 924 q 1344 913 1344 924 q 1351 904 1344 907 q 1375 899 1358 901 q 1426 881 1407 892 q 1444 842 1444 869 q 1423 797 1444 814 q 1361 779 1401 779 m 1475 967 l 1536 967 l 1536 783 l 1475 783 l 1475 967 m 1700 815 l 1631 815 l 1619 783 l 1557 783 l 1636 967 l 1696 967 l 1775 783 l 1713 783 l 1700 815 m 1683 860 l 1665 906 l 1649 860 l 1683 860 m 363 664 l 335 664 l 335 689 l 422 689 l 422 664 l 394 664 l 394 592 l 363 592 l 363 664 m 532 689 l 532 592 l 500 592 l 500 628 l 469 628 l 469 592 l 438 592 l 438 689 l 469 689 l 469 656 l 500 656 l 500 689 l 532 689 m 554 689 l 586 689 l 586 592 l 554 592 l 554 689 m 643 590 q 601 600 618 590 l 613 624 q 643 615 625 615 q 656 621 656 615 q 640 628 656 625 q 613 637 624 631 q 603 658 603 643 q 615 682 603 672 q 647 692 626 692 q 683 683 669 692 l 674 660 q 647 667 660 667 q 635 661 635 667 q 651 653 635 657 q 678 643 668 649 q 688 622 688 638 q 676 599 688 608 q 643 590 665 590 m 783 665 l 783 649 l 824 649 l 824 624 l 783 624 l 783 592 l 751 592 l 751 689 l 829 689 l 829 665 l 783 665 m 894 590 q 856 604 871 590 q 840 640 840 618 q 856 677 840 663 q 894 692 871 692 q 933 677 918 692 q 949 640 949 663 q 933 604 949 618 q 894 590 918 590 m 894 617 q 910 623 904 617 q 917 640 917 629 q 894 665 917 664 q 880 658 886 665 q 874 640 874 651 q 894 617 874 617 m 1061 689 l 1061 592 l 1035 592 l 999 636 l 999 592 l 967 592 l 967 689 l 993 689 l 1029 646 l 1029 689 l 1061 689 m 1104 664 l 1076 664 l 1076 689 l 1164 689 l 1164 664 l 1136 664 l 1136 592 l 1104 592 l 1104 664 m 1258 665 l 1258 649 l 1299 649 l 1299 624 l 1258 624 l 1258 592 l 1226 592 l 1226 689 l 1304 689 l 1304 665 l 1258 665 m 1371 590 q 1332 604 1347 590 q 1317 640 1317 618 q 1332 677 1317 663 q 1371 692 1347 692 q 1410 677 1394 692 q 1425 640 1425 663 q 1410 604 1425 618 q 1371 590 1394 590 m 1371 617 q 1385 623 1379 617 q 1392 640 1392 629 q 1371 665 1392 664 q 1355 658 1361 665 q 1349 640 1349 651 q 1371 617 1349 617 m 1483 617 l 1475 617 l 1475 592 l 1442 592 l 1442 689 l 1489 689 q 1532 653 1528 689 q 1514 622 1532 631 l 1535 592 l 1500 592 l 1483 617 m 1500 653 q 1486 664 1500 664 l 1475 664 l 1475 642 l 1486 642 q 1500 653 1500 642 m 154 528 q 199 492 196 528 q 187 465 199 475 q 154 454 175 454 l 140 454 l 140 431 l 108 431 l 108 528 l 154 528 m 153 481 q 165 492 165 481 q 153 503 165 503 l 140 503 l 140 481 l 153 481 m 294 456 l 294 431 l 215 431 l 215 528 l 293 528 l 293 503 l 247 503 l 247 492 l 288 492 l 288 468 l 247 468 l 247 456 l 294 456 m 354 456 l 346 456 l 346 431 l 314 431 l 314 528 l 360 528 q 403 492 400 528 q 385 461 403 469 l 406 431 l 371 431 l 354 456 m 371 492 q 357 503 371 503 l 346 503 l 346 481 l 357 481 q 371 492 371 481 m 457 429 q 415 439 432 429 l 426 463 q 457 454 439 454 q 469 458 469 454 q 453 467 469 463 q 426 476 436 471 q 417 497 417 482 q 428 521 417 511 q 461 531 440 531 q 497 522 483 531 l 488 499 q 461 506 474 506 q 449 499 449 506 q 464 492 449 494 q 491 483 481 489 q 501 461 501 476 q 490 438 501 447 q 457 429 479 429 m 568 429 q 529 443 544 429 q 514 479 514 457 q 529 516 514 501 q 568 531 544 531 q 607 516 592 531 q 622 479 622 501 q 607 443 622 457 q 568 429 592 429 m 568 456 q 583 462 576 456 q 589 479 589 468 q 568 504 589 503 q 552 497 558 504 q 546 479 546 490 q 568 456 546 456 m 735 528 l 735 431 l 708 431 l 671 475 l 671 431 l 640 431 l 640 528 l 667 528 l 703 483 l 703 528 l 735 528 m 821 449 l 785 449 l 779 431 l 746 431 l 788 528 l 819 528 l 861 431 l 828 431 l 821 449 m 813 471 l 803 496 l 794 471 l 813 471 m 872 528 l 906 528 l 906 457 l 949 457 l 949 431 l 872 431 l 872 528 m 1057 429 q 1022 441 1035 429 q 1010 475 1010 453 l 1010 528 l 1043 528 l 1043 475 q 1057 456 1043 456 q 1072 475 1072 456 l 1072 528 l 1103 528 l 1103 475 q 1057 429 1103 431 m 1160 429 q 1118 439 1135 429 l 1129 463 q 1160 454 1142 454 q 1172 458 1172 454 q 1156 467 1172 463 q 1129 476 1139 471 q 1119 497 1119 482 q 1131 521 1119 511 q 1164 531 1143 531 q 1200 522 1186 531 l 1190 499 q 1164 506 1176 506 q 1151 499 1151 506 q 1167 492 1151 494 q 1194 483 1183 489 q 1204 461 1204 476 q 1193 438 1204 447 q 1160 429 1182 429 m 1300 456 l 1300 431 l 1221 431 l 1221 528 l 1299 528 l 1299 503 l 1253 503 l 1253 492 l 1293 492 l 1293 468 l 1253 468 l 1253 456 l 1300 456 m 1417 429 q 1378 443 1393 429 q 1363 479 1363 457 q 1378 516 1363 501 q 1417 531 1393 531 q 1456 516 1440 531 q 1471 479 1471 501 q 1456 443 1471 457 q 1417 429 1440 429 m 1417 456 q 1431 462 1425 456 q 1438 479 1438 468 q 1417 504 1438 503 q 1401 497 1407 504 q 1394 479 1394 490 q 1417 456 1394 456 m 1583 528 l 1583 431 l 1557 431 l 1519 475 l 1519 431 l 1489 431 l 1489 528 l 1515 528 l 1551 483 l 1551 528 l 1583 528 m 1604 528 l 1638 528 l 1638 457 l 1681 457 l 1681 431 l 1604 431 l 1604 528 m 1743 467 l 1743 431 l 1711 431 l 1711 467 l 1675 528 l 1708 528 l 1728 494 l 1747 528 l 1779 528 l 1743 467 m 276 189 l 257 218 q 253 217 256 217 l 232 217 l 232 189 l 214 189 l 214 286 l 253 286 q 294 251 294 286 q 274 221 294 231 l 296 189 l 276 189 m 276 251 q 253 271 276 271 l 232 271 l 232 232 l 253 232 q 276 251 276 232 m 388 225 q 388 221 388 225 l 329 221 q 353 203 333 203 q 374 211 365 203 l 382 200 q 353 188 374 188 q 313 226 315 188 q 350 264 313 260 q 377 253 367 264 q 388 225 388 243 m 350 250 q 329 232 332 250 l 371 232 q 350 250 368 250 m 436 264 q 469 232 469 264 l 469 189 l 453 189 l 453 199 q 429 188 446 188 q 403 210 404 188 q 433 232 403 232 l 451 232 l 451 233 q 433 250 451 250 q 411 242 419 250 l 404 254 q 436 264 415 264 m 433 200 q 451 213 447 200 l 451 221 l 433 221 q 419 211 419 221 q 433 200 419 200 m 532 188 q 503 199 514 188 q 492 226 492 210 q 532 264 492 260 q 563 247 554 264 l 550 239 q 531 249 542 249 q 515 242 521 249 q 508 226 508 236 q 531 203 508 203 q 550 213 542 203 l 563 206 q 532 188 553 188 m 624 264 q 654 232 654 264 l 654 189 l 638 189 l 638 229 q 619 249 638 249 q 600 226 600 249 l 600 189 l 582 189 l 582 292 l 600 292 l 600 254 q 624 264 608 264 m 818 264 q 849 232 849 264 l 849 189 l 832 189 l 832 229 q 815 249 832 249 q 796 226 796 249 l 796 189 l 779 189 l 779 229 q 763 249 779 249 q 743 226 743 249 l 743 189 l 726 189 l 726 263 l 743 263 l 743 254 q 767 264 753 264 q 792 251 783 264 q 818 264 800 264 m 946 225 q 946 221 946 225 l 889 221 q 913 203 892 203 q 932 211 924 203 l 942 200 q 913 188 931 188 q 872 226 875 188 q 910 264 872 260 q 935 253 925 264 q 946 225 946 243 m 910 250 q 889 232 892 250 l 931 232 q 910 250 928 250 m 1053 264 q 1090 226 1086 264 q 1053 188 1090 192 q 1029 199 1038 188 l 1029 189 l 1013 189 l 1013 292 l 1029 292 l 1029 254 q 1053 264 1039 264 m 1051 203 q 1074 226 1069 203 q 1051 249 1074 247 q 1035 242 1042 249 q 1029 226 1029 236 q 1051 203 1029 206 m 1179 263 l 1144 183 q 1117 161 1135 161 q 1097 168 1104 161 l 1104 181 q 1117 175 1110 175 q 1129 186 1125 175 l 1131 189 l 1099 263 l 1117 263 l 1139 208 l 1163 263 l 1179 263 m 1308 225 q 1308 221 1308 225 l 1251 221 q 1275 203 1254 203 q 1294 211 1286 203 l 1304 200 q 1274 188 1294 188 q 1244 199 1256 188 q 1233 226 1233 210 q 1272 264 1233 260 q 1298 253 1288 264 q 1308 225 1308 243 m 1272 250 q 1251 232 1254 250 l 1292 232 q 1272 250 1289 250 m 1424 264 q 1453 232 1453 264 l 1453 189 l 1436 189 l 1436 229 q 1419 249 1436 249 q 1401 226 1401 249 l 1401 189 l 1383 189 l 1383 229 q 1367 249 1383 249 q 1349 226 1349 249 l 1349 189 l 1331 189 l 1331 263 l 1347 263 l 1347 254 q 1371 264 1357 264 q 1396 251 1388 264 q 1424 264 1404 264 m 1510 264 q 1543 232 1543 264 l 1543 189 l 1526 189 l 1526 199 q 1503 188 1519 188 q 1476 210 1478 188 q 1507 232 1476 232 l 1525 232 l 1525 233 q 1507 250 1525 250 q 1485 242 1493 250 l 1478 254 q 1510 264 1489 264 m 1507 200 q 1525 213 1521 200 l 1525 221 l 1508 221 q 1493 211 1493 221 q 1507 200 1493 200 m 1579 275 q 1568 286 1568 275 q 1579 296 1568 294 q 1590 286 1590 296 q 1579 275 1590 275 m 1571 263 l 1588 263 l 1588 189 l 1571 189 l 1571 263 m 1617 292 l 1633 292 l 1633 189 l 1617 189 l 1617 292 m 183 26 l 183 4 l 111 4 l 111 22 l 142 57 l 113 57 l 113 81 l 181 81 l 181 63 l 150 26 l 183 26 m 276 42 q 276 35 276 42 l 225 35 q 240 26 228 26 q 256 32 249 26 l 271 15 q 239 3 261 3 q 193 42 197 3 q 205 71 193 60 q 236 82 217 82 q 265 72 254 82 q 276 42 276 61 m 236 60 q 224 50 226 60 l 249 50 q 236 60 246 60 m 372 42 q 372 35 372 42 l 321 35 q 335 26 322 26 q 351 32 344 26 l 367 15 q 335 3 356 3 q 289 42 293 3 q 301 71 289 60 q 332 82 313 82 q 361 72 350 82 q 372 42 372 61 m 332 60 q 319 50 322 60 l 343 50 q 332 60 343 58 m 440 82 q 471 47 471 82 l 471 4 l 440 4 l 440 42 q 431 56 440 56 q 419 40 419 56 l 419 4 l 389 4 l 389 81 l 418 81 l 418 72 q 440 82 428 82 m 531 82 q 560 72 549 82 q 572 42 572 61 q 572 39 572 42 q 571 35 571 36 l 519 35 q 535 26 522 26 q 550 32 543 26 l 567 15 q 533 3 554 3 q 488 42 492 3 q 499 71 488 60 q 531 82 511 82 m 531 60 q 518 50 521 60 l 543 50 q 531 60 540 60 m 617 3 q 583 10 594 3 l 592 31 q 618 24 603 24 q 626 28 626 24 q 615 31 626 31 q 592 38 601 33 q 583 56 583 42 q 594 74 583 67 q 622 82 604 82 q 653 75 639 82 l 644 54 q 622 60 633 60 q 613 57 613 60 q 624 53 613 54 q 647 45 639 50 q 656 28 656 40 q 646 10 656 17 q 617 3 636 3 m 686 86 q 668 101 669 86 q 686 118 668 118 q 706 103 703 118 q 686 86 706 89 m 671 81 l 701 81 l 701 4 l 671 4 l 671 81 m 756 82 q 796 44 796 82 l 796 4 l 767 4 l 767 14 q 746 3 763 3 q 718 26 718 3 q 753 49 718 49 l 765 49 q 750 58 764 58 q 732 51 739 58 l 722 72 q 756 82 736 82 m 756 21 q 765 29 764 21 l 765 33 l 757 33 q 747 28 747 33 q 756 21 747 21 m 881 103 q 928 85 910 103 q 947 43 947 68 q 938 13 947 24 q 914 3 928 3 q 893 15 900 3 q 872 3 886 3 q 851 12 860 3 q 843 38 843 21 q 872 72 843 69 q 889 65 882 72 l 889 71 l 915 71 l 915 31 q 921 24 915 24 q 928 43 928 24 q 915 74 928 63 q 881 86 901 86 q 847 72 860 86 q 833 39 833 58 q 847 6 833 19 q 881 -7 860 -7 q 908 -1 896 -7 l 914 -18 q 881 -25 900 -25 q 831 -7 850 -25 q 813 39 813 11 q 831 85 813 67 q 881 103 850 103 m 879 25 q 889 38 889 25 q 879 50 889 50 q 869 38 869 50 q 879 25 869 25 m 1047 81 l 1047 19 q 1001 -24 1047 -24 q 964 -15 979 -24 l 975 7 q 999 -1 983 -1 q 1017 15 1017 -1 l 1017 17 q 996 8 1008 8 q 970 18 981 8 q 960 44 960 28 q 996 82 960 78 q 1018 71 1010 82 l 1018 81 l 1047 81 m 1004 32 q 1017 44 1014 32 q 1004 57 1017 57 q 990 44 990 57 q 1004 32 990 33 m 1167 82 q 1196 47 1196 82 l 1196 4 l 1165 4 l 1165 42 q 1157 56 1165 56 q 1147 42 1147 56 l 1147 4 l 1117 4 l 1117 42 q 1108 56 1117 56 q 1099 42 1099 56 l 1099 4 l 1067 4 l 1067 81 l 1096 81 l 1096 72 q 1118 82 1106 82 q 1142 69 1133 82 q 1167 82 1150 82 m 1249 82 q 1289 44 1289 82 l 1289 4 l 1261 4 l 1261 14 q 1240 3 1254 3 q 1213 26 1213 3 q 1246 49 1213 49 l 1258 49 q 1244 58 1257 58 q 1225 51 1235 58 l 1215 72 q 1249 82 1231 82 m 1249 21 q 1258 29 1256 21 l 1258 33 l 1251 33 q 1242 28 1242 33 q 1249 21 1242 21 m 1325 86 q 1306 101 1308 86 q 1325 118 1306 117 q 1343 103 1342 118 q 1325 86 1343 86 m 1310 81 l 1340 81 l 1340 4 l 1310 4 l 1310 81 m 1360 107 l 1390 107 l 1390 4 l 1360 4 l 1360 107 m 1425 3 q 1407 21 1407 3 q 1425 39 1407 39 q 1438 34 1432 39 q 1443 21 1443 29 q 1425 3 1443 4 m 1499 3 q 1467 14 1479 3 q 1454 42 1454 25 q 1467 71 1454 60 q 1499 82 1479 82 q 1536 58 1526 82 l 1513 47 q 1499 57 1507 57 q 1486 42 1486 57 q 1499 26 1486 26 q 1513 38 1506 26 l 1536 25 q 1499 3 1528 3 m 1588 3 q 1557 14 1569 3 q 1544 42 1544 25 q 1556 71 1544 60 q 1588 82 1568 82 q 1619 71 1607 82 q 1632 42 1632 60 q 1619 14 1632 25 q 1588 3 1607 3 m 1588 26 q 1600 42 1600 26 q 1588 57 1600 57 q 1576 42 1576 57 q 1588 26 1576 26 m 1746 82 q 1776 47 1776 82 l 1776 4 l 1746 4 l 1746 42 q 1738 56 1746 56 q 1728 42 1728 56 l 1728 4 l 1696 4 l 1696 42 q 1688 56 1696 56 q 1678 42 1678 56 l 1678 4 l 1647 4 l 1647 81 l 1676 81 l 1676 72 q 1699 82 1685 82 q 1721 69 1714 82 q 1746 82 1731 82 m 204 -108 l 204 -125 l 244 -125 l 244 -150 l 204 -150 l 204 -181 l 172 -181 l 172 -83 l 250 -83 l 250 -108 l 204 -108 m 304 -182 q 273 -172 285 -182 q 261 -143 261 -161 q 304 -104 261 -107 q 335 -115 324 -104 q 347 -143 347 -125 q 304 -182 347 -178 m 304 -158 q 317 -143 317 -158 q 304 -128 317 -128 q 292 -143 292 -128 q 304 -158 292 -158 m 393 -114 q 417 -104 401 -104 l 417 -132 q 410 -131 414 -131 q 394 -147 394 -131 l 394 -181 l 364 -181 l 364 -106 l 393 -106 l 393 -114 m 563 -106 l 563 -165 q 518 -210 563 -210 q 481 -200 494 -210 l 490 -178 q 514 -186 499 -186 q 532 -169 532 -186 l 532 -168 q 511 -176 525 -176 q 485 -167 496 -176 q 475 -140 475 -157 q 485 -114 475 -124 q 511 -104 496 -104 q 533 -114 528 -104 l 533 -106 l 563 -106 m 519 -153 q 532 -140 531 -153 q 519 -128 532 -131 q 507 -140 508 -128 q 519 -153 507 -150 m 663 -143 q 663 -150 663 -143 l 610 -150 q 625 -160 614 -160 q 640 -154 632 -160 l 657 -169 q 624 -182 646 -182 q 592 -171 604 -182 q 579 -143 579 -160 q 621 -104 579 -107 q 651 -114 639 -104 q 663 -143 663 -124 m 622 -125 q 610 -135 613 -125 l 633 -135 q 622 -125 631 -125 m 733 -178 q 714 -182 728 -182 q 682 -151 682 -182 l 682 -132 l 671 -132 l 671 -110 l 682 -110 l 682 -87 l 713 -87 l 713 -110 l 728 -110 l 728 -132 l 713 -132 l 713 -151 q 719 -158 713 -158 q 726 -157 724 -158 l 733 -178 m 828 -108 l 828 -125 l 868 -125 l 868 -150 l 828 -150 l 828 -181 l 796 -181 l 796 -83 l 874 -83 l 874 -108 l 828 -108 m 969 -106 l 969 -181 l 940 -181 l 940 -174 q 919 -182 932 -182 q 888 -147 888 -182 l 888 -106 l 919 -106 l 919 -142 q 929 -156 919 -156 q 939 -140 939 -156 l 939 -106 l 969 -106 m 990 -78 l 1021 -78 l 1021 -181 l 990 -181 l 990 -78 m 1040 -78 l 1072 -78 l 1072 -181 l 1040 -181 l 1040 -78 m 1242 -83 l 1201 -181 l 1169 -181 l 1129 -83 l 1164 -83 l 1188 -140 l 1211 -83 l 1242 -83 m 1325 -143 q 1325 -150 1325 -143 l 1272 -150 q 1288 -160 1278 -160 q 1303 -154 1294 -160 l 1319 -169 q 1286 -182 1310 -182 q 1242 -143 1244 -182 q 1283 -104 1242 -107 q 1313 -114 1301 -104 q 1325 -143 1325 -124 m 1283 -125 q 1272 -135 1275 -125 l 1296 -135 q 1283 -125 1293 -125 m 1369 -114 q 1394 -104 1378 -104 l 1394 -132 q 1388 -131 1392 -131 q 1371 -147 1371 -131 l 1371 -181 l 1340 -181 l 1340 -106 l 1369 -106 l 1369 -114 m 1439 -182 q 1404 -175 1418 -182 l 1413 -154 q 1439 -161 1424 -161 q 1449 -157 1449 -161 q 1438 -154 1449 -154 q 1415 -147 1424 -151 q 1406 -129 1406 -143 q 1415 -111 1406 -118 q 1444 -104 1425 -104 q 1475 -110 1464 -104 l 1465 -131 q 1444 -125 1456 -125 q 1435 -129 1435 -125 q 1446 -132 1435 -132 q 1469 -139 1460 -135 q 1478 -157 1478 -143 q 1467 -175 1478 -168 q 1439 -182 1457 -182 m 1508 -99 q 1489 -83 1492 -99 q 1508 -67 1489 -69 q 1526 -82 1525 -67 q 1508 -99 1526 -99 m 1493 -106 l 1524 -106 l 1524 -181 l 1493 -181 l 1493 -106 m 1583 -182 q 1551 -172 1564 -182 q 1539 -143 1539 -161 q 1583 -104 1539 -107 q 1615 -115 1603 -104 q 1626 -143 1626 -125 q 1583 -182 1626 -178 m 1583 -158 q 1596 -143 1596 -158 q 1583 -128 1596 -128 q 1571 -143 1571 -128 q 1583 -158 1571 -158 m 1694 -104 q 1725 -137 1725 -104 l 1725 -181 l 1694 -181 l 1694 -143 q 1685 -131 1694 -131 q 1674 -146 1674 -131 l 1674 -181 l 1643 -181 l 1643 -106 l 1672 -106 l 1672 -112 q 1694 -104 1681 -104 m 107 346 l 1781 346 l 1781 356 l 107 356 l 107 346 z "},"1":{"ha":1908,"x_min":107,"x_max":1781,"o":"m 203 782 q 138 809 164 782 q 113 875 113 836 q 139 941 113 914 q 204 968 165 968 q 269 942 243 968 q 294 875 294 915 q 268 809 294 836 q 203 782 242 782 m 203 806 q 251 826 232 806 q 271 875 271 846 q 252 925 271 906 q 204 944 233 944 q 156 924 175 944 q 136 875 136 904 q 156 826 136 846 q 203 806 175 806 m 207 824 q 167 838 183 824 q 151 875 151 853 q 167 913 151 897 q 207 928 183 928 q 254 897 243 928 l 221 881 q 207 890 217 890 q 194 875 194 890 q 207 860 194 860 q 221 869 217 860 l 254 853 q 207 824 243 824 m 488 832 l 488 783 l 321 783 l 321 821 l 403 919 l 324 919 l 324 967 l 483 967 l 483 929 l 400 832 l 488 832 m 667 831 l 667 783 l 517 783 l 517 967 l 664 967 l 664 921 l 576 921 l 576 899 l 653 899 l 653 854 l 576 854 l 576 831 l 667 831 m 853 831 l 853 783 l 703 783 l 703 967 l 849 967 l 849 921 l 763 921 l 763 899 l 839 899 l 839 854 l 763 854 l 763 831 l 853 831 m 1067 967 l 1067 783 l 1017 783 l 947 867 l 947 783 l 888 783 l 888 967 l 938 967 l 1007 883 l 1007 967 l 1067 967 m 1258 831 l 1258 783 l 1107 783 l 1107 967 l 1254 967 l 1254 921 l 1168 921 l 1168 899 l 1244 899 l 1244 854 l 1168 854 l 1168 831 l 1258 831 m 1361 779 q 1282 799 1310 779 l 1301 843 q 1361 826 1331 826 q 1385 836 1385 826 q 1378 844 1385 842 q 1354 851 1371 847 q 1303 869 1322 858 q 1285 910 1285 881 q 1307 953 1285 936 q 1369 971 1329 971 q 1438 956 1411 971 l 1419 910 q 1368 924 1393 924 q 1344 913 1344 924 q 1351 904 1344 907 q 1375 899 1358 901 q 1426 881 1407 892 q 1444 842 1444 869 q 1423 797 1444 814 q 1361 779 1401 779 m 1475 967 l 1536 967 l 1536 783 l 1475 783 l 1475 967 m 1700 815 l 1631 815 l 1619 783 l 1557 783 l 1636 967 l 1696 967 l 1775 783 l 1713 783 l 1700 815 m 1683 860 l 1665 906 l 1649 860 l 1683 860 m 363 664 l 335 664 l 335 689 l 422 689 l 422 664 l 394 664 l 394 592 l 363 592 l 363 664 m 532 689 l 532 592 l 500 592 l 500 628 l 469 628 l 469 592 l 438 592 l 438 689 l 469 689 l 469 656 l 500 656 l 500 689 l 532 689 m 554 689 l 586 689 l 586 592 l 554 592 l 554 689 m 643 590 q 601 600 618 590 l 613 624 q 643 615 625 615 q 656 621 656 615 q 640 628 656 625 q 613 637 624 631 q 603 658 603 643 q 615 682 603 672 q 647 692 626 692 q 683 683 669 692 l 674 660 q 647 667 660 667 q 635 661 635 667 q 651 653 635 657 q 678 643 668 649 q 688 622 688 638 q 676 599 688 608 q 643 590 665 590 m 783 665 l 783 649 l 824 649 l 824 624 l 783 624 l 783 592 l 751 592 l 751 689 l 829 689 l 829 665 l 783 665 m 894 590 q 856 604 871 590 q 840 640 840 618 q 856 677 840 663 q 894 692 871 692 q 933 677 918 692 q 949 640 949 663 q 933 604 949 618 q 894 590 918 590 m 894 617 q 910 623 904 617 q 917 640 917 629 q 894 665 917 664 q 880 658 886 665 q 874 640 874 651 q 894 617 874 617 m 1061 689 l 1061 592 l 1035 592 l 999 636 l 999 592 l 967 592 l 967 689 l 993 689 l 1029 646 l 1029 689 l 1061 689 m 1104 664 l 1076 664 l 1076 689 l 1164 689 l 1164 664 l 1136 664 l 1136 592 l 1104 592 l 1104 664 m 1258 665 l 1258 649 l 1299 649 l 1299 624 l 1258 624 l 1258 592 l 1226 592 l 1226 689 l 1304 689 l 1304 665 l 1258 665 m 1371 590 q 1332 604 1347 590 q 1317 640 1317 618 q 1332 677 1317 663 q 1371 692 1347 692 q 1410 677 1394 692 q 1425 640 1425 663 q 1410 604 1425 618 q 1371 590 1394 590 m 1371 617 q 1385 623 1379 617 q 1392 640 1392 629 q 1371 665 1392 664 q 1355 658 1361 665 q 1349 640 1349 651 q 1371 617 1349 617 m 1483 617 l 1475 617 l 1475 592 l 1442 592 l 1442 689 l 1489 689 q 1532 653 1528 689 q 1514 622 1532 631 l 1535 592 l 1500 592 l 1483 617 m 1500 653 q 1486 664 1500 664 l 1475 664 l 1475 642 l 1486 642 q 1500 653 1500 642 m 154 528 q 199 492 196 528 q 187 465 199 475 q 154 454 175 454 l 140 454 l 140 431 l 108 431 l 108 528 l 154 528 m 153 481 q 165 492 165 481 q 153 503 165 503 l 140 503 l 140 481 l 153 481 m 294 456 l 294 431 l 215 431 l 215 528 l 293 528 l 293 503 l 247 503 l 247 492 l 288 492 l 288 468 l 247 468 l 247 456 l 294 456 m 354 456 l 346 456 l 346 431 l 314 431 l 314 528 l 360 528 q 403 492 400 528 q 385 461 403 469 l 406 431 l 371 431 l 354 456 m 371 492 q 357 503 371 503 l 346 503 l 346 481 l 357 481 q 371 492 371 481 m 457 429 q 415 439 432 429 l 426 463 q 457 454 439 454 q 469 458 469 454 q 453 467 469 463 q 426 476 436 471 q 417 497 417 482 q 428 521 417 511 q 461 531 440 531 q 497 522 483 531 l 488 499 q 461 506 474 506 q 449 499 449 506 q 464 492 449 494 q 491 483 481 489 q 501 461 501 476 q 490 438 501 447 q 457 429 479 429 m 568 429 q 529 443 544 429 q 514 479 514 457 q 529 516 514 501 q 568 531 544 531 q 607 516 592 531 q 622 479 622 501 q 607 443 622 457 q 568 429 592 429 m 568 456 q 583 462 576 456 q 589 479 589 468 q 568 504 589 503 q 552 497 558 504 q 546 479 546 490 q 568 456 546 456 m 735 528 l 735 431 l 708 431 l 671 475 l 671 431 l 640 431 l 640 528 l 667 528 l 703 483 l 703 528 l 735 528 m 821 449 l 785 449 l 779 431 l 746 431 l 788 528 l 819 528 l 861 431 l 828 431 l 821 449 m 813 471 l 803 496 l 794 471 l 813 471 m 872 528 l 906 528 l 906 457 l 949 457 l 949 431 l 872 431 l 872 528 m 1057 429 q 1022 441 1035 429 q 1010 475 1010 453 l 1010 528 l 1043 528 l 1043 475 q 1057 456 1043 456 q 1072 475 1072 456 l 1072 528 l 1103 528 l 1103 475 q 1057 429 1103 431 m 1160 429 q 1118 439 1135 429 l 1129 463 q 1160 454 1142 454 q 1172 458 1172 454 q 1156 467 1172 463 q 1129 476 1139 471 q 1119 497 1119 482 q 1131 521 1119 511 q 1164 531 1143 531 q 1200 522 1186 531 l 1190 499 q 1164 506 1176 506 q 1151 499 1151 506 q 1167 492 1151 494 q 1194 483 1183 489 q 1204 461 1204 476 q 1193 438 1204 447 q 1160 429 1182 429 m 1300 456 l 1300 431 l 1221 431 l 1221 528 l 1299 528 l 1299 503 l 1253 503 l 1253 492 l 1293 492 l 1293 468 l 1253 468 l 1253 456 l 1300 456 m 1417 429 q 1378 443 1393 429 q 1363 479 1363 457 q 1378 516 1363 501 q 1417 531 1393 531 q 1456 516 1440 531 q 1471 479 1471 501 q 1456 443 1471 457 q 1417 429 1440 429 m 1417 456 q 1431 462 1425 456 q 1438 479 1438 468 q 1417 504 1438 503 q 1401 497 1407 504 q 1394 479 1394 490 q 1417 456 1394 456 m 1583 528 l 1583 431 l 1557 431 l 1519 475 l 1519 431 l 1489 431 l 1489 528 l 1515 528 l 1551 483 l 1551 528 l 1583 528 m 1604 528 l 1638 528 l 1638 457 l 1681 457 l 1681 431 l 1604 431 l 1604 528 m 1743 467 l 1743 431 l 1711 431 l 1711 467 l 1675 528 l 1708 528 l 1728 494 l 1747 528 l 1779 528 l 1743 467 m 276 189 l 257 218 q 253 217 256 217 l 232 217 l 232 189 l 214 189 l 214 286 l 253 286 q 294 251 294 286 q 274 221 294 231 l 296 189 l 276 189 m 276 251 q 253 271 276 271 l 232 271 l 232 232 l 253 232 q 276 251 276 232 m 388 225 q 388 221 388 225 l 329 221 q 353 203 333 203 q 374 211 365 203 l 382 200 q 353 188 374 188 q 313 226 315 188 q 350 264 313 260 q 377 253 367 264 q 388 225 388 243 m 350 250 q 329 232 332 250 l 371 232 q 350 250 368 250 m 436 264 q 469 232 469 264 l 469 189 l 453 189 l 453 199 q 429 188 446 188 q 403 210 404 188 q 433 232 403 232 l 451 232 l 451 233 q 433 250 451 250 q 411 242 419 250 l 404 254 q 436 264 415 264 m 433 200 q 451 213 447 200 l 451 221 l 433 221 q 419 211 419 221 q 433 200 419 200 m 532 188 q 503 199 514 188 q 492 226 492 210 q 532 264 492 260 q 563 247 554 264 l 550 239 q 531 249 542 249 q 515 242 521 249 q 508 226 508 236 q 531 203 508 203 q 550 213 542 203 l 563 206 q 532 188 553 188 m 624 264 q 654 232 654 264 l 654 189 l 638 189 l 638 229 q 619 249 638 249 q 600 226 600 249 l 600 189 l 582 189 l 582 292 l 600 292 l 600 254 q 624 264 608 264 m 818 264 q 849 232 849 264 l 849 189 l 832 189 l 832 229 q 815 249 832 249 q 796 226 796 249 l 796 189 l 779 189 l 779 229 q 763 249 779 249 q 743 226 743 249 l 743 189 l 726 189 l 726 263 l 743 263 l 743 254 q 767 264 753 264 q 792 251 783 264 q 818 264 800 264 m 946 225 q 946 221 946 225 l 889 221 q 913 203 892 203 q 932 211 924 203 l 942 200 q 913 188 931 188 q 872 226 875 188 q 910 264 872 260 q 935 253 925 264 q 946 225 946 243 m 910 250 q 889 232 892 250 l 931 232 q 910 250 928 250 m 1053 264 q 1090 226 1086 264 q 1053 188 1090 192 q 1029 199 1038 188 l 1029 189 l 1013 189 l 1013 292 l 1029 292 l 1029 254 q 1053 264 1039 264 m 1051 203 q 1074 226 1069 203 q 1051 249 1074 247 q 1035 242 1042 249 q 1029 226 1029 236 q 1051 203 1029 206 m 1179 263 l 1144 183 q 1117 161 1135 161 q 1097 168 1104 161 l 1104 181 q 1117 175 1110 175 q 1129 186 1125 175 l 1131 189 l 1099 263 l 1117 263 l 1139 208 l 1163 263 l 1179 263 m 1308 225 q 1308 221 1308 225 l 1251 221 q 1275 203 1254 203 q 1294 211 1286 203 l 1304 200 q 1274 188 1294 188 q 1244 199 1256 188 q 1233 226 1233 210 q 1272 264 1233 260 q 1298 253 1288 264 q 1308 225 1308 243 m 1272 250 q 1251 232 1254 250 l 1292 232 q 1272 250 1289 250 m 1424 264 q 1453 232 1453 264 l 1453 189 l 1436 189 l 1436 229 q 1419 249 1436 249 q 1401 226 1401 249 l 1401 189 l 1383 189 l 1383 229 q 1367 249 1383 249 q 1349 226 1349 249 l 1349 189 l 1331 189 l 1331 263 l 1347 263 l 1347 254 q 1371 264 1357 264 q 1396 251 1388 264 q 1424 264 1404 264 m 1510 264 q 1543 232 1543 264 l 1543 189 l 1526 189 l 1526 199 q 1503 188 1519 188 q 1476 210 1478 188 q 1507 232 1476 232 l 1525 232 l 1525 233 q 1507 250 1525 250 q 1485 242 1493 250 l 1478 254 q 1510 264 1489 264 m 1507 200 q 1525 213 1521 200 l 1525 221 l 1508 221 q 1493 211 1493 221 q 1507 200 1493 200 m 1579 275 q 1568 286 1568 275 q 1579 296 1568 294 q 1590 286 1590 296 q 1579 275 1590 275 m 1571 263 l 1588 263 l 1588 189 l 1571 189 l 1571 263 m 1617 292 l 1633 292 l 1633 189 l 1617 189 l 1617 292 m 183 26 l 183 4 l 111 4 l 111 22 l 142 57 l 113 57 l 113 81 l 181 81 l 181 63 l 150 26 l 183 26 m 276 42 q 276 35 276 42 l 225 35 q 240 26 228 26 q 256 32 249 26 l 271 15 q 239 3 261 3 q 193 42 197 3 q 205 71 193 60 q 236 82 217 82 q 265 72 254 82 q 276 42 276 61 m 236 60 q 224 50 226 60 l 249 50 q 236 60 246 60 m 372 42 q 372 35 372 42 l 321 35 q 335 26 322 26 q 351 32 344 26 l 367 15 q 335 3 356 3 q 289 42 293 3 q 301 71 289 60 q 332 82 313 82 q 361 72 350 82 q 372 42 372 61 m 332 60 q 319 50 322 60 l 343 50 q 332 60 343 58 m 440 82 q 471 47 471 82 l 471 4 l 440 4 l 440 42 q 431 56 440 56 q 419 40 419 56 l 419 4 l 389 4 l 389 81 l 418 81 l 418 72 q 440 82 428 82 m 531 82 q 560 72 549 82 q 572 42 572 61 q 572 39 572 42 q 571 35 571 36 l 519 35 q 535 26 522 26 q 550 32 543 26 l 567 15 q 533 3 554 3 q 488 42 492 3 q 499 71 488 60 q 531 82 511 82 m 531 60 q 518 50 521 60 l 543 50 q 531 60 540 60 m 617 3 q 583 10 594 3 l 592 31 q 618 24 603 24 q 626 28 626 24 q 615 31 626 31 q 592 38 601 33 q 583 56 583 42 q 594 74 583 67 q 622 82 604 82 q 653 75 639 82 l 644 54 q 622 60 633 60 q 613 57 613 60 q 624 53 613 54 q 647 45 639 50 q 656 28 656 40 q 646 10 656 17 q 617 3 636 3 m 686 86 q 668 101 669 86 q 686 118 668 118 q 706 103 703 118 q 686 86 706 89 m 671 81 l 701 81 l 701 4 l 671 4 l 671 81 m 756 82 q 796 44 796 82 l 796 4 l 767 4 l 767 14 q 746 3 763 3 q 718 26 718 3 q 753 49 718 49 l 765 49 q 750 58 764 58 q 732 51 739 58 l 722 72 q 756 82 736 82 m 756 21 q 765 29 764 21 l 765 33 l 757 33 q 747 28 747 33 q 756 21 747 21 m 881 103 q 928 85 910 103 q 947 43 947 68 q 938 13 947 24 q 914 3 928 3 q 893 15 900 3 q 872 3 886 3 q 851 12 860 3 q 843 38 843 21 q 872 72 843 69 q 889 65 882 72 l 889 71 l 915 71 l 915 31 q 921 24 915 24 q 928 43 928 24 q 915 74 928 63 q 881 86 901 86 q 847 72 860 86 q 833 39 833 58 q 847 6 833 19 q 881 -7 860 -7 q 908 -1 896 -7 l 914 -18 q 881 -25 900 -25 q 831 -7 850 -25 q 813 39 813 11 q 831 85 813 67 q 881 103 850 103 m 879 25 q 889 38 889 25 q 879 50 889 50 q 869 38 869 50 q 879 25 869 25 m 1047 81 l 1047 19 q 1001 -24 1047 -24 q 964 -15 979 -24 l 975 7 q 999 -1 983 -1 q 1017 15 1017 -1 l 1017 17 q 996 8 1008 8 q 970 18 981 8 q 960 44 960 28 q 996 82 960 78 q 1018 71 1010 82 l 1018 81 l 1047 81 m 1004 32 q 1017 44 1014 32 q 1004 57 1017 57 q 990 44 990 57 q 1004 32 990 33 m 1167 82 q 1196 47 1196 82 l 1196 4 l 1165 4 l 1165 42 q 1157 56 1165 56 q 1147 42 1147 56 l 1147 4 l 1117 4 l 1117 42 q 1108 56 1117 56 q 1099 42 1099 56 l 1099 4 l 1067 4 l 1067 81 l 1096 81 l 1096 72 q 1118 82 1106 82 q 1142 69 1133 82 q 1167 82 1150 82 m 1249 82 q 1289 44 1289 82 l 1289 4 l 1261 4 l 1261 14 q 1240 3 1254 3 q 1213 26 1213 3 q 1246 49 1213 49 l 1258 49 q 1244 58 1257 58 q 1225 51 1235 58 l 1215 72 q 1249 82 1231 82 m 1249 21 q 1258 29 1256 21 l 1258 33 l 1251 33 q 1242 28 1242 33 q 1249 21 1242 21 m 1325 86 q 1306 101 1308 86 q 1325 118 1306 117 q 1343 103 1342 118 q 1325 86 1343 86 m 1310 81 l 1340 81 l 1340 4 l 1310 4 l 1310 81 m 1360 107 l 1390 107 l 1390 4 l 1360 4 l 1360 107 m 1425 3 q 1407 21 1407 3 q 1425 39 1407 39 q 1438 34 1432 39 q 1443 21 1443 29 q 1425 3 1443 4 m 1499 3 q 1467 14 1479 3 q 1454 42 1454 25 q 1467 71 1454 60 q 1499 82 1479 82 q 1536 58 1526 82 l 1513 47 q 1499 57 1507 57 q 1486 42 1486 57 q 1499 26 1486 26 q 1513 38 1506 26 l 1536 25 q 1499 3 1528 3 m 1588 3 q 1557 14 1569 3 q 1544 42 1544 25 q 1556 71 1544 60 q 1588 82 1568 82 q 1619 71 1607 82 q 1632 42 1632 60 q 1619 14 1632 25 q 1588 3 1607 3 m 1588 26 q 1600 42 1600 26 q 1588 57 1600 57 q 1576 42 1576 57 q 1588 26 1576 26 m 1746 82 q 1776 47 1776 82 l 1776 4 l 1746 4 l 1746 42 q 1738 56 1746 56 q 1728 42 1728 56 l 1728 4 l 1696 4 l 1696 42 q 1688 56 1696 56 q 1678 42 1678 56 l 1678 4 l 1647 4 l 1647 81 l 1676 81 l 1676 72 q 1699 82 1685 82 q 1721 69 1714 82 q 1746 82 1731 82 m 204 -108 l 204 -125 l 244 -125 l 244 -150 l 204 -150 l 204 -181 l 172 -181 l 172 -83 l 250 -83 l 250 -108 l 204 -108 m 304 -182 q 273 -172 285 -182 q 261 -143 261 -161 q 304 -104 261 -107 q 335 -115 324 -104 q 347 -143 347 -125 q 304 -182 347 -178 m 304 -158 q 317 -143 317 -158 q 304 -128 317 -128 q 292 -143 292 -128 q 304 -158 292 -158 m 393 -114 q 417 -104 401 -104 l 417 -132 q 410 -131 414 -131 q 394 -147 394 -131 l 394 -181 l 364 -181 l 364 -106 l 393 -106 l 393 -114 m 563 -106 l 563 -165 q 518 -210 563 -210 q 481 -200 494 -210 l 490 -178 q 514 -186 499 -186 q 532 -169 532 -186 l 532 -168 q 511 -176 525 -176 q 485 -167 496 -176 q 475 -140 475 -157 q 485 -114 475 -124 q 511 -104 496 -104 q 533 -114 528 -104 l 533 -106 l 563 -106 m 519 -153 q 532 -140 531 -153 q 519 -128 532 -131 q 507 -140 508 -128 q 519 -153 507 -150 m 663 -143 q 663 -150 663 -143 l 610 -150 q 625 -160 614 -160 q 640 -154 632 -160 l 657 -169 q 624 -182 646 -182 q 592 -171 604 -182 q 579 -143 579 -160 q 621 -104 579 -107 q 651 -114 639 -104 q 663 -143 663 -124 m 622 -125 q 610 -135 613 -125 l 633 -135 q 622 -125 631 -125 m 733 -178 q 714 -182 728 -182 q 682 -151 682 -182 l 682 -132 l 671 -132 l 671 -110 l 682 -110 l 682 -87 l 713 -87 l 713 -110 l 728 -110 l 728 -132 l 713 -132 l 713 -151 q 719 -158 713 -158 q 726 -157 724 -158 l 733 -178 m 828 -108 l 828 -125 l 868 -125 l 868 -150 l 828 -150 l 828 -181 l 796 -181 l 796 -83 l 874 -83 l 874 -108 l 828 -108 m 969 -106 l 969 -181 l 940 -181 l 940 -174 q 919 -182 932 -182 q 888 -147 888 -182 l 888 -106 l 919 -106 l 919 -142 q 929 -156 919 -156 q 939 -140 939 -156 l 939 -106 l 969 -106 m 990 -78 l 1021 -78 l 1021 -181 l 990 -181 l 990 -78 m 1040 -78 l 1072 -78 l 1072 -181 l 1040 -181 l 1040 -78 m 1242 -83 l 1201 -181 l 1169 -181 l 1129 -83 l 1164 -83 l 1188 -140 l 1211 -83 l 1242 -83 m 1325 -143 q 1325 -150 1325 -143 l 1272 -150 q 1288 -160 1278 -160 q 1303 -154 1294 -160 l 1319 -169 q 1286 -182 1310 -182 q 1242 -143 1244 -182 q 1283 -104 1242 -107 q 1313 -114 1301 -104 q 1325 -143 1325 -124 m 1283 -125 q 1272 -135 1275 -125 l 1296 -135 q 1283 -125 1293 -125 m 1369 -114 q 1394 -104 1378 -104 l 1394 -132 q 1388 -131 1392 -131 q 1371 -147 1371 -131 l 1371 -181 l 1340 -181 l 1340 -106 l 1369 -106 l 1369 -114 m 1439 -182 q 1404 -175 1418 -182 l 1413 -154 q 1439 -161 1424 -161 q 1449 -157 1449 -161 q 1438 -154 1449 -154 q 1415 -147 1424 -151 q 1406 -129 1406 -143 q 1415 -111 1406 -118 q 1444 -104 1425 -104 q 1475 -110 1464 -104 l 1465 -131 q 1444 -125 1456 -125 q 1435 -129 1435 -125 q 1446 -132 1435 -132 q 1469 -139 1460 -135 q 1478 -157 1478 -143 q 1467 -175 1478 -168 q 1439 -182 1457 -182 m 1508 -99 q 1489 -83 1492 -99 q 1508 -67 1489 -69 q 1526 -82 1525 -67 q 1508 -99 1526 -99 m 1493 -106 l 1524 -106 l 1524 -181 l 1493 -181 l 1493 -106 m 1583 -182 q 1551 -172 1564 -182 q 1539 -143 1539 -161 q 1583 -104 1539 -107 q 1615 -115 1603 -104 q 1626 -143 1626 -125 q 1583 -182 1626 -178 m 1583 -158 q 1596 -143 1596 -158 q 1583 -128 1596 -128 q 1571 -143 1571 -128 q 1583 -158 1571 -158 m 1694 -104 q 1725 -137 1725 -104 l 1725 -181 l 1694 -181 l 1694 -143 q 1685 -131 1694 -131 q 1674 -146 1674 -131 l 1674 -181 l 1643 -181 l 1643 -106 l 1672 -106 l 1672 -112 q 1694 -104 1681 -104 m 107 346 l 1781 346 l 1781 356 l 107 356 l 107 346 z "},"2":{"ha":1908,"x_min":107,"x_max":1781,"o":"m 203 782 q 138 809 164 782 q 113 875 113 836 q 139 941 113 914 q 204 968 165 968 q 269 942 243 968 q 294 875 294 915 q 268 809 294 836 q 203 782 242 782 m 203 806 q 251 826 232 806 q 271 875 271 846 q 252 925 271 906 q 204 944 233 944 q 156 924 175 944 q 136 875 136 904 q 156 826 136 846 q 203 806 175 806 m 207 824 q 167 838 183 824 q 151 875 151 853 q 167 913 151 897 q 207 928 183 928 q 254 897 243 928 l 221 881 q 207 890 217 890 q 194 875 194 890 q 207 860 194 860 q 221 869 217 860 l 254 853 q 207 824 243 824 m 488 832 l 488 783 l 321 783 l 321 821 l 403 919 l 324 919 l 324 967 l 483 967 l 483 929 l 400 832 l 488 832 m 667 831 l 667 783 l 517 783 l 517 967 l 664 967 l 664 921 l 576 921 l 576 899 l 653 899 l 653 854 l 576 854 l 576 831 l 667 831 m 853 831 l 853 783 l 703 783 l 703 967 l 849 967 l 849 921 l 763 921 l 763 899 l 839 899 l 839 854 l 763 854 l 763 831 l 853 831 m 1067 967 l 1067 783 l 1017 783 l 947 867 l 947 783 l 888 783 l 888 967 l 938 967 l 1007 883 l 1007 967 l 1067 967 m 1258 831 l 1258 783 l 1107 783 l 1107 967 l 1254 967 l 1254 921 l 1168 921 l 1168 899 l 1244 899 l 1244 854 l 1168 854 l 1168 831 l 1258 831 m 1361 779 q 1282 799 1310 779 l 1301 843 q 1361 826 1331 826 q 1385 836 1385 826 q 1378 844 1385 842 q 1354 851 1371 847 q 1303 869 1322 858 q 1285 910 1285 881 q 1307 953 1285 936 q 1369 971 1329 971 q 1438 956 1411 971 l 1419 910 q 1368 924 1393 924 q 1344 913 1344 924 q 1351 904 1344 907 q 1375 899 1358 901 q 1426 881 1407 892 q 1444 842 1444 869 q 1423 797 1444 814 q 1361 779 1401 779 m 1475 967 l 1536 967 l 1536 783 l 1475 783 l 1475 967 m 1700 815 l 1631 815 l 1619 783 l 1557 783 l 1636 967 l 1696 967 l 1775 783 l 1713 783 l 1700 815 m 1683 860 l 1665 906 l 1649 860 l 1683 860 m 363 664 l 335 664 l 335 689 l 422 689 l 422 664 l 394 664 l 394 592 l 363 592 l 363 664 m 532 689 l 532 592 l 500 592 l 500 628 l 469 628 l 469 592 l 438 592 l 438 689 l 469 689 l 469 656 l 500 656 l 500 689 l 532 689 m 554 689 l 586 689 l 586 592 l 554 592 l 554 689 m 643 590 q 601 600 618 590 l 613 624 q 643 615 625 615 q 656 621 656 615 q 640 628 656 625 q 613 637 624 631 q 603 658 603 643 q 615 682 603 672 q 647 692 626 692 q 683 683 669 692 l 674 660 q 647 667 660 667 q 635 661 635 667 q 651 653 635 657 q 678 643 668 649 q 688 622 688 638 q 676 599 688 608 q 643 590 665 590 m 783 665 l 783 649 l 824 649 l 824 624 l 783 624 l 783 592 l 751 592 l 751 689 l 829 689 l 829 665 l 783 665 m 894 590 q 856 604 871 590 q 840 640 840 618 q 856 677 840 663 q 894 692 871 692 q 933 677 918 692 q 949 640 949 663 q 933 604 949 618 q 894 590 918 590 m 894 617 q 910 623 904 617 q 917 640 917 629 q 894 665 917 664 q 880 658 886 665 q 874 640 874 651 q 894 617 874 617 m 1061 689 l 1061 592 l 1035 592 l 999 636 l 999 592 l 967 592 l 967 689 l 993 689 l 1029 646 l 1029 689 l 1061 689 m 1104 664 l 1076 664 l 1076 689 l 1164 689 l 1164 664 l 1136 664 l 1136 592 l 1104 592 l 1104 664 m 1258 665 l 1258 649 l 1299 649 l 1299 624 l 1258 624 l 1258 592 l 1226 592 l 1226 689 l 1304 689 l 1304 665 l 1258 665 m 1371 590 q 1332 604 1347 590 q 1317 640 1317 618 q 1332 677 1317 663 q 1371 692 1347 692 q 1410 677 1394 692 q 1425 640 1425 663 q 1410 604 1425 618 q 1371 590 1394 590 m 1371 617 q 1385 623 1379 617 q 1392 640 1392 629 q 1371 665 1392 664 q 1355 658 1361 665 q 1349 640 1349 651 q 1371 617 1349 617 m 1483 617 l 1475 617 l 1475 592 l 1442 592 l 1442 689 l 1489 689 q 1532 653 1528 689 q 1514 622 1532 631 l 1535 592 l 1500 592 l 1483 617 m 1500 653 q 1486 664 1500 664 l 1475 664 l 1475 642 l 1486 642 q 1500 653 1500 642 m 154 528 q 199 492 196 528 q 187 465 199 475 q 154 454 175 454 l 140 454 l 140 431 l 108 431 l 108 528 l 154 528 m 153 481 q 165 492 165 481 q 153 503 165 503 l 140 503 l 140 481 l 153 481 m 294 456 l 294 431 l 215 431 l 215 528 l 293 528 l 293 503 l 247 503 l 247 492 l 288 492 l 288 468 l 247 468 l 247 456 l 294 456 m 354 456 l 346 456 l 346 431 l 314 431 l 314 528 l 360 528 q 403 492 400 528 q 385 461 403 469 l 406 431 l 371 431 l 354 456 m 371 492 q 357 503 371 503 l 346 503 l 346 481 l 357 481 q 371 492 371 481 m 457 429 q 415 439 432 429 l 426 463 q 457 454 439 454 q 469 458 469 454 q 453 467 469 463 q 426 476 436 471 q 417 497 417 482 q 428 521 417 511 q 461 531 440 531 q 497 522 483 531 l 488 499 q 461 506 474 506 q 449 499 449 506 q 464 492 449 494 q 491 483 481 489 q 501 461 501 476 q 490 438 501 447 q 457 429 479 429 m 568 429 q 529 443 544 429 q 514 479 514 457 q 529 516 514 501 q 568 531 544 531 q 607 516 592 531 q 622 479 622 501 q 607 443 622 457 q 568 429 592 429 m 568 456 q 583 462 576 456 q 589 479 589 468 q 568 504 589 503 q 552 497 558 504 q 546 479 546 490 q 568 456 546 456 m 735 528 l 735 431 l 708 431 l 671 475 l 671 431 l 640 431 l 640 528 l 667 528 l 703 483 l 703 528 l 735 528 m 821 449 l 785 449 l 779 431 l 746 431 l 788 528 l 819 528 l 861 431 l 828 431 l 821 449 m 813 471 l 803 496 l 794 471 l 813 471 m 872 528 l 906 528 l 906 457 l 949 457 l 949 431 l 872 431 l 872 528 m 1057 429 q 1022 441 1035 429 q 1010 475 1010 453 l 1010 528 l 1043 528 l 1043 475 q 1057 456 1043 456 q 1072 475 1072 456 l 1072 528 l 1103 528 l 1103 475 q 1057 429 1103 431 m 1160 429 q 1118 439 1135 429 l 1129 463 q 1160 454 1142 454 q 1172 458 1172 454 q 1156 467 1172 463 q 1129 476 1139 471 q 1119 497 1119 482 q 1131 521 1119 511 q 1164 531 1143 531 q 1200 522 1186 531 l 1190 499 q 1164 506 1176 506 q 1151 499 1151 506 q 1167 492 1151 494 q 1194 483 1183 489 q 1204 461 1204 476 q 1193 438 1204 447 q 1160 429 1182 429 m 1300 456 l 1300 431 l 1221 431 l 1221 528 l 1299 528 l 1299 503 l 1253 503 l 1253 492 l 1293 492 l 1293 468 l 1253 468 l 1253 456 l 1300 456 m 1417 429 q 1378 443 1393 429 q 1363 479 1363 457 q 1378 516 1363 501 q 1417 531 1393 531 q 1456 516 1440 531 q 1471 479 1471 501 q 1456 443 1471 457 q 1417 429 1440 429 m 1417 456 q 1431 462 1425 456 q 1438 479 1438 468 q 1417 504 1438 503 q 1401 497 1407 504 q 1394 479 1394 490 q 1417 456 1394 456 m 1583 528 l 1583 431 l 1557 431 l 1519 475 l 1519 431 l 1489 431 l 1489 528 l 1515 528 l 1551 483 l 1551 528 l 1583 528 m 1604 528 l 1638 528 l 1638 457 l 1681 457 l 1681 431 l 1604 431 l 1604 528 m 1743 467 l 1743 431 l 1711 431 l 1711 467 l 1675 528 l 1708 528 l 1728 494 l 1747 528 l 1779 528 l 1743 467 m 276 189 l 257 218 q 253 217 256 217 l 232 217 l 232 189 l 214 189 l 214 286 l 253 286 q 294 251 294 286 q 274 221 294 231 l 296 189 l 276 189 m 276 251 q 253 271 276 271 l 232 271 l 232 232 l 253 232 q 276 251 276 232 m 388 225 q 388 221 388 225 l 329 221 q 353 203 333 203 q 374 211 365 203 l 382 200 q 353 188 374 188 q 313 226 315 188 q 350 264 313 260 q 377 253 367 264 q 388 225 388 243 m 350 250 q 329 232 332 250 l 371 232 q 350 250 368 250 m 436 264 q 469 232 469 264 l 469 189 l 453 189 l 453 199 q 429 188 446 188 q 403 210 404 188 q 433 232 403 232 l 451 232 l 451 233 q 433 250 451 250 q 411 242 419 250 l 404 254 q 436 264 415 264 m 433 200 q 451 213 447 200 l 451 221 l 433 221 q 419 211 419 221 q 433 200 419 200 m 532 188 q 503 199 514 188 q 492 226 492 210 q 532 264 492 260 q 563 247 554 264 l 550 239 q 531 249 542 249 q 515 242 521 249 q 508 226 508 236 q 531 203 508 203 q 550 213 542 203 l 563 206 q 532 188 553 188 m 624 264 q 654 232 654 264 l 654 189 l 638 189 l 638 229 q 619 249 638 249 q 600 226 600 249 l 600 189 l 582 189 l 582 292 l 600 292 l 600 254 q 624 264 608 264 m 818 264 q 849 232 849 264 l 849 189 l 832 189 l 832 229 q 815 249 832 249 q 796 226 796 249 l 796 189 l 779 189 l 779 229 q 763 249 779 249 q 743 226 743 249 l 743 189 l 726 189 l 726 263 l 743 263 l 743 254 q 767 264 753 264 q 792 251 783 264 q 818 264 800 264 m 946 225 q 946 221 946 225 l 889 221 q 913 203 892 203 q 932 211 924 203 l 942 200 q 913 188 931 188 q 872 226 875 188 q 910 264 872 260 q 935 253 925 264 q 946 225 946 243 m 910 250 q 889 232 892 250 l 931 232 q 910 250 928 250 m 1053 264 q 1090 226 1086 264 q 1053 188 1090 192 q 1029 199 1038 188 l 1029 189 l 1013 189 l 1013 292 l 1029 292 l 1029 254 q 1053 264 1039 264 m 1051 203 q 1074 226 1069 203 q 1051 249 1074 247 q 1035 242 1042 249 q 1029 226 1029 236 q 1051 203 1029 206 m 1179 263 l 1144 183 q 1117 161 1135 161 q 1097 168 1104 161 l 1104 181 q 1117 175 1110 175 q 1129 186 1125 175 l 1131 189 l 1099 263 l 1117 263 l 1139 208 l 1163 263 l 1179 263 m 1308 225 q 1308 221 1308 225 l 1251 221 q 1275 203 1254 203 q 1294 211 1286 203 l 1304 200 q 1274 188 1294 188 q 1244 199 1256 188 q 1233 226 1233 210 q 1272 264 1233 260 q 1298 253 1288 264 q 1308 225 1308 243 m 1272 250 q 1251 232 1254 250 l 1292 232 q 1272 250 1289 250 m 1424 264 q 1453 232 1453 264 l 1453 189 l 1436 189 l 1436 229 q 1419 249 1436 249 q 1401 226 1401 249 l 1401 189 l 1383 189 l 1383 229 q 1367 249 1383 249 q 1349 226 1349 249 l 1349 189 l 1331 189 l 1331 263 l 1347 263 l 1347 254 q 1371 264 1357 264 q 1396 251 1388 264 q 1424 264 1404 264 m 1510 264 q 1543 232 1543 264 l 1543 189 l 1526 189 l 1526 199 q 1503 188 1519 188 q 1476 210 1478 188 q 1507 232 1476 232 l 1525 232 l 1525 233 q 1507 250 1525 250 q 1485 242 1493 250 l 1478 254 q 1510 264 1489 264 m 1507 200 q 1525 213 1521 200 l 1525 221 l 1508 221 q 1493 211 1493 221 q 1507 200 1493 200 m 1579 275 q 1568 286 1568 275 q 1579 296 1568 294 q 1590 286 1590 296 q 1579 275 1590 275 m 1571 263 l 1588 263 l 1588 189 l 1571 189 l 1571 263 m 1617 292 l 1633 292 l 1633 189 l 1617 189 l 1617 292 m 183 26 l 183 4 l 111 4 l 111 22 l 142 57 l 113 57 l 113 81 l 181 81 l 181 63 l 150 26 l 183 26 m 276 42 q 276 35 276 42 l 225 35 q 240 26 228 26 q 256 32 249 26 l 271 15 q 239 3 261 3 q 193 42 197 3 q 205 71 193 60 q 236 82 217 82 q 265 72 254 82 q 276 42 276 61 m 236 60 q 224 50 226 60 l 249 50 q 236 60 246 60 m 372 42 q 372 35 372 42 l 321 35 q 335 26 322 26 q 351 32 344 26 l 367 15 q 335 3 356 3 q 289 42 293 3 q 301 71 289 60 q 332 82 313 82 q 361 72 350 82 q 372 42 372 61 m 332 60 q 319 50 322 60 l 343 50 q 332 60 343 58 m 440 82 q 471 47 471 82 l 471 4 l 440 4 l 440 42 q 431 56 440 56 q 419 40 419 56 l 419 4 l 389 4 l 389 81 l 418 81 l 418 72 q 440 82 428 82 m 531 82 q 560 72 549 82 q 572 42 572 61 q 572 39 572 42 q 571 35 571 36 l 519 35 q 535 26 522 26 q 550 32 543 26 l 567 15 q 533 3 554 3 q 488 42 492 3 q 499 71 488 60 q 531 82 511 82 m 531 60 q 518 50 521 60 l 543 50 q 531 60 540 60 m 617 3 q 583 10 594 3 l 592 31 q 618 24 603 24 q 626 28 626 24 q 615 31 626 31 q 592 38 601 33 q 583 56 583 42 q 594 74 583 67 q 622 82 604 82 q 653 75 639 82 l 644 54 q 622 60 633 60 q 613 57 613 60 q 624 53 613 54 q 647 45 639 50 q 656 28 656 40 q 646 10 656 17 q 617 3 636 3 m 686 86 q 668 101 669 86 q 686 118 668 118 q 706 103 703 118 q 686 86 706 89 m 671 81 l 701 81 l 701 4 l 671 4 l 671 81 m 756 82 q 796 44 796 82 l 796 4 l 767 4 l 767 14 q 746 3 763 3 q 718 26 718 3 q 753 49 718 49 l 765 49 q 750 58 764 58 q 732 51 739 58 l 722 72 q 756 82 736 82 m 756 21 q 765 29 764 21 l 765 33 l 757 33 q 747 28 747 33 q 756 21 747 21 m 881 103 q 928 85 910 103 q 947 43 947 68 q 938 13 947 24 q 914 3 928 3 q 893 15 900 3 q 872 3 886 3 q 851 12 860 3 q 843 38 843 21 q 872 72 843 69 q 889 65 882 72 l 889 71 l 915 71 l 915 31 q 921 24 915 24 q 928 43 928 24 q 915 74 928 63 q 881 86 901 86 q 847 72 860 86 q 833 39 833 58 q 847 6 833 19 q 881 -7 860 -7 q 908 -1 896 -7 l 914 -18 q 881 -25 900 -25 q 831 -7 850 -25 q 813 39 813 11 q 831 85 813 67 q 881 103 850 103 m 879 25 q 889 38 889 25 q 879 50 889 50 q 869 38 869 50 q 879 25 869 25 m 1047 81 l 1047 19 q 1001 -24 1047 -24 q 964 -15 979 -24 l 975 7 q 999 -1 983 -1 q 1017 15 1017 -1 l 1017 17 q 996 8 1008 8 q 970 18 981 8 q 960 44 960 28 q 996 82 960 78 q 1018 71 1010 82 l 1018 81 l 1047 81 m 1004 32 q 1017 44 1014 32 q 1004 57 1017 57 q 990 44 990 57 q 1004 32 990 33 m 1167 82 q 1196 47 1196 82 l 1196 4 l 1165 4 l 1165 42 q 1157 56 1165 56 q 1147 42 1147 56 l 1147 4 l 1117 4 l 1117 42 q 1108 56 1117 56 q 1099 42 1099 56 l 1099 4 l 1067 4 l 1067 81 l 1096 81 l 1096 72 q 1118 82 1106 82 q 1142 69 1133 82 q 1167 82 1150 82 m 1249 82 q 1289 44 1289 82 l 1289 4 l 1261 4 l 1261 14 q 1240 3 1254 3 q 1213 26 1213 3 q 1246 49 1213 49 l 1258 49 q 1244 58 1257 58 q 1225 51 1235 58 l 1215 72 q 1249 82 1231 82 m 1249 21 q 1258 29 1256 21 l 1258 33 l 1251 33 q 1242 28 1242 33 q 1249 21 1242 21 m 1325 86 q 1306 101 1308 86 q 1325 118 1306 117 q 1343 103 1342 118 q 1325 86 1343 86 m 1310 81 l 1340 81 l 1340 4 l 1310 4 l 1310 81 m 1360 107 l 1390 107 l 1390 4 l 1360 4 l 1360 107 m 1425 3 q 1407 21 1407 3 q 1425 39 1407 39 q 1438 34 1432 39 q 1443 21 1443 29 q 1425 3 1443 4 m 1499 3 q 1467 14 1479 3 q 1454 42 1454 25 q 1467 71 1454 60 q 1499 82 1479 82 q 1536 58 1526 82 l 1513 47 q 1499 57 1507 57 q 1486 42 1486 57 q 1499 26 1486 26 q 1513 38 1506 26 l 1536 25 q 1499 3 1528 3 m 1588 3 q 1557 14 1569 3 q 1544 42 1544 25 q 1556 71 1544 60 q 1588 82 1568 82 q 1619 71 1607 82 q 1632 42 1632 60 q 1619 14 1632 25 q 1588 3 1607 3 m 1588 26 q 1600 42 1600 26 q 1588 57 1600 57 q 1576 42 1576 57 q 1588 26 1576 26 m 1746 82 q 1776 47 1776 82 l 1776 4 l 1746 4 l 1746 42 q 1738 56 1746 56 q 1728 42 1728 56 l 1728 4 l 1696 4 l 1696 42 q 1688 56 1696 56 q 1678 42 1678 56 l 1678 4 l 1647 4 l 1647 81 l 1676 81 l 1676 72 q 1699 82 1685 82 q 1721 69 1714 82 q 1746 82 1731 82 m 204 -108 l 204 -125 l 244 -125 l 244 -150 l 204 -150 l 204 -181 l 172 -181 l 172 -83 l 250 -83 l 250 -108 l 204 -108 m 304 -182 q 273 -172 285 -182 q 261 -143 261 -161 q 304 -104 261 -107 q 335 -115 324 -104 q 347 -143 347 -125 q 304 -182 347 -178 m 304 -158 q 317 -143 317 -158 q 304 -128 317 -128 q 292 -143 292 -128 q 304 -158 292 -158 m 393 -114 q 417 -104 401 -104 l 417 -132 q 410 -131 414 -131 q 394 -147 394 -131 l 394 -181 l 364 -181 l 364 -106 l 393 -106 l 393 -114 m 563 -106 l 563 -165 q 518 -210 563 -210 q 481 -200 494 -210 l 490 -178 q 514 -186 499 -186 q 532 -169 532 -186 l 532 -168 q 511 -176 525 -176 q 485 -167 496 -176 q 475 -140 475 -157 q 485 -114 475 -124 q 511 -104 496 -104 q 533 -114 528 -104 l 533 -106 l 563 -106 m 519 -153 q 532 -140 531 -153 q 519 -128 532 -131 q 507 -140 508 -128 q 519 -153 507 -150 m 663 -143 q 663 -150 663 -143 l 610 -150 q 625 -160 614 -160 q 640 -154 632 -160 l 657 -169 q 624 -182 646 -182 q 592 -171 604 -182 q 579 -143 579 -160 q 621 -104 579 -107 q 651 -114 639 -104 q 663 -143 663 -124 m 622 -125 q 610 -135 613 -125 l 633 -135 q 622 -125 631 -125 m 733 -178 q 714 -182 728 -182 q 682 -151 682 -182 l 682 -132 l 671 -132 l 671 -110 l 682 -110 l 682 -87 l 713 -87 l 713 -110 l 728 -110 l 728 -132 l 713 -132 l 713 -151 q 719 -158 713 -158 q 726 -157 724 -158 l 733 -178 m 828 -108 l 828 -125 l 868 -125 l 868 -150 l 828 -150 l 828 -181 l 796 -181 l 796 -83 l 874 -83 l 874 -108 l 828 -108 m 969 -106 l 969 -181 l 940 -181 l 940 -174 q 919 -182 932 -182 q 888 -147 888 -182 l 888 -106 l 919 -106 l 919 -142 q 929 -156 919 -156 q 939 -140 939 -156 l 939 -106 l 969 -106 m 990 -78 l 1021 -78 l 1021 -181 l 990 -181 l 990 -78 m 1040 -78 l 1072 -78 l 1072 -181 l 1040 -181 l 1040 -78 m 1242 -83 l 1201 -181 l 1169 -181 l 1129 -83 l 1164 -83 l 1188 -140 l 1211 -83 l 1242 -83 m 1325 -143 q 1325 -150 1325 -143 l 1272 -150 q 1288 -160 1278 -160 q 1303 -154 1294 -160 l 1319 -169 q 1286 -182 1310 -182 q 1242 -143 1244 -182 q 1283 -104 1242 -107 q 1313 -114 1301 -104 q 1325 -143 1325 -124 m 1283 -125 q 1272 -135 1275 -125 l 1296 -135 q 1283 -125 1293 -125 m 1369 -114 q 1394 -104 1378 -104 l 1394 -132 q 1388 -131 1392 -131 q 1371 -147 1371 -131 l 1371 -181 l 1340 -181 l 1340 -106 l 1369 -106 l 1369 -114 m 1439 -182 q 1404 -175 1418 -182 l 1413 -154 q 1439 -161 1424 -161 q 1449 -157 1449 -161 q 1438 -154 1449 -154 q 1415 -147 1424 -151 q 1406 -129 1406 -143 q 1415 -111 1406 -118 q 1444 -104 1425 -104 q 1475 -110 1464 -104 l 1465 -131 q 1444 -125 1456 -125 q 1435 -129 1435 -125 q 1446 -132 1435 -132 q 1469 -139 1460 -135 q 1478 -157 1478 -143 q 1467 -175 1478 -168 q 1439 -182 1457 -182 m 1508 -99 q 1489 -83 1492 -99 q 1508 -67 1489 -69 q 1526 -82 1525 -67 q 1508 -99 1526 -99 m 1493 -106 l 1524 -106 l 1524 -181 l 1493 -181 l 1493 -106 m 1583 -182 q 1551 -172 1564 -182 q 1539 -143 1539 -161 q 1583 -104 1539 -107 q 1615 -115 1603 -104 q 1626 -143 1626 -125 q 1583 -182 1626 -178 m 1583 -158 q 1596 -143 1596 -158 q 1583 -128 1596 -128 q 1571 -143 1571 -128 q 1583 -158 1571 -158 m 1694 -104 q 1725 -137 1725 -104 l 1725 -181 l 1694 -181 l 1694 -143 q 1685 -131 1694 -131 q 1674 -146 1674 -131 l 1674 -181 l 1643 -181 l 1643 -106 l 1672 -106 l 1672 -112 q 1694 -104 1681 -104 m 107 346 l 1781 346 l 1781 356 l 107 356 l 107 346 z "},"3":{"ha":1908,"x_min":107,"x_max":1781,"o":"m 203 782 q 138 809 164 782 q 113 875 113 836 q 139 941 113 914 q 204 968 165 968 q 269 942 243 968 q 294 875 294 915 q 268 809 294 836 q 203 782 242 782 m 203 806 q 251 826 232 806 q 271 875 271 846 q 252 925 271 906 q 204 944 233 944 q 156 924 175 944 q 136 875 136 904 q 156 826 136 846 q 203 806 175 806 m 207 824 q 167 838 183 824 q 151 875 151 853 q 167 913 151 897 q 207 928 183 928 q 254 897 243 928 l 221 881 q 207 890 217 890 q 194 875 194 890 q 207 860 194 860 q 221 869 217 860 l 254 853 q 207 824 243 824 m 488 832 l 488 783 l 321 783 l 321 821 l 403 919 l 324 919 l 324 967 l 483 967 l 483 929 l 400 832 l 488 832 m 667 831 l 667 783 l 517 783 l 517 967 l 664 967 l 664 921 l 576 921 l 576 899 l 653 899 l 653 854 l 576 854 l 576 831 l 667 831 m 853 831 l 853 783 l 703 783 l 703 967 l 849 967 l 849 921 l 763 921 l 763 899 l 839 899 l 839 854 l 763 854 l 763 831 l 853 831 m 1067 967 l 1067 783 l 1017 783 l 947 867 l 947 783 l 888 783 l 888 967 l 938 967 l 1007 883 l 1007 967 l 1067 967 m 1258 831 l 1258 783 l 1107 783 l 1107 967 l 1254 967 l 1254 921 l 1168 921 l 1168 899 l 1244 899 l 1244 854 l 1168 854 l 1168 831 l 1258 831 m 1361 779 q 1282 799 1310 779 l 1301 843 q 1361 826 1331 826 q 1385 836 1385 826 q 1378 844 1385 842 q 1354 851 1371 847 q 1303 869 1322 858 q 1285 910 1285 881 q 1307 953 1285 936 q 1369 971 1329 971 q 1438 956 1411 971 l 1419 910 q 1368 924 1393 924 q 1344 913 1344 924 q 1351 904 1344 907 q 1375 899 1358 901 q 1426 881 1407 892 q 1444 842 1444 869 q 1423 797 1444 814 q 1361 779 1401 779 m 1475 967 l 1536 967 l 1536 783 l 1475 783 l 1475 967 m 1700 815 l 1631 815 l 1619 783 l 1557 783 l 1636 967 l 1696 967 l 1775 783 l 1713 783 l 1700 815 m 1683 860 l 1665 906 l 1649 860 l 1683 860 m 363 664 l 335 664 l 335 689 l 422 689 l 422 664 l 394 664 l 394 592 l 363 592 l 363 664 m 532 689 l 532 592 l 500 592 l 500 628 l 469 628 l 469 592 l 438 592 l 438 689 l 469 689 l 469 656 l 500 656 l 500 689 l 532 689 m 554 689 l 586 689 l 586 592 l 554 592 l 554 689 m 643 590 q 601 600 618 590 l 613 624 q 643 615 625 615 q 656 621 656 615 q 640 628 656 625 q 613 637 624 631 q 603 658 603 643 q 615 682 603 672 q 647 692 626 692 q 683 683 669 692 l 674 660 q 647 667 660 667 q 635 661 635 667 q 651 653 635 657 q 678 643 668 649 q 688 622 688 638 q 676 599 688 608 q 643 590 665 590 m 783 665 l 783 649 l 824 649 l 824 624 l 783 624 l 783 592 l 751 592 l 751 689 l 829 689 l 829 665 l 783 665 m 894 590 q 856 604 871 590 q 840 640 840 618 q 856 677 840 663 q 894 692 871 692 q 933 677 918 692 q 949 640 949 663 q 933 604 949 618 q 894 590 918 590 m 894 617 q 910 623 904 617 q 917 640 917 629 q 894 665 917 664 q 880 658 886 665 q 874 640 874 651 q 894 617 874 617 m 1061 689 l 1061 592 l 1035 592 l 999 636 l 999 592 l 967 592 l 967 689 l 993 689 l 1029 646 l 1029 689 l 1061 689 m 1104 664 l 1076 664 l 1076 689 l 1164 689 l 1164 664 l 1136 664 l 1136 592 l 1104 592 l 1104 664 m 1258 665 l 1258 649 l 1299 649 l 1299 624 l 1258 624 l 1258 592 l 1226 592 l 1226 689 l 1304 689 l 1304 665 l 1258 665 m 1371 590 q 1332 604 1347 590 q 1317 640 1317 618 q 1332 677 1317 663 q 1371 692 1347 692 q 1410 677 1394 692 q 1425 640 1425 663 q 1410 604 1425 618 q 1371 590 1394 590 m 1371 617 q 1385 623 1379 617 q 1392 640 1392 629 q 1371 665 1392 664 q 1355 658 1361 665 q 1349 640 1349 651 q 1371 617 1349 617 m 1483 617 l 1475 617 l 1475 592 l 1442 592 l 1442 689 l 1489 689 q 1532 653 1528 689 q 1514 622 1532 631 l 1535 592 l 1500 592 l 1483 617 m 1500 653 q 1486 664 1500 664 l 1475 664 l 1475 642 l 1486 642 q 1500 653 1500 642 m 154 528 q 199 492 196 528 q 187 465 199 475 q 154 454 175 454 l 140 454 l 140 431 l 108 431 l 108 528 l 154 528 m 153 481 q 165 492 165 481 q 153 503 165 503 l 140 503 l 140 481 l 153 481 m 294 456 l 294 431 l 215 431 l 215 528 l 293 528 l 293 503 l 247 503 l 247 492 l 288 492 l 288 468 l 247 468 l 247 456 l 294 456 m 354 456 l 346 456 l 346 431 l 314 431 l 314 528 l 360 528 q 403 492 400 528 q 385 461 403 469 l 406 431 l 371 431 l 354 456 m 371 492 q 357 503 371 503 l 346 503 l 346 481 l 357 481 q 371 492 371 481 m 457 429 q 415 439 432 429 l 426 463 q 457 454 439 454 q 469 458 469 454 q 453 467 469 463 q 426 476 436 471 q 417 497 417 482 q 428 521 417 511 q 461 531 440 531 q 497 522 483 531 l 488 499 q 461 506 474 506 q 449 499 449 506 q 464 492 449 494 q 491 483 481 489 q 501 461 501 476 q 490 438 501 447 q 457 429 479 429 m 568 429 q 529 443 544 429 q 514 479 514 457 q 529 516 514 501 q 568 531 544 531 q 607 516 592 531 q 622 479 622 501 q 607 443 622 457 q 568 429 592 429 m 568 456 q 583 462 576 456 q 589 479 589 468 q 568 504 589 503 q 552 497 558 504 q 546 479 546 490 q 568 456 546 456 m 735 528 l 735 431 l 708 431 l 671 475 l 671 431 l 640 431 l 640 528 l 667 528 l 703 483 l 703 528 l 735 528 m 821 449 l 785 449 l 779 431 l 746 431 l 788 528 l 819 528 l 861 431 l 828 431 l 821 449 m 813 471 l 803 496 l 794 471 l 813 471 m 872 528 l 906 528 l 906 457 l 949 457 l 949 431 l 872 431 l 872 528 m 1057 429 q 1022 441 1035 429 q 1010 475 1010 453 l 1010 528 l 1043 528 l 1043 475 q 1057 456 1043 456 q 1072 475 1072 456 l 1072 528 l 1103 528 l 1103 475 q 1057 429 1103 431 m 1160 429 q 1118 439 1135 429 l 1129 463 q 1160 454 1142 454 q 1172 458 1172 454 q 1156 467 1172 463 q 1129 476 1139 471 q 1119 497 1119 482 q 1131 521 1119 511 q 1164 531 1143 531 q 1200 522 1186 531 l 1190 499 q 1164 506 1176 506 q 1151 499 1151 506 q 1167 492 1151 494 q 1194 483 1183 489 q 1204 461 1204 476 q 1193 438 1204 447 q 1160 429 1182 429 m 1300 456 l 1300 431 l 1221 431 l 1221 528 l 1299 528 l 1299 503 l 1253 503 l 1253 492 l 1293 492 l 1293 468 l 1253 468 l 1253 456 l 1300 456 m 1417 429 q 1378 443 1393 429 q 1363 479 1363 457 q 1378 516 1363 501 q 1417 531 1393 531 q 1456 516 1440 531 q 1471 479 1471 501 q 1456 443 1471 457 q 1417 429 1440 429 m 1417 456 q 1431 462 1425 456 q 1438 479 1438 468 q 1417 504 1438 503 q 1401 497 1407 504 q 1394 479 1394 490 q 1417 456 1394 456 m 1583 528 l 1583 431 l 1557 431 l 1519 475 l 1519 431 l 1489 431 l 1489 528 l 1515 528 l 1551 483 l 1551 528 l 1583 528 m 1604 528 l 1638 528 l 1638 457 l 1681 457 l 1681 431 l 1604 431 l 1604 528 m 1743 467 l 1743 431 l 1711 431 l 1711 467 l 1675 528 l 1708 528 l 1728 494 l 1747 528 l 1779 528 l 1743 467 m 276 189 l 257 218 q 253 217 256 217 l 232 217 l 232 189 l 214 189 l 214 286 l 253 286 q 294 251 294 286 q 274 221 294 231 l 296 189 l 276 189 m 276 251 q 253 271 276 271 l 232 271 l 232 232 l 253 232 q 276 251 276 232 m 388 225 q 388 221 388 225 l 329 221 q 353 203 333 203 q 374 211 365 203 l 382 200 q 353 188 374 188 q 313 226 315 188 q 350 264 313 260 q 377 253 367 264 q 388 225 388 243 m 350 250 q 329 232 332 250 l 371 232 q 350 250 368 250 m 436 264 q 469 232 469 264 l 469 189 l 453 189 l 453 199 q 429 188 446 188 q 403 210 404 188 q 433 232 403 232 l 451 232 l 451 233 q 433 250 451 250 q 411 242 419 250 l 404 254 q 436 264 415 264 m 433 200 q 451 213 447 200 l 451 221 l 433 221 q 419 211 419 221 q 433 200 419 200 m 532 188 q 503 199 514 188 q 492 226 492 210 q 532 264 492 260 q 563 247 554 264 l 550 239 q 531 249 542 249 q 515 242 521 249 q 508 226 508 236 q 531 203 508 203 q 550 213 542 203 l 563 206 q 532 188 553 188 m 624 264 q 654 232 654 264 l 654 189 l 638 189 l 638 229 q 619 249 638 249 q 600 226 600 249 l 600 189 l 582 189 l 582 292 l 600 292 l 600 254 q 624 264 608 264 m 818 264 q 849 232 849 264 l 849 189 l 832 189 l 832 229 q 815 249 832 249 q 796 226 796 249 l 796 189 l 779 189 l 779 229 q 763 249 779 249 q 743 226 743 249 l 743 189 l 726 189 l 726 263 l 743 263 l 743 254 q 767 264 753 264 q 792 251 783 264 q 818 264 800 264 m 946 225 q 946 221 946 225 l 889 221 q 913 203 892 203 q 932 211 924 203 l 942 200 q 913 188 931 188 q 872 226 875 188 q 910 264 872 260 q 935 253 925 264 q 946 225 946 243 m 910 250 q 889 232 892 250 l 931 232 q 910 250 928 250 m 1053 264 q 1090 226 1086 264 q 1053 188 1090 192 q 1029 199 1038 188 l 1029 189 l 1013 189 l 1013 292 l 1029 292 l 1029 254 q 1053 264 1039 264 m 1051 203 q 1074 226 1069 203 q 1051 249 1074 247 q 1035 242 1042 249 q 1029 226 1029 236 q 1051 203 1029 206 m 1179 263 l 1144 183 q 1117 161 1135 161 q 1097 168 1104 161 l 1104 181 q 1117 175 1110 175 q 1129 186 1125 175 l 1131 189 l 1099 263 l 1117 263 l 1139 208 l 1163 263 l 1179 263 m 1308 225 q 1308 221 1308 225 l 1251 221 q 1275 203 1254 203 q 1294 211 1286 203 l 1304 200 q 1274 188 1294 188 q 1244 199 1256 188 q 1233 226 1233 210 q 1272 264 1233 260 q 1298 253 1288 264 q 1308 225 1308 243 m 1272 250 q 1251 232 1254 250 l 1292 232 q 1272 250 1289 250 m 1424 264 q 1453 232 1453 264 l 1453 189 l 1436 189 l 1436 229 q 1419 249 1436 249 q 1401 226 1401 249 l 1401 189 l 1383 189 l 1383 229 q 1367 249 1383 249 q 1349 226 1349 249 l 1349 189 l 1331 189 l 1331 263 l 1347 263 l 1347 254 q 1371 264 1357 264 q 1396 251 1388 264 q 1424 264 1404 264 m 1510 264 q 1543 232 1543 264 l 1543 189 l 1526 189 l 1526 199 q 1503 188 1519 188 q 1476 210 1478 188 q 1507 232 1476 232 l 1525 232 l 1525 233 q 1507 250 1525 250 q 1485 242 1493 250 l 1478 254 q 1510 264 1489 264 m 1507 200 q 1525 213 1521 200 l 1525 221 l 1508 221 q 1493 211 1493 221 q 1507 200 1493 200 m 1579 275 q 1568 286 1568 275 q 1579 296 1568 294 q 1590 286 1590 296 q 1579 275 1590 275 m 1571 263 l 1588 263 l 1588 189 l 1571 189 l 1571 263 m 1617 292 l 1633 292 l 1633 189 l 1617 189 l 1617 292 m 183 26 l 183 4 l 111 4 l 111 22 l 142 57 l 113 57 l 113 81 l 181 81 l 181 63 l 150 26 l 183 26 m 276 42 q 276 35 276 42 l 225 35 q 240 26 228 26 q 256 32 249 26 l 271 15 q 239 3 261 3 q 193 42 197 3 q 205 71 193 60 q 236 82 217 82 q 265 72 254 82 q 276 42 276 61 m 236 60 q 224 50 226 60 l 249 50 q 236 60 246 60 m 372 42 q 372 35 372 42 l 321 35 q 335 26 322 26 q 351 32 344 26 l 367 15 q 335 3 356 3 q 289 42 293 3 q 301 71 289 60 q 332 82 313 82 q 361 72 350 82 q 372 42 372 61 m 332 60 q 319 50 322 60 l 343 50 q 332 60 343 58 m 440 82 q 471 47 471 82 l 471 4 l 440 4 l 440 42 q 431 56 440 56 q 419 40 419 56 l 419 4 l 389 4 l 389 81 l 418 81 l 418 72 q 440 82 428 82 m 531 82 q 560 72 549 82 q 572 42 572 61 q 572 39 572 42 q 571 35 571 36 l 519 35 q 535 26 522 26 q 550 32 543 26 l 567 15 q 533 3 554 3 q 488 42 492 3 q 499 71 488 60 q 531 82 511 82 m 531 60 q 518 50 521 60 l 543 50 q 531 60 540 60 m 617 3 q 583 10 594 3 l 592 31 q 618 24 603 24 q 626 28 626 24 q 615 31 626 31 q 592 38 601 33 q 583 56 583 42 q 594 74 583 67 q 622 82 604 82 q 653 75 639 82 l 644 54 q 622 60 633 60 q 613 57 613 60 q 624 53 613 54 q 647 45 639 50 q 656 28 656 40 q 646 10 656 17 q 617 3 636 3 m 686 86 q 668 101 669 86 q 686 118 668 118 q 706 103 703 118 q 686 86 706 89 m 671 81 l 701 81 l 701 4 l 671 4 l 671 81 m 756 82 q 796 44 796 82 l 796 4 l 767 4 l 767 14 q 746 3 763 3 q 718 26 718 3 q 753 49 718 49 l 765 49 q 750 58 764 58 q 732 51 739 58 l 722 72 q 756 82 736 82 m 756 21 q 765 29 764 21 l 765 33 l 757 33 q 747 28 747 33 q 756 21 747 21 m 881 103 q 928 85 910 103 q 947 43 947 68 q 938 13 947 24 q 914 3 928 3 q 893 15 900 3 q 872 3 886 3 q 851 12 860 3 q 843 38 843 21 q 872 72 843 69 q 889 65 882 72 l 889 71 l 915 71 l 915 31 q 921 24 915 24 q 928 43 928 24 q 915 74 928 63 q 881 86 901 86 q 847 72 860 86 q 833 39 833 58 q 847 6 833 19 q 881 -7 860 -7 q 908 -1 896 -7 l 914 -18 q 881 -25 900 -25 q 831 -7 850 -25 q 813 39 813 11 q 831 85 813 67 q 881 103 850 103 m 879 25 q 889 38 889 25 q 879 50 889 50 q 869 38 869 50 q 879 25 869 25 m 1047 81 l 1047 19 q 1001 -24 1047 -24 q 964 -15 979 -24 l 975 7 q 999 -1 983 -1 q 1017 15 1017 -1 l 1017 17 q 996 8 1008 8 q 970 18 981 8 q 960 44 960 28 q 996 82 960 78 q 1018 71 1010 82 l 1018 81 l 1047 81 m 1004 32 q 1017 44 1014 32 q 1004 57 1017 57 q 990 44 990 57 q 1004 32 990 33 m 1167 82 q 1196 47 1196 82 l 1196 4 l 1165 4 l 1165 42 q 1157 56 1165 56 q 1147 42 1147 56 l 1147 4 l 1117 4 l 1117 42 q 1108 56 1117 56 q 1099 42 1099 56 l 1099 4 l 1067 4 l 1067 81 l 1096 81 l 1096 72 q 1118 82 1106 82 q 1142 69 1133 82 q 1167 82 1150 82 m 1249 82 q 1289 44 1289 82 l 1289 4 l 1261 4 l 1261 14 q 1240 3 1254 3 q 1213 26 1213 3 q 1246 49 1213 49 l 1258 49 q 1244 58 1257 58 q 1225 51 1235 58 l 1215 72 q 1249 82 1231 82 m 1249 21 q 1258 29 1256 21 l 1258 33 l 1251 33 q 1242 28 1242 33 q 1249 21 1242 21 m 1325 86 q 1306 101 1308 86 q 1325 118 1306 117 q 1343 103 1342 118 q 1325 86 1343 86 m 1310 81 l 1340 81 l 1340 4 l 1310 4 l 1310 81 m 1360 107 l 1390 107 l 1390 4 l 1360 4 l 1360 107 m 1425 3 q 1407 21 1407 3 q 1425 39 1407 39 q 1438 34 1432 39 q 1443 21 1443 29 q 1425 3 1443 4 m 1499 3 q 1467 14 1479 3 q 1454 42 1454 25 q 1467 71 1454 60 q 1499 82 1479 82 q 1536 58 1526 82 l 1513 47 q 1499 57 1507 57 q 1486 42 1486 57 q 1499 26 1486 26 q 1513 38 1506 26 l 1536 25 q 1499 3 1528 3 m 1588 3 q 1557 14 1569 3 q 1544 42 1544 25 q 1556 71 1544 60 q 1588 82 1568 82 q 1619 71 1607 82 q 1632 42 1632 60 q 1619 14 1632 25 q 1588 3 1607 3 m 1588 26 q 1600 42 1600 26 q 1588 57 1600 57 q 1576 42 1576 57 q 1588 26 1576 26 m 1746 82 q 1776 47 1776 82 l 1776 4 l 1746 4 l 1746 42 q 1738 56 1746 56 q 1728 42 1728 56 l 1728 4 l 1696 4 l 1696 42 q 1688 56 1696 56 q 1678 42 1678 56 l 1678 4 l 1647 4 l 1647 81 l 1676 81 l 1676 72 q 1699 82 1685 82 q 1721 69 1714 82 q 1746 82 1731 82 m 204 -108 l 204 -125 l 244 -125 l 244 -150 l 204 -150 l 204 -181 l 172 -181 l 172 -83 l 250 -83 l 250 -108 l 204 -108 m 304 -182 q 273 -172 285 -182 q 261 -143 261 -161 q 304 -104 261 -107 q 335 -115 324 -104 q 347 -143 347 -125 q 304 -182 347 -178 m 304 -158 q 317 -143 317 -158 q 304 -128 317 -128 q 292 -143 292 -128 q 304 -158 292 -158 m 393 -114 q 417 -104 401 -104 l 417 -132 q 410 -131 414 -131 q 394 -147 394 -131 l 394 -181 l 364 -181 l 364 -106 l 393 -106 l 393 -114 m 563 -106 l 563 -165 q 518 -210 563 -210 q 481 -200 494 -210 l 490 -178 q 514 -186 499 -186 q 532 -169 532 -186 l 532 -168 q 511 -176 525 -176 q 485 -167 496 -176 q 475 -140 475 -157 q 485 -114 475 -124 q 511 -104 496 -104 q 533 -114 528 -104 l 533 -106 l 563 -106 m 519 -153 q 532 -140 531 -153 q 519 -128 532 -131 q 507 -140 508 -128 q 519 -153 507 -150 m 663 -143 q 663 -150 663 -143 l 610 -150 q 625 -160 614 -160 q 640 -154 632 -160 l 657 -169 q 624 -182 646 -182 q 592 -171 604 -182 q 579 -143 579 -160 q 621 -104 579 -107 q 651 -114 639 -104 q 663 -143 663 -124 m 622 -125 q 610 -135 613 -125 l 633 -135 q 622 -125 631 -125 m 733 -178 q 714 -182 728 -182 q 682 -151 682 -182 l 682 -132 l 671 -132 l 671 -110 l 682 -110 l 682 -87 l 713 -87 l 713 -110 l 728 -110 l 728 -132 l 713 -132 l 713 -151 q 719 -158 713 -158 q 726 -157 724 -158 l 733 -178 m 828 -108 l 828 -125 l 868 -125 l 868 -150 l 828 -150 l 828 -181 l 796 -181 l 796 -83 l 874 -83 l 874 -108 l 828 -108 m 969 -106 l 969 -181 l 940 -181 l 940 -174 q 919 -182 932 -182 q 888 -147 888 -182 l 888 -106 l 919 -106 l 919 -142 q 929 -156 919 -156 q 939 -140 939 -156 l 939 -106 l 969 -106 m 990 -78 l 1021 -78 l 1021 -181 l 990 -181 l 990 -78 m 1040 -78 l 1072 -78 l 1072 -181 l 1040 -181 l 1040 -78 m 1242 -83 l 1201 -181 l 1169 -181 l 1129 -83 l 1164 -83 l 1188 -140 l 1211 -83 l 1242 -83 m 1325 -143 q 1325 -150 1325 -143 l 1272 -150 q 1288 -160 1278 -160 q 1303 -154 1294 -160 l 1319 -169 q 1286 -182 1310 -182 q 1242 -143 1244 -182 q 1283 -104 1242 -107 q 1313 -114 1301 -104 q 1325 -143 1325 -124 m 1283 -125 q 1272 -135 1275 -125 l 1296 -135 q 1283 -125 1293 -125 m 1369 -114 q 1394 -104 1378 -104 l 1394 -132 q 1388 -131 1392 -131 q 1371 -147 1371 -131 l 1371 -181 l 1340 -181 l 1340 -106 l 1369 -106 l 1369 -114 m 1439 -182 q 1404 -175 1418 -182 l 1413 -154 q 1439 -161 1424 -161 q 1449 -157 1449 -161 q 1438 -154 1449 -154 q 1415 -147 1424 -151 q 1406 -129 1406 -143 q 1415 -111 1406 -118 q 1444 -104 1425 -104 q 1475 -110 1464 -104 l 1465 -131 q 1444 -125 1456 -125 q 1435 -129 1435 -125 q 1446 -132 1435 -132 q 1469 -139 1460 -135 q 1478 -157 1478 -143 q 1467 -175 1478 -168 q 1439 -182 1457 -182 m 1508 -99 q 1489 -83 1492 -99 q 1508 -67 1489 -69 q 1526 -82 1525 -67 q 1508 -99 1526 -99 m 1493 -106 l 1524 -106 l 1524 -181 l 1493 -181 l 1493 -106 m 1583 -182 q 1551 -172 1564 -182 q 1539 -143 1539 -161 q 1583 -104 1539 -107 q 1615 -115 1603 -104 q 1626 -143 1626 -125 q 1583 -182 1626 -178 m 1583 -158 q 1596 -143 1596 -158 q 1583 -128 1596 -128 q 1571 -143 1571 -128 q 1583 -158 1571 -158 m 1694 -104 q 1725 -137 1725 -104 l 1725 -181 l 1694 -181 l 1694 -143 q 1685 -131 1694 -131 q 1674 -146 1674 -131 l 1674 -181 l 1643 -181 l 1643 -106 l 1672 -106 l 1672 -112 q 1694 -104 1681 -104 m 107 346 l 1781 346 l 1781 356 l 107 356 l 107 346 z "},"4":{"ha":1908,"x_min":107,"x_max":1781,"o":"m 203 782 q 138 809 164 782 q 113 875 113 836 q 139 941 113 914 q 204 968 165 968 q 269 942 243 968 q 294 875 294 915 q 268 809 294 836 q 203 782 242 782 m 203 806 q 251 826 232 806 q 271 875 271 846 q 252 925 271 906 q 204 944 233 944 q 156 924 175 944 q 136 875 136 904 q 156 826 136 846 q 203 806 175 806 m 207 824 q 167 838 183 824 q 151 875 151 853 q 167 913 151 897 q 207 928 183 928 q 254 897 243 928 l 221 881 q 207 890 217 890 q 194 875 194 890 q 207 860 194 860 q 221 869 217 860 l 254 853 q 207 824 243 824 m 488 832 l 488 783 l 321 783 l 321 821 l 403 919 l 324 919 l 324 967 l 483 967 l 483 929 l 400 832 l 488 832 m 667 831 l 667 783 l 517 783 l 517 967 l 664 967 l 664 921 l 576 921 l 576 899 l 653 899 l 653 854 l 576 854 l 576 831 l 667 831 m 853 831 l 853 783 l 703 783 l 703 967 l 849 967 l 849 921 l 763 921 l 763 899 l 839 899 l 839 854 l 763 854 l 763 831 l 853 831 m 1067 967 l 1067 783 l 1017 783 l 947 867 l 947 783 l 888 783 l 888 967 l 938 967 l 1007 883 l 1007 967 l 1067 967 m 1258 831 l 1258 783 l 1107 783 l 1107 967 l 1254 967 l 1254 921 l 1168 921 l 1168 899 l 1244 899 l 1244 854 l 1168 854 l 1168 831 l 1258 831 m 1361 779 q 1282 799 1310 779 l 1301 843 q 1361 826 1331 826 q 1385 836 1385 826 q 1378 844 1385 842 q 1354 851 1371 847 q 1303 869 1322 858 q 1285 910 1285 881 q 1307 953 1285 936 q 1369 971 1329 971 q 1438 956 1411 971 l 1419 910 q 1368 924 1393 924 q 1344 913 1344 924 q 1351 904 1344 907 q 1375 899 1358 901 q 1426 881 1407 892 q 1444 842 1444 869 q 1423 797 1444 814 q 1361 779 1401 779 m 1475 967 l 1536 967 l 1536 783 l 1475 783 l 1475 967 m 1700 815 l 1631 815 l 1619 783 l 1557 783 l 1636 967 l 1696 967 l 1775 783 l 1713 783 l 1700 815 m 1683 860 l 1665 906 l 1649 860 l 1683 860 m 363 664 l 335 664 l 335 689 l 422 689 l 422 664 l 394 664 l 394 592 l 363 592 l 363 664 m 532 689 l 532 592 l 500 592 l 500 628 l 469 628 l 469 592 l 438 592 l 438 689 l 469 689 l 469 656 l 500 656 l 500 689 l 532 689 m 554 689 l 586 689 l 586 592 l 554 592 l 554 689 m 643 590 q 601 600 618 590 l 613 624 q 643 615 625 615 q 656 621 656 615 q 640 628 656 625 q 613 637 624 631 q 603 658 603 643 q 615 682 603 672 q 647 692 626 692 q 683 683 669 692 l 674 660 q 647 667 660 667 q 635 661 635 667 q 651 653 635 657 q 678 643 668 649 q 688 622 688 638 q 676 599 688 608 q 643 590 665 590 m 783 665 l 783 649 l 824 649 l 824 624 l 783 624 l 783 592 l 751 592 l 751 689 l 829 689 l 829 665 l 783 665 m 894 590 q 856 604 871 590 q 840 640 840 618 q 856 677 840 663 q 894 692 871 692 q 933 677 918 692 q 949 640 949 663 q 933 604 949 618 q 894 590 918 590 m 894 617 q 910 623 904 617 q 917 640 917 629 q 894 665 917 664 q 880 658 886 665 q 874 640 874 651 q 894 617 874 617 m 1061 689 l 1061 592 l 1035 592 l 999 636 l 999 592 l 967 592 l 967 689 l 993 689 l 1029 646 l 1029 689 l 1061 689 m 1104 664 l 1076 664 l 1076 689 l 1164 689 l 1164 664 l 1136 664 l 1136 592 l 1104 592 l 1104 664 m 1258 665 l 1258 649 l 1299 649 l 1299 624 l 1258 624 l 1258 592 l 1226 592 l 1226 689 l 1304 689 l 1304 665 l 1258 665 m 1371 590 q 1332 604 1347 590 q 1317 640 1317 618 q 1332 677 1317 663 q 1371 692 1347 692 q 1410 677 1394 692 q 1425 640 1425 663 q 1410 604 1425 618 q 1371 590 1394 590 m 1371 617 q 1385 623 1379 617 q 1392 640 1392 629 q 1371 665 1392 664 q 1355 658 1361 665 q 1349 640 1349 651 q 1371 617 1349 617 m 1483 617 l 1475 617 l 1475 592 l 1442 592 l 1442 689 l 1489 689 q 1532 653 1528 689 q 1514 622 1532 631 l 1535 592 l 1500 592 l 1483 617 m 1500 653 q 1486 664 1500 664 l 1475 664 l 1475 642 l 1486 642 q 1500 653 1500 642 m 154 528 q 199 492 196 528 q 187 465 199 475 q 154 454 175 454 l 140 454 l 140 431 l 108 431 l 108 528 l 154 528 m 153 481 q 165 492 165 481 q 153 503 165 503 l 140 503 l 140 481 l 153 481 m 294 456 l 294 431 l 215 431 l 215 528 l 293 528 l 293 503 l 247 503 l 247 492 l 288 492 l 288 468 l 247 468 l 247 456 l 294 456 m 354 456 l 346 456 l 346 431 l 314 431 l 314 528 l 360 528 q 403 492 400 528 q 385 461 403 469 l 406 431 l 371 431 l 354 456 m 371 492 q 357 503 371 503 l 346 503 l 346 481 l 357 481 q 371 492 371 481 m 457 429 q 415 439 432 429 l 426 463 q 457 454 439 454 q 469 458 469 454 q 453 467 469 463 q 426 476 436 471 q 417 497 417 482 q 428 521 417 511 q 461 531 440 531 q 497 522 483 531 l 488 499 q 461 506 474 506 q 449 499 449 506 q 464 492 449 494 q 491 483 481 489 q 501 461 501 476 q 490 438 501 447 q 457 429 479 429 m 568 429 q 529 443 544 429 q 514 479 514 457 q 529 516 514 501 q 568 531 544 531 q 607 516 592 531 q 622 479 622 501 q 607 443 622 457 q 568 429 592 429 m 568 456 q 583 462 576 456 q 589 479 589 468 q 568 504 589 503 q 552 497 558 504 q 546 479 546 490 q 568 456 546 456 m 735 528 l 735 431 l 708 431 l 671 475 l 671 431 l 640 431 l 640 528 l 667 528 l 703 483 l 703 528 l 735 528 m 821 449 l 785 449 l 779 431 l 746 431 l 788 528 l 819 528 l 861 431 l 828 431 l 821 449 m 813 471 l 803 496 l 794 471 l 813 471 m 872 528 l 906 528 l 906 457 l 949 457 l 949 431 l 872 431 l 872 528 m 1057 429 q 1022 441 1035 429 q 1010 475 1010 453 l 1010 528 l 1043 528 l 1043 475 q 1057 456 1043 456 q 1072 475 1072 456 l 1072 528 l 1103 528 l 1103 475 q 1057 429 1103 431 m 1160 429 q 1118 439 1135 429 l 1129 463 q 1160 454 1142 454 q 1172 458 1172 454 q 1156 467 1172 463 q 1129 476 1139 471 q 1119 497 1119 482 q 1131 521 1119 511 q 1164 531 1143 531 q 1200 522 1186 531 l 1190 499 q 1164 506 1176 506 q 1151 499 1151 506 q 1167 492 1151 494 q 1194 483 1183 489 q 1204 461 1204 476 q 1193 438 1204 447 q 1160 429 1182 429 m 1300 456 l 1300 431 l 1221 431 l 1221 528 l 1299 528 l 1299 503 l 1253 503 l 1253 492 l 1293 492 l 1293 468 l 1253 468 l 1253 456 l 1300 456 m 1417 429 q 1378 443 1393 429 q 1363 479 1363 457 q 1378 516 1363 501 q 1417 531 1393 531 q 1456 516 1440 531 q 1471 479 1471 501 q 1456 443 1471 457 q 1417 429 1440 429 m 1417 456 q 1431 462 1425 456 q 1438 479 1438 468 q 1417 504 1438 503 q 1401 497 1407 504 q 1394 479 1394 490 q 1417 456 1394 456 m 1583 528 l 1583 431 l 1557 431 l 1519 475 l 1519 431 l 1489 431 l 1489 528 l 1515 528 l 1551 483 l 1551 528 l 1583 528 m 1604 528 l 1638 528 l 1638 457 l 1681 457 l 1681 431 l 1604 431 l 1604 528 m 1743 467 l 1743 431 l 1711 431 l 1711 467 l 1675 528 l 1708 528 l 1728 494 l 1747 528 l 1779 528 l 1743 467 m 276 189 l 257 218 q 253 217 256 217 l 232 217 l 232 189 l 214 189 l 214 286 l 253 286 q 294 251 294 286 q 274 221 294 231 l 296 189 l 276 189 m 276 251 q 253 271 276 271 l 232 271 l 232 232 l 253 232 q 276 251 276 232 m 388 225 q 388 221 388 225 l 329 221 q 353 203 333 203 q 374 211 365 203 l 382 200 q 353 188 374 188 q 313 226 315 188 q 350 264 313 260 q 377 253 367 264 q 388 225 388 243 m 350 250 q 329 232 332 250 l 371 232 q 350 250 368 250 m 436 264 q 469 232 469 264 l 469 189 l 453 189 l 453 199 q 429 188 446 188 q 403 210 404 188 q 433 232 403 232 l 451 232 l 451 233 q 433 250 451 250 q 411 242 419 250 l 404 254 q 436 264 415 264 m 433 200 q 451 213 447 200 l 451 221 l 433 221 q 419 211 419 221 q 433 200 419 200 m 532 188 q 503 199 514 188 q 492 226 492 210 q 532 264 492 260 q 563 247 554 264 l 550 239 q 531 249 542 249 q 515 242 521 249 q 508 226 508 236 q 531 203 508 203 q 550 213 542 203 l 563 206 q 532 188 553 188 m 624 264 q 654 232 654 264 l 654 189 l 638 189 l 638 229 q 619 249 638 249 q 600 226 600 249 l 600 189 l 582 189 l 582 292 l 600 292 l 600 254 q 624 264 608 264 m 818 264 q 849 232 849 264 l 849 189 l 832 189 l 832 229 q 815 249 832 249 q 796 226 796 249 l 796 189 l 779 189 l 779 229 q 763 249 779 249 q 743 226 743 249 l 743 189 l 726 189 l 726 263 l 743 263 l 743 254 q 767 264 753 264 q 792 251 783 264 q 818 264 800 264 m 946 225 q 946 221 946 225 l 889 221 q 913 203 892 203 q 932 211 924 203 l 942 200 q 913 188 931 188 q 872 226 875 188 q 910 264 872 260 q 935 253 925 264 q 946 225 946 243 m 910 250 q 889 232 892 250 l 931 232 q 910 250 928 250 m 1053 264 q 1090 226 1086 264 q 1053 188 1090 192 q 1029 199 1038 188 l 1029 189 l 1013 189 l 1013 292 l 1029 292 l 1029 254 q 1053 264 1039 264 m 1051 203 q 1074 226 1069 203 q 1051 249 1074 247 q 1035 242 1042 249 q 1029 226 1029 236 q 1051 203 1029 206 m 1179 263 l 1144 183 q 1117 161 1135 161 q 1097 168 1104 161 l 1104 181 q 1117 175 1110 175 q 1129 186 1125 175 l 1131 189 l 1099 263 l 1117 263 l 1139 208 l 1163 263 l 1179 263 m 1308 225 q 1308 221 1308 225 l 1251 221 q 1275 203 1254 203 q 1294 211 1286 203 l 1304 200 q 1274 188 1294 188 q 1244 199 1256 188 q 1233 226 1233 210 q 1272 264 1233 260 q 1298 253 1288 264 q 1308 225 1308 243 m 1272 250 q 1251 232 1254 250 l 1292 232 q 1272 250 1289 250 m 1424 264 q 1453 232 1453 264 l 1453 189 l 1436 189 l 1436 229 q 1419 249 1436 249 q 1401 226 1401 249 l 1401 189 l 1383 189 l 1383 229 q 1367 249 1383 249 q 1349 226 1349 249 l 1349 189 l 1331 189 l 1331 263 l 1347 263 l 1347 254 q 1371 264 1357 264 q 1396 251 1388 264 q 1424 264 1404 264 m 1510 264 q 1543 232 1543 264 l 1543 189 l 1526 189 l 1526 199 q 1503 188 1519 188 q 1476 210 1478 188 q 1507 232 1476 232 l 1525 232 l 1525 233 q 1507 250 1525 250 q 1485 242 1493 250 l 1478 254 q 1510 264 1489 264 m 1507 200 q 1525 213 1521 200 l 1525 221 l 1508 221 q 1493 211 1493 221 q 1507 200 1493 200 m 1579 275 q 1568 286 1568 275 q 1579 296 1568 294 q 1590 286 1590 296 q 1579 275 1590 275 m 1571 263 l 1588 263 l 1588 189 l 1571 189 l 1571 263 m 1617 292 l 1633 292 l 1633 189 l 1617 189 l 1617 292 m 183 26 l 183 4 l 111 4 l 111 22 l 142 57 l 113 57 l 113 81 l 181 81 l 181 63 l 150 26 l 183 26 m 276 42 q 276 35 276 42 l 225 35 q 240 26 228 26 q 256 32 249 26 l 271 15 q 239 3 261 3 q 193 42 197 3 q 205 71 193 60 q 236 82 217 82 q 265 72 254 82 q 276 42 276 61 m 236 60 q 224 50 226 60 l 249 50 q 236 60 246 60 m 372 42 q 372 35 372 42 l 321 35 q 335 26 322 26 q 351 32 344 26 l 367 15 q 335 3 356 3 q 289 42 293 3 q 301 71 289 60 q 332 82 313 82 q 361 72 350 82 q 372 42 372 61 m 332 60 q 319 50 322 60 l 343 50 q 332 60 343 58 m 440 82 q 471 47 471 82 l 471 4 l 440 4 l 440 42 q 431 56 440 56 q 419 40 419 56 l 419 4 l 389 4 l 389 81 l 418 81 l 418 72 q 440 82 428 82 m 531 82 q 560 72 549 82 q 572 42 572 61 q 572 39 572 42 q 571 35 571 36 l 519 35 q 535 26 522 26 q 550 32 543 26 l 567 15 q 533 3 554 3 q 488 42 492 3 q 499 71 488 60 q 531 82 511 82 m 531 60 q 518 50 521 60 l 543 50 q 531 60 540 60 m 617 3 q 583 10 594 3 l 592 31 q 618 24 603 24 q 626 28 626 24 q 615 31 626 31 q 592 38 601 33 q 583 56 583 42 q 594 74 583 67 q 622 82 604 82 q 653 75 639 82 l 644 54 q 622 60 633 60 q 613 57 613 60 q 624 53 613 54 q 647 45 639 50 q 656 28 656 40 q 646 10 656 17 q 617 3 636 3 m 686 86 q 668 101 669 86 q 686 118 668 118 q 706 103 703 118 q 686 86 706 89 m 671 81 l 701 81 l 701 4 l 671 4 l 671 81 m 756 82 q 796 44 796 82 l 796 4 l 767 4 l 767 14 q 746 3 763 3 q 718 26 718 3 q 753 49 718 49 l 765 49 q 750 58 764 58 q 732 51 739 58 l 722 72 q 756 82 736 82 m 756 21 q 765 29 764 21 l 765 33 l 757 33 q 747 28 747 33 q 756 21 747 21 m 881 103 q 928 85 910 103 q 947 43 947 68 q 938 13 947 24 q 914 3 928 3 q 893 15 900 3 q 872 3 886 3 q 851 12 860 3 q 843 38 843 21 q 872 72 843 69 q 889 65 882 72 l 889 71 l 915 71 l 915 31 q 921 24 915 24 q 928 43 928 24 q 915 74 928 63 q 881 86 901 86 q 847 72 860 86 q 833 39 833 58 q 847 6 833 19 q 881 -7 860 -7 q 908 -1 896 -7 l 914 -18 q 881 -25 900 -25 q 831 -7 850 -25 q 813 39 813 11 q 831 85 813 67 q 881 103 850 103 m 879 25 q 889 38 889 25 q 879 50 889 50 q 869 38 869 50 q 879 25 869 25 m 1047 81 l 1047 19 q 1001 -24 1047 -24 q 964 -15 979 -24 l 975 7 q 999 -1 983 -1 q 1017 15 1017 -1 l 1017 17 q 996 8 1008 8 q 970 18 981 8 q 960 44 960 28 q 996 82 960 78 q 1018 71 1010 82 l 1018 81 l 1047 81 m 1004 32 q 1017 44 1014 32 q 1004 57 1017 57 q 990 44 990 57 q 1004 32 990 33 m 1167 82 q 1196 47 1196 82 l 1196 4 l 1165 4 l 1165 42 q 1157 56 1165 56 q 1147 42 1147 56 l 1147 4 l 1117 4 l 1117 42 q 1108 56 1117 56 q 1099 42 1099 56 l 1099 4 l 1067 4 l 1067 81 l 1096 81 l 1096 72 q 1118 82 1106 82 q 1142 69 1133 82 q 1167 82 1150 82 m 1249 82 q 1289 44 1289 82 l 1289 4 l 1261 4 l 1261 14 q 1240 3 1254 3 q 1213 26 1213 3 q 1246 49 1213 49 l 1258 49 q 1244 58 1257 58 q 1225 51 1235 58 l 1215 72 q 1249 82 1231 82 m 1249 21 q 1258 29 1256 21 l 1258 33 l 1251 33 q 1242 28 1242 33 q 1249 21 1242 21 m 1325 86 q 1306 101 1308 86 q 1325 118 1306 117 q 1343 103 1342 118 q 1325 86 1343 86 m 1310 81 l 1340 81 l 1340 4 l 1310 4 l 1310 81 m 1360 107 l 1390 107 l 1390 4 l 1360 4 l 1360 107 m 1425 3 q 1407 21 1407 3 q 1425 39 1407 39 q 1438 34 1432 39 q 1443 21 1443 29 q 1425 3 1443 4 m 1499 3 q 1467 14 1479 3 q 1454 42 1454 25 q 1467 71 1454 60 q 1499 82 1479 82 q 1536 58 1526 82 l 1513 47 q 1499 57 1507 57 q 1486 42 1486 57 q 1499 26 1486 26 q 1513 38 1506 26 l 1536 25 q 1499 3 1528 3 m 1588 3 q 1557 14 1569 3 q 1544 42 1544 25 q 1556 71 1544 60 q 1588 82 1568 82 q 1619 71 1607 82 q 1632 42 1632 60 q 1619 14 1632 25 q 1588 3 1607 3 m 1588 26 q 1600 42 1600 26 q 1588 57 1600 57 q 1576 42 1576 57 q 1588 26 1576 26 m 1746 82 q 1776 47 1776 82 l 1776 4 l 1746 4 l 1746 42 q 1738 56 1746 56 q 1728 42 1728 56 l 1728 4 l 1696 4 l 1696 42 q 1688 56 1696 56 q 1678 42 1678 56 l 1678 4 l 1647 4 l 1647 81 l 1676 81 l 1676 72 q 1699 82 1685 82 q 1721 69 1714 82 q 1746 82 1731 82 m 204 -108 l 204 -125 l 244 -125 l 244 -150 l 204 -150 l 204 -181 l 172 -181 l 172 -83 l 250 -83 l 250 -108 l 204 -108 m 304 -182 q 273 -172 285 -182 q 261 -143 261 -161 q 304 -104 261 -107 q 335 -115 324 -104 q 347 -143 347 -125 q 304 -182 347 -178 m 304 -158 q 317 -143 317 -158 q 304 -128 317 -128 q 292 -143 292 -128 q 304 -158 292 -158 m 393 -114 q 417 -104 401 -104 l 417 -132 q 410 -131 414 -131 q 394 -147 394 -131 l 394 -181 l 364 -181 l 364 -106 l 393 -106 l 393 -114 m 563 -106 l 563 -165 q 518 -210 563 -210 q 481 -200 494 -210 l 490 -178 q 514 -186 499 -186 q 532 -169 532 -186 l 532 -168 q 511 -176 525 -176 q 485 -167 496 -176 q 475 -140 475 -157 q 485 -114 475 -124 q 511 -104 496 -104 q 533 -114 528 -104 l 533 -106 l 563 -106 m 519 -153 q 532 -140 531 -153 q 519 -128 532 -131 q 507 -140 508 -128 q 519 -153 507 -150 m 663 -143 q 663 -150 663 -143 l 610 -150 q 625 -160 614 -160 q 640 -154 632 -160 l 657 -169 q 624 -182 646 -182 q 592 -171 604 -182 q 579 -143 579 -160 q 621 -104 579 -107 q 651 -114 639 -104 q 663 -143 663 -124 m 622 -125 q 610 -135 613 -125 l 633 -135 q 622 -125 631 -125 m 733 -178 q 714 -182 728 -182 q 682 -151 682 -182 l 682 -132 l 671 -132 l 671 -110 l 682 -110 l 682 -87 l 713 -87 l 713 -110 l 728 -110 l 728 -132 l 713 -132 l 713 -151 q 719 -158 713 -158 q 726 -157 724 -158 l 733 -178 m 828 -108 l 828 -125 l 868 -125 l 868 -150 l 828 -150 l 828 -181 l 796 -181 l 796 -83 l 874 -83 l 874 -108 l 828 -108 m 969 -106 l 969 -181 l 940 -181 l 940 -174 q 919 -182 932 -182 q 888 -147 888 -182 l 888 -106 l 919 -106 l 919 -142 q 929 -156 919 -156 q 939 -140 939 -156 l 939 -106 l 969 -106 m 990 -78 l 1021 -78 l 1021 -181 l 990 -181 l 990 -78 m 1040 -78 l 1072 -78 l 1072 -181 l 1040 -181 l 1040 -78 m 1242 -83 l 1201 -181 l 1169 -181 l 1129 -83 l 1164 -83 l 1188 -140 l 1211 -83 l 1242 -83 m 1325 -143 q 1325 -150 1325 -143 l 1272 -150 q 1288 -160 1278 -160 q 1303 -154 1294 -160 l 1319 -169 q 1286 -182 1310 -182 q 1242 -143 1244 -182 q 1283 -104 1242 -107 q 1313 -114 1301 -104 q 1325 -143 1325 -124 m 1283 -125 q 1272 -135 1275 -125 l 1296 -135 q 1283 -125 1293 -125 m 1369 -114 q 1394 -104 1378 -104 l 1394 -132 q 1388 -131 1392 -131 q 1371 -147 1371 -131 l 1371 -181 l 1340 -181 l 1340 -106 l 1369 -106 l 1369 -114 m 1439 -182 q 1404 -175 1418 -182 l 1413 -154 q 1439 -161 1424 -161 q 1449 -157 1449 -161 q 1438 -154 1449 -154 q 1415 -147 1424 -151 q 1406 -129 1406 -143 q 1415 -111 1406 -118 q 1444 -104 1425 -104 q 1475 -110 1464 -104 l 1465 -131 q 1444 -125 1456 -125 q 1435 -129 1435 -125 q 1446 -132 1435 -132 q 1469 -139 1460 -135 q 1478 -157 1478 -143 q 1467 -175 1478 -168 q 1439 -182 1457 -182 m 1508 -99 q 1489 -83 1492 -99 q 1508 -67 1489 -69 q 1526 -82 1525 -67 q 1508 -99 1526 -99 m 1493 -106 l 1524 -106 l 1524 -181 l 1493 -181 l 1493 -106 m 1583 -182 q 1551 -172 1564 -182 q 1539 -143 1539 -161 q 1583 -104 1539 -107 q 1615 -115 1603 -104 q 1626 -143 1626 -125 q 1583 -182 1626 -178 m 1583 -158 q 1596 -143 1596 -158 q 1583 -128 1596 -128 q 1571 -143 1571 -128 q 1583 -158 1571 -158 m 1694 -104 q 1725 -137 1725 -104 l 1725 -181 l 1694 -181 l 1694 -143 q 1685 -131 1694 -131 q 1674 -146 1674 -131 l 1674 -181 l 1643 -181 l 1643 -106 l 1672 -106 l 1672 -112 q 1694 -104 1681 -104 m 107 346 l 1781 346 l 1781 356 l 107 356 l 107 346 z "},"5":{"ha":1908,"x_min":107,"x_max":1781,"o":"m 203 782 q 138 809 164 782 q 113 875 113 836 q 139 941 113 914 q 204 968 165 968 q 269 942 243 968 q 294 875 294 915 q 268 809 294 836 q 203 782 242 782 m 203 806 q 251 826 232 806 q 271 875 271 846 q 252 925 271 906 q 204 944 233 944 q 156 924 175 944 q 136 875 136 904 q 156 826 136 846 q 203 806 175 806 m 207 824 q 167 838 183 824 q 151 875 151 853 q 167 913 151 897 q 207 928 183 928 q 254 897 243 928 l 221 881 q 207 890 217 890 q 194 875 194 890 q 207 860 194 860 q 221 869 217 860 l 254 853 q 207 824 243 824 m 488 832 l 488 783 l 321 783 l 321 821 l 403 919 l 324 919 l 324 967 l 483 967 l 483 929 l 400 832 l 488 832 m 667 831 l 667 783 l 517 783 l 517 967 l 664 967 l 664 921 l 576 921 l 576 899 l 653 899 l 653 854 l 576 854 l 576 831 l 667 831 m 853 831 l 853 783 l 703 783 l 703 967 l 849 967 l 849 921 l 763 921 l 763 899 l 839 899 l 839 854 l 763 854 l 763 831 l 853 831 m 1067 967 l 1067 783 l 1017 783 l 947 867 l 947 783 l 888 783 l 888 967 l 938 967 l 1007 883 l 1007 967 l 1067 967 m 1258 831 l 1258 783 l 1107 783 l 1107 967 l 1254 967 l 1254 921 l 1168 921 l 1168 899 l 1244 899 l 1244 854 l 1168 854 l 1168 831 l 1258 831 m 1361 779 q 1282 799 1310 779 l 1301 843 q 1361 826 1331 826 q 1385 836 1385 826 q 1378 844 1385 842 q 1354 851 1371 847 q 1303 869 1322 858 q 1285 910 1285 881 q 1307 953 1285 936 q 1369 971 1329 971 q 1438 956 1411 971 l 1419 910 q 1368 924 1393 924 q 1344 913 1344 924 q 1351 904 1344 907 q 1375 899 1358 901 q 1426 881 1407 892 q 1444 842 1444 869 q 1423 797 1444 814 q 1361 779 1401 779 m 1475 967 l 1536 967 l 1536 783 l 1475 783 l 1475 967 m 1700 815 l 1631 815 l 1619 783 l 1557 783 l 1636 967 l 1696 967 l 1775 783 l 1713 783 l 1700 815 m 1683 860 l 1665 906 l 1649 860 l 1683 860 m 363 664 l 335 664 l 335 689 l 422 689 l 422 664 l 394 664 l 394 592 l 363 592 l 363 664 m 532 689 l 532 592 l 500 592 l 500 628 l 469 628 l 469 592 l 438 592 l 438 689 l 469 689 l 469 656 l 500 656 l 500 689 l 532 689 m 554 689 l 586 689 l 586 592 l 554 592 l 554 689 m 643 590 q 601 600 618 590 l 613 624 q 643 615 625 615 q 656 621 656 615 q 640 628 656 625 q 613 637 624 631 q 603 658 603 643 q 615 682 603 672 q 647 692 626 692 q 683 683 669 692 l 674 660 q 647 667 660 667 q 635 661 635 667 q 651 653 635 657 q 678 643 668 649 q 688 622 688 638 q 676 599 688 608 q 643 590 665 590 m 783 665 l 783 649 l 824 649 l 824 624 l 783 624 l 783 592 l 751 592 l 751 689 l 829 689 l 829 665 l 783 665 m 894 590 q 856 604 871 590 q 840 640 840 618 q 856 677 840 663 q 894 692 871 692 q 933 677 918 692 q 949 640 949 663 q 933 604 949 618 q 894 590 918 590 m 894 617 q 910 623 904 617 q 917 640 917 629 q 894 665 917 664 q 880 658 886 665 q 874 640 874 651 q 894 617 874 617 m 1061 689 l 1061 592 l 1035 592 l 999 636 l 999 592 l 967 592 l 967 689 l 993 689 l 1029 646 l 1029 689 l 1061 689 m 1104 664 l 1076 664 l 1076 689 l 1164 689 l 1164 664 l 1136 664 l 1136 592 l 1104 592 l 1104 664 m 1258 665 l 1258 649 l 1299 649 l 1299 624 l 1258 624 l 1258 592 l 1226 592 l 1226 689 l 1304 689 l 1304 665 l 1258 665 m 1371 590 q 1332 604 1347 590 q 1317 640 1317 618 q 1332 677 1317 663 q 1371 692 1347 692 q 1410 677 1394 692 q 1425 640 1425 663 q 1410 604 1425 618 q 1371 590 1394 590 m 1371 617 q 1385 623 1379 617 q 1392 640 1392 629 q 1371 665 1392 664 q 1355 658 1361 665 q 1349 640 1349 651 q 1371 617 1349 617 m 1483 617 l 1475 617 l 1475 592 l 1442 592 l 1442 689 l 1489 689 q 1532 653 1528 689 q 1514 622 1532 631 l 1535 592 l 1500 592 l 1483 617 m 1500 653 q 1486 664 1500 664 l 1475 664 l 1475 642 l 1486 642 q 1500 653 1500 642 m 154 528 q 199 492 196 528 q 187 465 199 475 q 154 454 175 454 l 140 454 l 140 431 l 108 431 l 108 528 l 154 528 m 153 481 q 165 492 165 481 q 153 503 165 503 l 140 503 l 140 481 l 153 481 m 294 456 l 294 431 l 215 431 l 215 528 l 293 528 l 293 503 l 247 503 l 247 492 l 288 492 l 288 468 l 247 468 l 247 456 l 294 456 m 354 456 l 346 456 l 346 431 l 314 431 l 314 528 l 360 528 q 403 492 400 528 q 385 461 403 469 l 406 431 l 371 431 l 354 456 m 371 492 q 357 503 371 503 l 346 503 l 346 481 l 357 481 q 371 492 371 481 m 457 429 q 415 439 432 429 l 426 463 q 457 454 439 454 q 469 458 469 454 q 453 467 469 463 q 426 476 436 471 q 417 497 417 482 q 428 521 417 511 q 461 531 440 531 q 497 522 483 531 l 488 499 q 461 506 474 506 q 449 499 449 506 q 464 492 449 494 q 491 483 481 489 q 501 461 501 476 q 490 438 501 447 q 457 429 479 429 m 568 429 q 529 443 544 429 q 514 479 514 457 q 529 516 514 501 q 568 531 544 531 q 607 516 592 531 q 622 479 622 501 q 607 443 622 457 q 568 429 592 429 m 568 456 q 583 462 576 456 q 589 479 589 468 q 568 504 589 503 q 552 497 558 504 q 546 479 546 490 q 568 456 546 456 m 735 528 l 735 431 l 708 431 l 671 475 l 671 431 l 640 431 l 640 528 l 667 528 l 703 483 l 703 528 l 735 528 m 821 449 l 785 449 l 779 431 l 746 431 l 788 528 l 819 528 l 861 431 l 828 431 l 821 449 m 813 471 l 803 496 l 794 471 l 813 471 m 872 528 l 906 528 l 906 457 l 949 457 l 949 431 l 872 431 l 872 528 m 1057 429 q 1022 441 1035 429 q 1010 475 1010 453 l 1010 528 l 1043 528 l 1043 475 q 1057 456 1043 456 q 1072 475 1072 456 l 1072 528 l 1103 528 l 1103 475 q 1057 429 1103 431 m 1160 429 q 1118 439 1135 429 l 1129 463 q 1160 454 1142 454 q 1172 458 1172 454 q 1156 467 1172 463 q 1129 476 1139 471 q 1119 497 1119 482 q 1131 521 1119 511 q 1164 531 1143 531 q 1200 522 1186 531 l 1190 499 q 1164 506 1176 506 q 1151 499 1151 506 q 1167 492 1151 494 q 1194 483 1183 489 q 1204 461 1204 476 q 1193 438 1204 447 q 1160 429 1182 429 m 1300 456 l 1300 431 l 1221 431 l 1221 528 l 1299 528 l 1299 503 l 1253 503 l 1253 492 l 1293 492 l 1293 468 l 1253 468 l 1253 456 l 1300 456 m 1417 429 q 1378 443 1393 429 q 1363 479 1363 457 q 1378 516 1363 501 q 1417 531 1393 531 q 1456 516 1440 531 q 1471 479 1471 501 q 1456 443 1471 457 q 1417 429 1440 429 m 1417 456 q 1431 462 1425 456 q 1438 479 1438 468 q 1417 504 1438 503 q 1401 497 1407 504 q 1394 479 1394 490 q 1417 456 1394 456 m 1583 528 l 1583 431 l 1557 431 l 1519 475 l 1519 431 l 1489 431 l 1489 528 l 1515 528 l 1551 483 l 1551 528 l 1583 528 m 1604 528 l 1638 528 l 1638 457 l 1681 457 l 1681 431 l 1604 431 l 1604 528 m 1743 467 l 1743 431 l 1711 431 l 1711 467 l 1675 528 l 1708 528 l 1728 494 l 1747 528 l 1779 528 l 1743 467 m 276 189 l 257 218 q 253 217 256 217 l 232 217 l 232 189 l 214 189 l 214 286 l 253 286 q 294 251 294 286 q 274 221 294 231 l 296 189 l 276 189 m 276 251 q 253 271 276 271 l 232 271 l 232 232 l 253 232 q 276 251 276 232 m 388 225 q 388 221 388 225 l 329 221 q 353 203 333 203 q 374 211 365 203 l 382 200 q 353 188 374 188 q 313 226 315 188 q 350 264 313 260 q 377 253 367 264 q 388 225 388 243 m 350 250 q 329 232 332 250 l 371 232 q 350 250 368 250 m 436 264 q 469 232 469 264 l 469 189 l 453 189 l 453 199 q 429 188 446 188 q 403 210 404 188 q 433 232 403 232 l 451 232 l 451 233 q 433 250 451 250 q 411 242 419 250 l 404 254 q 436 264 415 264 m 433 200 q 451 213 447 200 l 451 221 l 433 221 q 419 211 419 221 q 433 200 419 200 m 532 188 q 503 199 514 188 q 492 226 492 210 q 532 264 492 260 q 563 247 554 264 l 550 239 q 531 249 542 249 q 515 242 521 249 q 508 226 508 236 q 531 203 508 203 q 550 213 542 203 l 563 206 q 532 188 553 188 m 624 264 q 654 232 654 264 l 654 189 l 638 189 l 638 229 q 619 249 638 249 q 600 226 600 249 l 600 189 l 582 189 l 582 292 l 600 292 l 600 254 q 624 264 608 264 m 818 264 q 849 232 849 264 l 849 189 l 832 189 l 832 229 q 815 249 832 249 q 796 226 796 249 l 796 189 l 779 189 l 779 229 q 763 249 779 249 q 743 226 743 249 l 743 189 l 726 189 l 726 263 l 743 263 l 743 254 q 767 264 753 264 q 792 251 783 264 q 818 264 800 264 m 946 225 q 946 221 946 225 l 889 221 q 913 203 892 203 q 932 211 924 203 l 942 200 q 913 188 931 188 q 872 226 875 188 q 910 264 872 260 q 935 253 925 264 q 946 225 946 243 m 910 250 q 889 232 892 250 l 931 232 q 910 250 928 250 m 1053 264 q 1090 226 1086 264 q 1053 188 1090 192 q 1029 199 1038 188 l 1029 189 l 1013 189 l 1013 292 l 1029 292 l 1029 254 q 1053 264 1039 264 m 1051 203 q 1074 226 1069 203 q 1051 249 1074 247 q 1035 242 1042 249 q 1029 226 1029 236 q 1051 203 1029 206 m 1179 263 l 1144 183 q 1117 161 1135 161 q 1097 168 1104 161 l 1104 181 q 1117 175 1110 175 q 1129 186 1125 175 l 1131 189 l 1099 263 l 1117 263 l 1139 208 l 1163 263 l 1179 263 m 1308 225 q 1308 221 1308 225 l 1251 221 q 1275 203 1254 203 q 1294 211 1286 203 l 1304 200 q 1274 188 1294 188 q 1244 199 1256 188 q 1233 226 1233 210 q 1272 264 1233 260 q 1298 253 1288 264 q 1308 225 1308 243 m 1272 250 q 1251 232 1254 250 l 1292 232 q 1272 250 1289 250 m 1424 264 q 1453 232 1453 264 l 1453 189 l 1436 189 l 1436 229 q 1419 249 1436 249 q 1401 226 1401 249 l 1401 189 l 1383 189 l 1383 229 q 1367 249 1383 249 q 1349 226 1349 249 l 1349 189 l 1331 189 l 1331 263 l 1347 263 l 1347 254 q 1371 264 1357 264 q 1396 251 1388 264 q 1424 264 1404 264 m 1510 264 q 1543 232 1543 264 l 1543 189 l 1526 189 l 1526 199 q 1503 188 1519 188 q 1476 210 1478 188 q 1507 232 1476 232 l 1525 232 l 1525 233 q 1507 250 1525 250 q 1485 242 1493 250 l 1478 254 q 1510 264 1489 264 m 1507 200 q 1525 213 1521 200 l 1525 221 l 1508 221 q 1493 211 1493 221 q 1507 200 1493 200 m 1579 275 q 1568 286 1568 275 q 1579 296 1568 294 q 1590 286 1590 296 q 1579 275 1590 275 m 1571 263 l 1588 263 l 1588 189 l 1571 189 l 1571 263 m 1617 292 l 1633 292 l 1633 189 l 1617 189 l 1617 292 m 183 26 l 183 4 l 111 4 l 111 22 l 142 57 l 113 57 l 113 81 l 181 81 l 181 63 l 150 26 l 183 26 m 276 42 q 276 35 276 42 l 225 35 q 240 26 228 26 q 256 32 249 26 l 271 15 q 239 3 261 3 q 193 42 197 3 q 205 71 193 60 q 236 82 217 82 q 265 72 254 82 q 276 42 276 61 m 236 60 q 224 50 226 60 l 249 50 q 236 60 246 60 m 372 42 q 372 35 372 42 l 321 35 q 335 26 322 26 q 351 32 344 26 l 367 15 q 335 3 356 3 q 289 42 293 3 q 301 71 289 60 q 332 82 313 82 q 361 72 350 82 q 372 42 372 61 m 332 60 q 319 50 322 60 l 343 50 q 332 60 343 58 m 440 82 q 471 47 471 82 l 471 4 l 440 4 l 440 42 q 431 56 440 56 q 419 40 419 56 l 419 4 l 389 4 l 389 81 l 418 81 l 418 72 q 440 82 428 82 m 531 82 q 560 72 549 82 q 572 42 572 61 q 572 39 572 42 q 571 35 571 36 l 519 35 q 535 26 522 26 q 550 32 543 26 l 567 15 q 533 3 554 3 q 488 42 492 3 q 499 71 488 60 q 531 82 511 82 m 531 60 q 518 50 521 60 l 543 50 q 531 60 540 60 m 617 3 q 583 10 594 3 l 592 31 q 618 24 603 24 q 626 28 626 24 q 615 31 626 31 q 592 38 601 33 q 583 56 583 42 q 594 74 583 67 q 622 82 604 82 q 653 75 639 82 l 644 54 q 622 60 633 60 q 613 57 613 60 q 624 53 613 54 q 647 45 639 50 q 656 28 656 40 q 646 10 656 17 q 617 3 636 3 m 686 86 q 668 101 669 86 q 686 118 668 118 q 706 103 703 118 q 686 86 706 89 m 671 81 l 701 81 l 701 4 l 671 4 l 671 81 m 756 82 q 796 44 796 82 l 796 4 l 767 4 l 767 14 q 746 3 763 3 q 718 26 718 3 q 753 49 718 49 l 765 49 q 750 58 764 58 q 732 51 739 58 l 722 72 q 756 82 736 82 m 756 21 q 765 29 764 21 l 765 33 l 757 33 q 747 28 747 33 q 756 21 747 21 m 881 103 q 928 85 910 103 q 947 43 947 68 q 938 13 947 24 q 914 3 928 3 q 893 15 900 3 q 872 3 886 3 q 851 12 860 3 q 843 38 843 21 q 872 72 843 69 q 889 65 882 72 l 889 71 l 915 71 l 915 31 q 921 24 915 24 q 928 43 928 24 q 915 74 928 63 q 881 86 901 86 q 847 72 860 86 q 833 39 833 58 q 847 6 833 19 q 881 -7 860 -7 q 908 -1 896 -7 l 914 -18 q 881 -25 900 -25 q 831 -7 850 -25 q 813 39 813 11 q 831 85 813 67 q 881 103 850 103 m 879 25 q 889 38 889 25 q 879 50 889 50 q 869 38 869 50 q 879 25 869 25 m 1047 81 l 1047 19 q 1001 -24 1047 -24 q 964 -15 979 -24 l 975 7 q 999 -1 983 -1 q 1017 15 1017 -1 l 1017 17 q 996 8 1008 8 q 970 18 981 8 q 960 44 960 28 q 996 82 960 78 q 1018 71 1010 82 l 1018 81 l 1047 81 m 1004 32 q 1017 44 1014 32 q 1004 57 1017 57 q 990 44 990 57 q 1004 32 990 33 m 1167 82 q 1196 47 1196 82 l 1196 4 l 1165 4 l 1165 42 q 1157 56 1165 56 q 1147 42 1147 56 l 1147 4 l 1117 4 l 1117 42 q 1108 56 1117 56 q 1099 42 1099 56 l 1099 4 l 1067 4 l 1067 81 l 1096 81 l 1096 72 q 1118 82 1106 82 q 1142 69 1133 82 q 1167 82 1150 82 m 1249 82 q 1289 44 1289 82 l 1289 4 l 1261 4 l 1261 14 q 1240 3 1254 3 q 1213 26 1213 3 q 1246 49 1213 49 l 1258 49 q 1244 58 1257 58 q 1225 51 1235 58 l 1215 72 q 1249 82 1231 82 m 1249 21 q 1258 29 1256 21 l 1258 33 l 1251 33 q 1242 28 1242 33 q 1249 21 1242 21 m 1325 86 q 1306 101 1308 86 q 1325 118 1306 117 q 1343 103 1342 118 q 1325 86 1343 86 m 1310 81 l 1340 81 l 1340 4 l 1310 4 l 1310 81 m 1360 107 l 1390 107 l 1390 4 l 1360 4 l 1360 107 m 1425 3 q 1407 21 1407 3 q 1425 39 1407 39 q 1438 34 1432 39 q 1443 21 1443 29 q 1425 3 1443 4 m 1499 3 q 1467 14 1479 3 q 1454 42 1454 25 q 1467 71 1454 60 q 1499 82 1479 82 q 1536 58 1526 82 l 1513 47 q 1499 57 1507 57 q 1486 42 1486 57 q 1499 26 1486 26 q 1513 38 1506 26 l 1536 25 q 1499 3 1528 3 m 1588 3 q 1557 14 1569 3 q 1544 42 1544 25 q 1556 71 1544 60 q 1588 82 1568 82 q 1619 71 1607 82 q 1632 42 1632 60 q 1619 14 1632 25 q 1588 3 1607 3 m 1588 26 q 1600 42 1600 26 q 1588 57 1600 57 q 1576 42 1576 57 q 1588 26 1576 26 m 1746 82 q 1776 47 1776 82 l 1776 4 l 1746 4 l 1746 42 q 1738 56 1746 56 q 1728 42 1728 56 l 1728 4 l 1696 4 l 1696 42 q 1688 56 1696 56 q 1678 42 1678 56 l 1678 4 l 1647 4 l 1647 81 l 1676 81 l 1676 72 q 1699 82 1685 82 q 1721 69 1714 82 q 1746 82 1731 82 m 204 -108 l 204 -125 l 244 -125 l 244 -150 l 204 -150 l 204 -181 l 172 -181 l 172 -83 l 250 -83 l 250 -108 l 204 -108 m 304 -182 q 273 -172 285 -182 q 261 -143 261 -161 q 304 -104 261 -107 q 335 -115 324 -104 q 347 -143 347 -125 q 304 -182 347 -178 m 304 -158 q 317 -143 317 -158 q 304 -128 317 -128 q 292 -143 292 -128 q 304 -158 292 -158 m 393 -114 q 417 -104 401 -104 l 417 -132 q 410 -131 414 -131 q 394 -147 394 -131 l 394 -181 l 364 -181 l 364 -106 l 393 -106 l 393 -114 m 563 -106 l 563 -165 q 518 -210 563 -210 q 481 -200 494 -210 l 490 -178 q 514 -186 499 -186 q 532 -169 532 -186 l 532 -168 q 511 -176 525 -176 q 485 -167 496 -176 q 475 -140 475 -157 q 485 -114 475 -124 q 511 -104 496 -104 q 533 -114 528 -104 l 533 -106 l 563 -106 m 519 -153 q 532 -140 531 -153 q 519 -128 532 -131 q 507 -140 508 -128 q 519 -153 507 -150 m 663 -143 q 663 -150 663 -143 l 610 -150 q 625 -160 614 -160 q 640 -154 632 -160 l 657 -169 q 624 -182 646 -182 q 592 -171 604 -182 q 579 -143 579 -160 q 621 -104 579 -107 q 651 -114 639 -104 q 663 -143 663 -124 m 622 -125 q 610 -135 613 -125 l 633 -135 q 622 -125 631 -125 m 733 -178 q 714 -182 728 -182 q 682 -151 682 -182 l 682 -132 l 671 -132 l 671 -110 l 682 -110 l 682 -87 l 713 -87 l 713 -110 l 728 -110 l 728 -132 l 713 -132 l 713 -151 q 719 -158 713 -158 q 726 -157 724 -158 l 733 -178 m 828 -108 l 828 -125 l 868 -125 l 868 -150 l 828 -150 l 828 -181 l 796 -181 l 796 -83 l 874 -83 l 874 -108 l 828 -108 m 969 -106 l 969 -181 l 940 -181 l 940 -174 q 919 -182 932 -182 q 888 -147 888 -182 l 888 -106 l 919 -106 l 919 -142 q 929 -156 919 -156 q 939 -140 939 -156 l 939 -106 l 969 -106 m 990 -78 l 1021 -78 l 1021 -181 l 990 -181 l 990 -78 m 1040 -78 l 1072 -78 l 1072 -181 l 1040 -181 l 1040 -78 m 1242 -83 l 1201 -181 l 1169 -181 l 1129 -83 l 1164 -83 l 1188 -140 l 1211 -83 l 1242 -83 m 1325 -143 q 1325 -150 1325 -143 l 1272 -150 q 1288 -160 1278 -160 q 1303 -154 1294 -160 l 1319 -169 q 1286 -182 1310 -182 q 1242 -143 1244 -182 q 1283 -104 1242 -107 q 1313 -114 1301 -104 q 1325 -143 1325 -124 m 1283 -125 q 1272 -135 1275 -125 l 1296 -135 q 1283 -125 1293 -125 m 1369 -114 q 1394 -104 1378 -104 l 1394 -132 q 1388 -131 1392 -131 q 1371 -147 1371 -131 l 1371 -181 l 1340 -181 l 1340 -106 l 1369 -106 l 1369 -114 m 1439 -182 q 1404 -175 1418 -182 l 1413 -154 q 1439 -161 1424 -161 q 1449 -157 1449 -161 q 1438 -154 1449 -154 q 1415 -147 1424 -151 q 1406 -129 1406 -143 q 1415 -111 1406 -118 q 1444 -104 1425 -104 q 1475 -110 1464 -104 l 1465 -131 q 1444 -125 1456 -125 q 1435 -129 1435 -125 q 1446 -132 1435 -132 q 1469 -139 1460 -135 q 1478 -157 1478 -143 q 1467 -175 1478 -168 q 1439 -182 1457 -182 m 1508 -99 q 1489 -83 1492 -99 q 1508 -67 1489 -69 q 1526 -82 1525 -67 q 1508 -99 1526 -99 m 1493 -106 l 1524 -106 l 1524 -181 l 1493 -181 l 1493 -106 m 1583 -182 q 1551 -172 1564 -182 q 1539 -143 1539 -161 q 1583 -104 1539 -107 q 1615 -115 1603 -104 q 1626 -143 1626 -125 q 1583 -182 1626 -178 m 1583 -158 q 1596 -143 1596 -158 q 1583 -128 1596 -128 q 1571 -143 1571 -128 q 1583 -158 1571 -158 m 1694 -104 q 1725 -137 1725 -104 l 1725 -181 l 1694 -181 l 1694 -143 q 1685 -131 1694 -131 q 1674 -146 1674 -131 l 1674 -181 l 1643 -181 l 1643 -106 l 1672 -106 l 1672 -112 q 1694 -104 1681 -104 m 107 346 l 1781 346 l 1781 356 l 107 356 l 107 346 z "},"6":{"ha":1908,"x_min":107,"x_max":1781,"o":"m 203 782 q 138 809 164 782 q 113 875 113 836 q 139 941 113 914 q 204 968 165 968 q 269 942 243 968 q 294 875 294 915 q 268 809 294 836 q 203 782 242 782 m 203 806 q 251 826 232 806 q 271 875 271 846 q 252 925 271 906 q 204 944 233 944 q 156 924 175 944 q 136 875 136 904 q 156 826 136 846 q 203 806 175 806 m 207 824 q 167 838 183 824 q 151 875 151 853 q 167 913 151 897 q 207 928 183 928 q 254 897 243 928 l 221 881 q 207 890 217 890 q 194 875 194 890 q 207 860 194 860 q 221 869 217 860 l 254 853 q 207 824 243 824 m 488 832 l 488 783 l 321 783 l 321 821 l 403 919 l 324 919 l 324 967 l 483 967 l 483 929 l 400 832 l 488 832 m 667 831 l 667 783 l 517 783 l 517 967 l 664 967 l 664 921 l 576 921 l 576 899 l 653 899 l 653 854 l 576 854 l 576 831 l 667 831 m 853 831 l 853 783 l 703 783 l 703 967 l 849 967 l 849 921 l 763 921 l 763 899 l 839 899 l 839 854 l 763 854 l 763 831 l 853 831 m 1067 967 l 1067 783 l 1017 783 l 947 867 l 947 783 l 888 783 l 888 967 l 938 967 l 1007 883 l 1007 967 l 1067 967 m 1258 831 l 1258 783 l 1107 783 l 1107 967 l 1254 967 l 1254 921 l 1168 921 l 1168 899 l 1244 899 l 1244 854 l 1168 854 l 1168 831 l 1258 831 m 1361 779 q 1282 799 1310 779 l 1301 843 q 1361 826 1331 826 q 1385 836 1385 826 q 1378 844 1385 842 q 1354 851 1371 847 q 1303 869 1322 858 q 1285 910 1285 881 q 1307 953 1285 936 q 1369 971 1329 971 q 1438 956 1411 971 l 1419 910 q 1368 924 1393 924 q 1344 913 1344 924 q 1351 904 1344 907 q 1375 899 1358 901 q 1426 881 1407 892 q 1444 842 1444 869 q 1423 797 1444 814 q 1361 779 1401 779 m 1475 967 l 1536 967 l 1536 783 l 1475 783 l 1475 967 m 1700 815 l 1631 815 l 1619 783 l 1557 783 l 1636 967 l 1696 967 l 1775 783 l 1713 783 l 1700 815 m 1683 860 l 1665 906 l 1649 860 l 1683 860 m 363 664 l 335 664 l 335 689 l 422 689 l 422 664 l 394 664 l 394 592 l 363 592 l 363 664 m 532 689 l 532 592 l 500 592 l 500 628 l 469 628 l 469 592 l 438 592 l 438 689 l 469 689 l 469 656 l 500 656 l 500 689 l 532 689 m 554 689 l 586 689 l 586 592 l 554 592 l 554 689 m 643 590 q 601 600 618 590 l 613 624 q 643 615 625 615 q 656 621 656 615 q 640 628 656 625 q 613 637 624 631 q 603 658 603 643 q 615 682 603 672 q 647 692 626 692 q 683 683 669 692 l 674 660 q 647 667 660 667 q 635 661 635 667 q 651 653 635 657 q 678 643 668 649 q 688 622 688 638 q 676 599 688 608 q 643 590 665 590 m 783 665 l 783 649 l 824 649 l 824 624 l 783 624 l 783 592 l 751 592 l 751 689 l 829 689 l 829 665 l 783 665 m 894 590 q 856 604 871 590 q 840 640 840 618 q 856 677 840 663 q 894 692 871 692 q 933 677 918 692 q 949 640 949 663 q 933 604 949 618 q 894 590 918 590 m 894 617 q 910 623 904 617 q 917 640 917 629 q 894 665 917 664 q 880 658 886 665 q 874 640 874 651 q 894 617 874 617 m 1061 689 l 1061 592 l 1035 592 l 999 636 l 999 592 l 967 592 l 967 689 l 993 689 l 1029 646 l 1029 689 l 1061 689 m 1104 664 l 1076 664 l 1076 689 l 1164 689 l 1164 664 l 1136 664 l 1136 592 l 1104 592 l 1104 664 m 1258 665 l 1258 649 l 1299 649 l 1299 624 l 1258 624 l 1258 592 l 1226 592 l 1226 689 l 1304 689 l 1304 665 l 1258 665 m 1371 590 q 1332 604 1347 590 q 1317 640 1317 618 q 1332 677 1317 663 q 1371 692 1347 692 q 1410 677 1394 692 q 1425 640 1425 663 q 1410 604 1425 618 q 1371 590 1394 590 m 1371 617 q 1385 623 1379 617 q 1392 640 1392 629 q 1371 665 1392 664 q 1355 658 1361 665 q 1349 640 1349 651 q 1371 617 1349 617 m 1483 617 l 1475 617 l 1475 592 l 1442 592 l 1442 689 l 1489 689 q 1532 653 1528 689 q 1514 622 1532 631 l 1535 592 l 1500 592 l 1483 617 m 1500 653 q 1486 664 1500 664 l 1475 664 l 1475 642 l 1486 642 q 1500 653 1500 642 m 154 528 q 199 492 196 528 q 187 465 199 475 q 154 454 175 454 l 140 454 l 140 431 l 108 431 l 108 528 l 154 528 m 153 481 q 165 492 165 481 q 153 503 165 503 l 140 503 l 140 481 l 153 481 m 294 456 l 294 431 l 215 431 l 215 528 l 293 528 l 293 503 l 247 503 l 247 492 l 288 492 l 288 468 l 247 468 l 247 456 l 294 456 m 354 456 l 346 456 l 346 431 l 314 431 l 314 528 l 360 528 q 403 492 400 528 q 385 461 403 469 l 406 431 l 371 431 l 354 456 m 371 492 q 357 503 371 503 l 346 503 l 346 481 l 357 481 q 371 492 371 481 m 457 429 q 415 439 432 429 l 426 463 q 457 454 439 454 q 469 458 469 454 q 453 467 469 463 q 426 476 436 471 q 417 497 417 482 q 428 521 417 511 q 461 531 440 531 q 497 522 483 531 l 488 499 q 461 506 474 506 q 449 499 449 506 q 464 492 449 494 q 491 483 481 489 q 501 461 501 476 q 490 438 501 447 q 457 429 479 429 m 568 429 q 529 443 544 429 q 514 479 514 457 q 529 516 514 501 q 568 531 544 531 q 607 516 592 531 q 622 479 622 501 q 607 443 622 457 q 568 429 592 429 m 568 456 q 583 462 576 456 q 589 479 589 468 q 568 504 589 503 q 552 497 558 504 q 546 479 546 490 q 568 456 546 456 m 735 528 l 735 431 l 708 431 l 671 475 l 671 431 l 640 431 l 640 528 l 667 528 l 703 483 l 703 528 l 735 528 m 821 449 l 785 449 l 779 431 l 746 431 l 788 528 l 819 528 l 861 431 l 828 431 l 821 449 m 813 471 l 803 496 l 794 471 l 813 471 m 872 528 l 906 528 l 906 457 l 949 457 l 949 431 l 872 431 l 872 528 m 1057 429 q 1022 441 1035 429 q 1010 475 1010 453 l 1010 528 l 1043 528 l 1043 475 q 1057 456 1043 456 q 1072 475 1072 456 l 1072 528 l 1103 528 l 1103 475 q 1057 429 1103 431 m 1160 429 q 1118 439 1135 429 l 1129 463 q 1160 454 1142 454 q 1172 458 1172 454 q 1156 467 1172 463 q 1129 476 1139 471 q 1119 497 1119 482 q 1131 521 1119 511 q 1164 531 1143 531 q 1200 522 1186 531 l 1190 499 q 1164 506 1176 506 q 1151 499 1151 506 q 1167 492 1151 494 q 1194 483 1183 489 q 1204 461 1204 476 q 1193 438 1204 447 q 1160 429 1182 429 m 1300 456 l 1300 431 l 1221 431 l 1221 528 l 1299 528 l 1299 503 l 1253 503 l 1253 492 l 1293 492 l 1293 468 l 1253 468 l 1253 456 l 1300 456 m 1417 429 q 1378 443 1393 429 q 1363 479 1363 457 q 1378 516 1363 501 q 1417 531 1393 531 q 1456 516 1440 531 q 1471 479 1471 501 q 1456 443 1471 457 q 1417 429 1440 429 m 1417 456 q 1431 462 1425 456 q 1438 479 1438 468 q 1417 504 1438 503 q 1401 497 1407 504 q 1394 479 1394 490 q 1417 456 1394 456 m 1583 528 l 1583 431 l 1557 431 l 1519 475 l 1519 431 l 1489 431 l 1489 528 l 1515 528 l 1551 483 l 1551 528 l 1583 528 m 1604 528 l 1638 528 l 1638 457 l 1681 457 l 1681 431 l 1604 431 l 1604 528 m 1743 467 l 1743 431 l 1711 431 l 1711 467 l 1675 528 l 1708 528 l 1728 494 l 1747 528 l 1779 528 l 1743 467 m 276 189 l 257 218 q 253 217 256 217 l 232 217 l 232 189 l 214 189 l 214 286 l 253 286 q 294 251 294 286 q 274 221 294 231 l 296 189 l 276 189 m 276 251 q 253 271 276 271 l 232 271 l 232 232 l 253 232 q 276 251 276 232 m 388 225 q 388 221 388 225 l 329 221 q 353 203 333 203 q 374 211 365 203 l 382 200 q 353 188 374 188 q 313 226 315 188 q 350 264 313 260 q 377 253 367 264 q 388 225 388 243 m 350 250 q 329 232 332 250 l 371 232 q 350 250 368 250 m 436 264 q 469 232 469 264 l 469 189 l 453 189 l 453 199 q 429 188 446 188 q 403 210 404 188 q 433 232 403 232 l 451 232 l 451 233 q 433 250 451 250 q 411 242 419 250 l 404 254 q 436 264 415 264 m 433 200 q 451 213 447 200 l 451 221 l 433 221 q 419 211 419 221 q 433 200 419 200 m 532 188 q 503 199 514 188 q 492 226 492 210 q 532 264 492 260 q 563 247 554 264 l 550 239 q 531 249 542 249 q 515 242 521 249 q 508 226 508 236 q 531 203 508 203 q 550 213 542 203 l 563 206 q 532 188 553 188 m 624 264 q 654 232 654 264 l 654 189 l 638 189 l 638 229 q 619 249 638 249 q 600 226 600 249 l 600 189 l 582 189 l 582 292 l 600 292 l 600 254 q 624 264 608 264 m 818 264 q 849 232 849 264 l 849 189 l 832 189 l 832 229 q 815 249 832 249 q 796 226 796 249 l 796 189 l 779 189 l 779 229 q 763 249 779 249 q 743 226 743 249 l 743 189 l 726 189 l 726 263 l 743 263 l 743 254 q 767 264 753 264 q 792 251 783 264 q 818 264 800 264 m 946 225 q 946 221 946 225 l 889 221 q 913 203 892 203 q 932 211 924 203 l 942 200 q 913 188 931 188 q 872 226 875 188 q 910 264 872 260 q 935 253 925 264 q 946 225 946 243 m 910 250 q 889 232 892 250 l 931 232 q 910 250 928 250 m 1053 264 q 1090 226 1086 264 q 1053 188 1090 192 q 1029 199 1038 188 l 1029 189 l 1013 189 l 1013 292 l 1029 292 l 1029 254 q 1053 264 1039 264 m 1051 203 q 1074 226 1069 203 q 1051 249 1074 247 q 1035 242 1042 249 q 1029 226 1029 236 q 1051 203 1029 206 m 1179 263 l 1144 183 q 1117 161 1135 161 q 1097 168 1104 161 l 1104 181 q 1117 175 1110 175 q 1129 186 1125 175 l 1131 189 l 1099 263 l 1117 263 l 1139 208 l 1163 263 l 1179 263 m 1308 225 q 1308 221 1308 225 l 1251 221 q 1275 203 1254 203 q 1294 211 1286 203 l 1304 200 q 1274 188 1294 188 q 1244 199 1256 188 q 1233 226 1233 210 q 1272 264 1233 260 q 1298 253 1288 264 q 1308 225 1308 243 m 1272 250 q 1251 232 1254 250 l 1292 232 q 1272 250 1289 250 m 1424 264 q 1453 232 1453 264 l 1453 189 l 1436 189 l 1436 229 q 1419 249 1436 249 q 1401 226 1401 249 l 1401 189 l 1383 189 l 1383 229 q 1367 249 1383 249 q 1349 226 1349 249 l 1349 189 l 1331 189 l 1331 263 l 1347 263 l 1347 254 q 1371 264 1357 264 q 1396 251 1388 264 q 1424 264 1404 264 m 1510 264 q 1543 232 1543 264 l 1543 189 l 1526 189 l 1526 199 q 1503 188 1519 188 q 1476 210 1478 188 q 1507 232 1476 232 l 1525 232 l 1525 233 q 1507 250 1525 250 q 1485 242 1493 250 l 1478 254 q 1510 264 1489 264 m 1507 200 q 1525 213 1521 200 l 1525 221 l 1508 221 q 1493 211 1493 221 q 1507 200 1493 200 m 1579 275 q 1568 286 1568 275 q 1579 296 1568 294 q 1590 286 1590 296 q 1579 275 1590 275 m 1571 263 l 1588 263 l 1588 189 l 1571 189 l 1571 263 m 1617 292 l 1633 292 l 1633 189 l 1617 189 l 1617 292 m 183 26 l 183 4 l 111 4 l 111 22 l 142 57 l 113 57 l 113 81 l 181 81 l 181 63 l 150 26 l 183 26 m 276 42 q 276 35 276 42 l 225 35 q 240 26 228 26 q 256 32 249 26 l 271 15 q 239 3 261 3 q 193 42 197 3 q 205 71 193 60 q 236 82 217 82 q 265 72 254 82 q 276 42 276 61 m 236 60 q 224 50 226 60 l 249 50 q 236 60 246 60 m 372 42 q 372 35 372 42 l 321 35 q 335 26 322 26 q 351 32 344 26 l 367 15 q 335 3 356 3 q 289 42 293 3 q 301 71 289 60 q 332 82 313 82 q 361 72 350 82 q 372 42 372 61 m 332 60 q 319 50 322 60 l 343 50 q 332 60 343 58 m 440 82 q 471 47 471 82 l 471 4 l 440 4 l 440 42 q 431 56 440 56 q 419 40 419 56 l 419 4 l 389 4 l 389 81 l 418 81 l 418 72 q 440 82 428 82 m 531 82 q 560 72 549 82 q 572 42 572 61 q 572 39 572 42 q 571 35 571 36 l 519 35 q 535 26 522 26 q 550 32 543 26 l 567 15 q 533 3 554 3 q 488 42 492 3 q 499 71 488 60 q 531 82 511 82 m 531 60 q 518 50 521 60 l 543 50 q 531 60 540 60 m 617 3 q 583 10 594 3 l 592 31 q 618 24 603 24 q 626 28 626 24 q 615 31 626 31 q 592 38 601 33 q 583 56 583 42 q 594 74 583 67 q 622 82 604 82 q 653 75 639 82 l 644 54 q 622 60 633 60 q 613 57 613 60 q 624 53 613 54 q 647 45 639 50 q 656 28 656 40 q 646 10 656 17 q 617 3 636 3 m 686 86 q 668 101 669 86 q 686 118 668 118 q 706 103 703 118 q 686 86 706 89 m 671 81 l 701 81 l 701 4 l 671 4 l 671 81 m 756 82 q 796 44 796 82 l 796 4 l 767 4 l 767 14 q 746 3 763 3 q 718 26 718 3 q 753 49 718 49 l 765 49 q 750 58 764 58 q 732 51 739 58 l 722 72 q 756 82 736 82 m 756 21 q 765 29 764 21 l 765 33 l 757 33 q 747 28 747 33 q 756 21 747 21 m 881 103 q 928 85 910 103 q 947 43 947 68 q 938 13 947 24 q 914 3 928 3 q 893 15 900 3 q 872 3 886 3 q 851 12 860 3 q 843 38 843 21 q 872 72 843 69 q 889 65 882 72 l 889 71 l 915 71 l 915 31 q 921 24 915 24 q 928 43 928 24 q 915 74 928 63 q 881 86 901 86 q 847 72 860 86 q 833 39 833 58 q 847 6 833 19 q 881 -7 860 -7 q 908 -1 896 -7 l 914 -18 q 881 -25 900 -25 q 831 -7 850 -25 q 813 39 813 11 q 831 85 813 67 q 881 103 850 103 m 879 25 q 889 38 889 25 q 879 50 889 50 q 869 38 869 50 q 879 25 869 25 m 1047 81 l 1047 19 q 1001 -24 1047 -24 q 964 -15 979 -24 l 975 7 q 999 -1 983 -1 q 1017 15 1017 -1 l 1017 17 q 996 8 1008 8 q 970 18 981 8 q 960 44 960 28 q 996 82 960 78 q 1018 71 1010 82 l 1018 81 l 1047 81 m 1004 32 q 1017 44 1014 32 q 1004 57 1017 57 q 990 44 990 57 q 1004 32 990 33 m 1167 82 q 1196 47 1196 82 l 1196 4 l 1165 4 l 1165 42 q 1157 56 1165 56 q 1147 42 1147 56 l 1147 4 l 1117 4 l 1117 42 q 1108 56 1117 56 q 1099 42 1099 56 l 1099 4 l 1067 4 l 1067 81 l 1096 81 l 1096 72 q 1118 82 1106 82 q 1142 69 1133 82 q 1167 82 1150 82 m 1249 82 q 1289 44 1289 82 l 1289 4 l 1261 4 l 1261 14 q 1240 3 1254 3 q 1213 26 1213 3 q 1246 49 1213 49 l 1258 49 q 1244 58 1257 58 q 1225 51 1235 58 l 1215 72 q 1249 82 1231 82 m 1249 21 q 1258 29 1256 21 l 1258 33 l 1251 33 q 1242 28 1242 33 q 1249 21 1242 21 m 1325 86 q 1306 101 1308 86 q 1325 118 1306 117 q 1343 103 1342 118 q 1325 86 1343 86 m 1310 81 l 1340 81 l 1340 4 l 1310 4 l 1310 81 m 1360 107 l 1390 107 l 1390 4 l 1360 4 l 1360 107 m 1425 3 q 1407 21 1407 3 q 1425 39 1407 39 q 1438 34 1432 39 q 1443 21 1443 29 q 1425 3 1443 4 m 1499 3 q 1467 14 1479 3 q 1454 42 1454 25 q 1467 71 1454 60 q 1499 82 1479 82 q 1536 58 1526 82 l 1513 47 q 1499 57 1507 57 q 1486 42 1486 57 q 1499 26 1486 26 q 1513 38 1506 26 l 1536 25 q 1499 3 1528 3 m 1588 3 q 1557 14 1569 3 q 1544 42 1544 25 q 1556 71 1544 60 q 1588 82 1568 82 q 1619 71 1607 82 q 1632 42 1632 60 q 1619 14 1632 25 q 1588 3 1607 3 m 1588 26 q 1600 42 1600 26 q 1588 57 1600 57 q 1576 42 1576 57 q 1588 26 1576 26 m 1746 82 q 1776 47 1776 82 l 1776 4 l 1746 4 l 1746 42 q 1738 56 1746 56 q 1728 42 1728 56 l 1728 4 l 1696 4 l 1696 42 q 1688 56 1696 56 q 1678 42 1678 56 l 1678 4 l 1647 4 l 1647 81 l 1676 81 l 1676 72 q 1699 82 1685 82 q 1721 69 1714 82 q 1746 82 1731 82 m 204 -108 l 204 -125 l 244 -125 l 244 -150 l 204 -150 l 204 -181 l 172 -181 l 172 -83 l 250 -83 l 250 -108 l 204 -108 m 304 -182 q 273 -172 285 -182 q 261 -143 261 -161 q 304 -104 261 -107 q 335 -115 324 -104 q 347 -143 347 -125 q 304 -182 347 -178 m 304 -158 q 317 -143 317 -158 q 304 -128 317 -128 q 292 -143 292 -128 q 304 -158 292 -158 m 393 -114 q 417 -104 401 -104 l 417 -132 q 410 -131 414 -131 q 394 -147 394 -131 l 394 -181 l 364 -181 l 364 -106 l 393 -106 l 393 -114 m 563 -106 l 563 -165 q 518 -210 563 -210 q 481 -200 494 -210 l 490 -178 q 514 -186 499 -186 q 532 -169 532 -186 l 532 -168 q 511 -176 525 -176 q 485 -167 496 -176 q 475 -140 475 -157 q 485 -114 475 -124 q 511 -104 496 -104 q 533 -114 528 -104 l 533 -106 l 563 -106 m 519 -153 q 532 -140 531 -153 q 519 -128 532 -131 q 507 -140 508 -128 q 519 -153 507 -150 m 663 -143 q 663 -150 663 -143 l 610 -150 q 625 -160 614 -160 q 640 -154 632 -160 l 657 -169 q 624 -182 646 -182 q 592 -171 604 -182 q 579 -143 579 -160 q 621 -104 579 -107 q 651 -114 639 -104 q 663 -143 663 -124 m 622 -125 q 610 -135 613 -125 l 633 -135 q 622 -125 631 -125 m 733 -178 q 714 -182 728 -182 q 682 -151 682 -182 l 682 -132 l 671 -132 l 671 -110 l 682 -110 l 682 -87 l 713 -87 l 713 -110 l 728 -110 l 728 -132 l 713 -132 l 713 -151 q 719 -158 713 -158 q 726 -157 724 -158 l 733 -178 m 828 -108 l 828 -125 l 868 -125 l 868 -150 l 828 -150 l 828 -181 l 796 -181 l 796 -83 l 874 -83 l 874 -108 l 828 -108 m 969 -106 l 969 -181 l 940 -181 l 940 -174 q 919 -182 932 -182 q 888 -147 888 -182 l 888 -106 l 919 -106 l 919 -142 q 929 -156 919 -156 q 939 -140 939 -156 l 939 -106 l 969 -106 m 990 -78 l 1021 -78 l 1021 -181 l 990 -181 l 990 -78 m 1040 -78 l 1072 -78 l 1072 -181 l 1040 -181 l 1040 -78 m 1242 -83 l 1201 -181 l 1169 -181 l 1129 -83 l 1164 -83 l 1188 -140 l 1211 -83 l 1242 -83 m 1325 -143 q 1325 -150 1325 -143 l 1272 -150 q 1288 -160 1278 -160 q 1303 -154 1294 -160 l 1319 -169 q 1286 -182 1310 -182 q 1242 -143 1244 -182 q 1283 -104 1242 -107 q 1313 -114 1301 -104 q 1325 -143 1325 -124 m 1283 -125 q 1272 -135 1275 -125 l 1296 -135 q 1283 -125 1293 -125 m 1369 -114 q 1394 -104 1378 -104 l 1394 -132 q 1388 -131 1392 -131 q 1371 -147 1371 -131 l 1371 -181 l 1340 -181 l 1340 -106 l 1369 -106 l 1369 -114 m 1439 -182 q 1404 -175 1418 -182 l 1413 -154 q 1439 -161 1424 -161 q 1449 -157 1449 -161 q 1438 -154 1449 -154 q 1415 -147 1424 -151 q 1406 -129 1406 -143 q 1415 -111 1406 -118 q 1444 -104 1425 -104 q 1475 -110 1464 -104 l 1465 -131 q 1444 -125 1456 -125 q 1435 -129 1435 -125 q 1446 -132 1435 -132 q 1469 -139 1460 -135 q 1478 -157 1478 -143 q 1467 -175 1478 -168 q 1439 -182 1457 -182 m 1508 -99 q 1489 -83 1492 -99 q 1508 -67 1489 -69 q 1526 -82 1525 -67 q 1508 -99 1526 -99 m 1493 -106 l 1524 -106 l 1524 -181 l 1493 -181 l 1493 -106 m 1583 -182 q 1551 -172 1564 -182 q 1539 -143 1539 -161 q 1583 -104 1539 -107 q 1615 -115 1603 -104 q 1626 -143 1626 -125 q 1583 -182 1626 -178 m 1583 -158 q 1596 -143 1596 -158 q 1583 -128 1596 -128 q 1571 -143 1571 -128 q 1583 -158 1571 -158 m 1694 -104 q 1725 -137 1725 -104 l 1725 -181 l 1694 -181 l 1694 -143 q 1685 -131 1694 -131 q 1674 -146 1674 -131 l 1674 -181 l 1643 -181 l 1643 -106 l 1672 -106 l 1672 -112 q 1694 -104 1681 -104 m 107 346 l 1781 346 l 1781 356 l 107 356 l 107 346 z "},"7":{"ha":1908,"x_min":107,"x_max":1781,"o":"m 203 782 q 138 809 164 782 q 113 875 113 836 q 139 941 113 914 q 204 968 165 968 q 269 942 243 968 q 294 875 294 915 q 268 809 294 836 q 203 782 242 782 m 203 806 q 251 826 232 806 q 271 875 271 846 q 252 925 271 906 q 204 944 233 944 q 156 924 175 944 q 136 875 136 904 q 156 826 136 846 q 203 806 175 806 m 207 824 q 167 838 183 824 q 151 875 151 853 q 167 913 151 897 q 207 928 183 928 q 254 897 243 928 l 221 881 q 207 890 217 890 q 194 875 194 890 q 207 860 194 860 q 221 869 217 860 l 254 853 q 207 824 243 824 m 488 832 l 488 783 l 321 783 l 321 821 l 403 919 l 324 919 l 324 967 l 483 967 l 483 929 l 400 832 l 488 832 m 667 831 l 667 783 l 517 783 l 517 967 l 664 967 l 664 921 l 576 921 l 576 899 l 653 899 l 653 854 l 576 854 l 576 831 l 667 831 m 853 831 l 853 783 l 703 783 l 703 967 l 849 967 l 849 921 l 763 921 l 763 899 l 839 899 l 839 854 l 763 854 l 763 831 l 853 831 m 1067 967 l 1067 783 l 1017 783 l 947 867 l 947 783 l 888 783 l 888 967 l 938 967 l 1007 883 l 1007 967 l 1067 967 m 1258 831 l 1258 783 l 1107 783 l 1107 967 l 1254 967 l 1254 921 l 1168 921 l 1168 899 l 1244 899 l 1244 854 l 1168 854 l 1168 831 l 1258 831 m 1361 779 q 1282 799 1310 779 l 1301 843 q 1361 826 1331 826 q 1385 836 1385 826 q 1378 844 1385 842 q 1354 851 1371 847 q 1303 869 1322 858 q 1285 910 1285 881 q 1307 953 1285 936 q 1369 971 1329 971 q 1438 956 1411 971 l 1419 910 q 1368 924 1393 924 q 1344 913 1344 924 q 1351 904 1344 907 q 1375 899 1358 901 q 1426 881 1407 892 q 1444 842 1444 869 q 1423 797 1444 814 q 1361 779 1401 779 m 1475 967 l 1536 967 l 1536 783 l 1475 783 l 1475 967 m 1700 815 l 1631 815 l 1619 783 l 1557 783 l 1636 967 l 1696 967 l 1775 783 l 1713 783 l 1700 815 m 1683 860 l 1665 906 l 1649 860 l 1683 860 m 363 664 l 335 664 l 335 689 l 422 689 l 422 664 l 394 664 l 394 592 l 363 592 l 363 664 m 532 689 l 532 592 l 500 592 l 500 628 l 469 628 l 469 592 l 438 592 l 438 689 l 469 689 l 469 656 l 500 656 l 500 689 l 532 689 m 554 689 l 586 689 l 586 592 l 554 592 l 554 689 m 643 590 q 601 600 618 590 l 613 624 q 643 615 625 615 q 656 621 656 615 q 640 628 656 625 q 613 637 624 631 q 603 658 603 643 q 615 682 603 672 q 647 692 626 692 q 683 683 669 692 l 674 660 q 647 667 660 667 q 635 661 635 667 q 651 653 635 657 q 678 643 668 649 q 688 622 688 638 q 676 599 688 608 q 643 590 665 590 m 783 665 l 783 649 l 824 649 l 824 624 l 783 624 l 783 592 l 751 592 l 751 689 l 829 689 l 829 665 l 783 665 m 894 590 q 856 604 871 590 q 840 640 840 618 q 856 677 840 663 q 894 692 871 692 q 933 677 918 692 q 949 640 949 663 q 933 604 949 618 q 894 590 918 590 m 894 617 q 910 623 904 617 q 917 640 917 629 q 894 665 917 664 q 880 658 886 665 q 874 640 874 651 q 894 617 874 617 m 1061 689 l 1061 592 l 1035 592 l 999 636 l 999 592 l 967 592 l 967 689 l 993 689 l 1029 646 l 1029 689 l 1061 689 m 1104 664 l 1076 664 l 1076 689 l 1164 689 l 1164 664 l 1136 664 l 1136 592 l 1104 592 l 1104 664 m 1258 665 l 1258 649 l 1299 649 l 1299 624 l 1258 624 l 1258 592 l 1226 592 l 1226 689 l 1304 689 l 1304 665 l 1258 665 m 1371 590 q 1332 604 1347 590 q 1317 640 1317 618 q 1332 677 1317 663 q 1371 692 1347 692 q 1410 677 1394 692 q 1425 640 1425 663 q 1410 604 1425 618 q 1371 590 1394 590 m 1371 617 q 1385 623 1379 617 q 1392 640 1392 629 q 1371 665 1392 664 q 1355 658 1361 665 q 1349 640 1349 651 q 1371 617 1349 617 m 1483 617 l 1475 617 l 1475 592 l 1442 592 l 1442 689 l 1489 689 q 1532 653 1528 689 q 1514 622 1532 631 l 1535 592 l 1500 592 l 1483 617 m 1500 653 q 1486 664 1500 664 l 1475 664 l 1475 642 l 1486 642 q 1500 653 1500 642 m 154 528 q 199 492 196 528 q 187 465 199 475 q 154 454 175 454 l 140 454 l 140 431 l 108 431 l 108 528 l 154 528 m 153 481 q 165 492 165 481 q 153 503 165 503 l 140 503 l 140 481 l 153 481 m 294 456 l 294 431 l 215 431 l 215 528 l 293 528 l 293 503 l 247 503 l 247 492 l 288 492 l 288 468 l 247 468 l 247 456 l 294 456 m 354 456 l 346 456 l 346 431 l 314 431 l 314 528 l 360 528 q 403 492 400 528 q 385 461 403 469 l 406 431 l 371 431 l 354 456 m 371 492 q 357 503 371 503 l 346 503 l 346 481 l 357 481 q 371 492 371 481 m 457 429 q 415 439 432 429 l 426 463 q 457 454 439 454 q 469 458 469 454 q 453 467 469 463 q 426 476 436 471 q 417 497 417 482 q 428 521 417 511 q 461 531 440 531 q 497 522 483 531 l 488 499 q 461 506 474 506 q 449 499 449 506 q 464 492 449 494 q 491 483 481 489 q 501 461 501 476 q 490 438 501 447 q 457 429 479 429 m 568 429 q 529 443 544 429 q 514 479 514 457 q 529 516 514 501 q 568 531 544 531 q 607 516 592 531 q 622 479 622 501 q 607 443 622 457 q 568 429 592 429 m 568 456 q 583 462 576 456 q 589 479 589 468 q 568 504 589 503 q 552 497 558 504 q 546 479 546 490 q 568 456 546 456 m 735 528 l 735 431 l 708 431 l 671 475 l 671 431 l 640 431 l 640 528 l 667 528 l 703 483 l 703 528 l 735 528 m 821 449 l 785 449 l 779 431 l 746 431 l 788 528 l 819 528 l 861 431 l 828 431 l 821 449 m 813 471 l 803 496 l 794 471 l 813 471 m 872 528 l 906 528 l 906 457 l 949 457 l 949 431 l 872 431 l 872 528 m 1057 429 q 1022 441 1035 429 q 1010 475 1010 453 l 1010 528 l 1043 528 l 1043 475 q 1057 456 1043 456 q 1072 475 1072 456 l 1072 528 l 1103 528 l 1103 475 q 1057 429 1103 431 m 1160 429 q 1118 439 1135 429 l 1129 463 q 1160 454 1142 454 q 1172 458 1172 454 q 1156 467 1172 463 q 1129 476 1139 471 q 1119 497 1119 482 q 1131 521 1119 511 q 1164 531 1143 531 q 1200 522 1186 531 l 1190 499 q 1164 506 1176 506 q 1151 499 1151 506 q 1167 492 1151 494 q 1194 483 1183 489 q 1204 461 1204 476 q 1193 438 1204 447 q 1160 429 1182 429 m 1300 456 l 1300 431 l 1221 431 l 1221 528 l 1299 528 l 1299 503 l 1253 503 l 1253 492 l 1293 492 l 1293 468 l 1253 468 l 1253 456 l 1300 456 m 1417 429 q 1378 443 1393 429 q 1363 479 1363 457 q 1378 516 1363 501 q 1417 531 1393 531 q 1456 516 1440 531 q 1471 479 1471 501 q 1456 443 1471 457 q 1417 429 1440 429 m 1417 456 q 1431 462 1425 456 q 1438 479 1438 468 q 1417 504 1438 503 q 1401 497 1407 504 q 1394 479 1394 490 q 1417 456 1394 456 m 1583 528 l 1583 431 l 1557 431 l 1519 475 l 1519 431 l 1489 431 l 1489 528 l 1515 528 l 1551 483 l 1551 528 l 1583 528 m 1604 528 l 1638 528 l 1638 457 l 1681 457 l 1681 431 l 1604 431 l 1604 528 m 1743 467 l 1743 431 l 1711 431 l 1711 467 l 1675 528 l 1708 528 l 1728 494 l 1747 528 l 1779 528 l 1743 467 m 276 189 l 257 218 q 253 217 256 217 l 232 217 l 232 189 l 214 189 l 214 286 l 253 286 q 294 251 294 286 q 274 221 294 231 l 296 189 l 276 189 m 276 251 q 253 271 276 271 l 232 271 l 232 232 l 253 232 q 276 251 276 232 m 388 225 q 388 221 388 225 l 329 221 q 353 203 333 203 q 374 211 365 203 l 382 200 q 353 188 374 188 q 313 226 315 188 q 350 264 313 260 q 377 253 367 264 q 388 225 388 243 m 350 250 q 329 232 332 250 l 371 232 q 350 250 368 250 m 436 264 q 469 232 469 264 l 469 189 l 453 189 l 453 199 q 429 188 446 188 q 403 210 404 188 q 433 232 403 232 l 451 232 l 451 233 q 433 250 451 250 q 411 242 419 250 l 404 254 q 436 264 415 264 m 433 200 q 451 213 447 200 l 451 221 l 433 221 q 419 211 419 221 q 433 200 419 200 m 532 188 q 503 199 514 188 q 492 226 492 210 q 532 264 492 260 q 563 247 554 264 l 550 239 q 531 249 542 249 q 515 242 521 249 q 508 226 508 236 q 531 203 508 203 q 550 213 542 203 l 563 206 q 532 188 553 188 m 624 264 q 654 232 654 264 l 654 189 l 638 189 l 638 229 q 619 249 638 249 q 600 226 600 249 l 600 189 l 582 189 l 582 292 l 600 292 l 600 254 q 624 264 608 264 m 818 264 q 849 232 849 264 l 849 189 l 832 189 l 832 229 q 815 249 832 249 q 796 226 796 249 l 796 189 l 779 189 l 779 229 q 763 249 779 249 q 743 226 743 249 l 743 189 l 726 189 l 726 263 l 743 263 l 743 254 q 767 264 753 264 q 792 251 783 264 q 818 264 800 264 m 946 225 q 946 221 946 225 l 889 221 q 913 203 892 203 q 932 211 924 203 l 942 200 q 913 188 931 188 q 872 226 875 188 q 910 264 872 260 q 935 253 925 264 q 946 225 946 243 m 910 250 q 889 232 892 250 l 931 232 q 910 250 928 250 m 1053 264 q 1090 226 1086 264 q 1053 188 1090 192 q 1029 199 1038 188 l 1029 189 l 1013 189 l 1013 292 l 1029 292 l 1029 254 q 1053 264 1039 264 m 1051 203 q 1074 226 1069 203 q 1051 249 1074 247 q 1035 242 1042 249 q 1029 226 1029 236 q 1051 203 1029 206 m 1179 263 l 1144 183 q 1117 161 1135 161 q 1097 168 1104 161 l 1104 181 q 1117 175 1110 175 q 1129 186 1125 175 l 1131 189 l 1099 263 l 1117 263 l 1139 208 l 1163 263 l 1179 263 m 1308 225 q 1308 221 1308 225 l 1251 221 q 1275 203 1254 203 q 1294 211 1286 203 l 1304 200 q 1274 188 1294 188 q 1244 199 1256 188 q 1233 226 1233 210 q 1272 264 1233 260 q 1298 253 1288 264 q 1308 225 1308 243 m 1272 250 q 1251 232 1254 250 l 1292 232 q 1272 250 1289 250 m 1424 264 q 1453 232 1453 264 l 1453 189 l 1436 189 l 1436 229 q 1419 249 1436 249 q 1401 226 1401 249 l 1401 189 l 1383 189 l 1383 229 q 1367 249 1383 249 q 1349 226 1349 249 l 1349 189 l 1331 189 l 1331 263 l 1347 263 l 1347 254 q 1371 264 1357 264 q 1396 251 1388 264 q 1424 264 1404 264 m 1510 264 q 1543 232 1543 264 l 1543 189 l 1526 189 l 1526 199 q 1503 188 1519 188 q 1476 210 1478 188 q 1507 232 1476 232 l 1525 232 l 1525 233 q 1507 250 1525 250 q 1485 242 1493 250 l 1478 254 q 1510 264 1489 264 m 1507 200 q 1525 213 1521 200 l 1525 221 l 1508 221 q 1493 211 1493 221 q 1507 200 1493 200 m 1579 275 q 1568 286 1568 275 q 1579 296 1568 294 q 1590 286 1590 296 q 1579 275 1590 275 m 1571 263 l 1588 263 l 1588 189 l 1571 189 l 1571 263 m 1617 292 l 1633 292 l 1633 189 l 1617 189 l 1617 292 m 183 26 l 183 4 l 111 4 l 111 22 l 142 57 l 113 57 l 113 81 l 181 81 l 181 63 l 150 26 l 183 26 m 276 42 q 276 35 276 42 l 225 35 q 240 26 228 26 q 256 32 249 26 l 271 15 q 239 3 261 3 q 193 42 197 3 q 205 71 193 60 q 236 82 217 82 q 265 72 254 82 q 276 42 276 61 m 236 60 q 224 50 226 60 l 249 50 q 236 60 246 60 m 372 42 q 372 35 372 42 l 321 35 q 335 26 322 26 q 351 32 344 26 l 367 15 q 335 3 356 3 q 289 42 293 3 q 301 71 289 60 q 332 82 313 82 q 361 72 350 82 q 372 42 372 61 m 332 60 q 319 50 322 60 l 343 50 q 332 60 343 58 m 440 82 q 471 47 471 82 l 471 4 l 440 4 l 440 42 q 431 56 440 56 q 419 40 419 56 l 419 4 l 389 4 l 389 81 l 418 81 l 418 72 q 440 82 428 82 m 531 82 q 560 72 549 82 q 572 42 572 61 q 572 39 572 42 q 571 35 571 36 l 519 35 q 535 26 522 26 q 550 32 543 26 l 567 15 q 533 3 554 3 q 488 42 492 3 q 499 71 488 60 q 531 82 511 82 m 531 60 q 518 50 521 60 l 543 50 q 531 60 540 60 m 617 3 q 583 10 594 3 l 592 31 q 618 24 603 24 q 626 28 626 24 q 615 31 626 31 q 592 38 601 33 q 583 56 583 42 q 594 74 583 67 q 622 82 604 82 q 653 75 639 82 l 644 54 q 622 60 633 60 q 613 57 613 60 q 624 53 613 54 q 647 45 639 50 q 656 28 656 40 q 646 10 656 17 q 617 3 636 3 m 686 86 q 668 101 669 86 q 686 118 668 118 q 706 103 703 118 q 686 86 706 89 m 671 81 l 701 81 l 701 4 l 671 4 l 671 81 m 756 82 q 796 44 796 82 l 796 4 l 767 4 l 767 14 q 746 3 763 3 q 718 26 718 3 q 753 49 718 49 l 765 49 q 750 58 764 58 q 732 51 739 58 l 722 72 q 756 82 736 82 m 756 21 q 765 29 764 21 l 765 33 l 757 33 q 747 28 747 33 q 756 21 747 21 m 881 103 q 928 85 910 103 q 947 43 947 68 q 938 13 947 24 q 914 3 928 3 q 893 15 900 3 q 872 3 886 3 q 851 12 860 3 q 843 38 843 21 q 872 72 843 69 q 889 65 882 72 l 889 71 l 915 71 l 915 31 q 921 24 915 24 q 928 43 928 24 q 915 74 928 63 q 881 86 901 86 q 847 72 860 86 q 833 39 833 58 q 847 6 833 19 q 881 -7 860 -7 q 908 -1 896 -7 l 914 -18 q 881 -25 900 -25 q 831 -7 850 -25 q 813 39 813 11 q 831 85 813 67 q 881 103 850 103 m 879 25 q 889 38 889 25 q 879 50 889 50 q 869 38 869 50 q 879 25 869 25 m 1047 81 l 1047 19 q 1001 -24 1047 -24 q 964 -15 979 -24 l 975 7 q 999 -1 983 -1 q 1017 15 1017 -1 l 1017 17 q 996 8 1008 8 q 970 18 981 8 q 960 44 960 28 q 996 82 960 78 q 1018 71 1010 82 l 1018 81 l 1047 81 m 1004 32 q 1017 44 1014 32 q 1004 57 1017 57 q 990 44 990 57 q 1004 32 990 33 m 1167 82 q 1196 47 1196 82 l 1196 4 l 1165 4 l 1165 42 q 1157 56 1165 56 q 1147 42 1147 56 l 1147 4 l 1117 4 l 1117 42 q 1108 56 1117 56 q 1099 42 1099 56 l 1099 4 l 1067 4 l 1067 81 l 1096 81 l 1096 72 q 1118 82 1106 82 q 1142 69 1133 82 q 1167 82 1150 82 m 1249 82 q 1289 44 1289 82 l 1289 4 l 1261 4 l 1261 14 q 1240 3 1254 3 q 1213 26 1213 3 q 1246 49 1213 49 l 1258 49 q 1244 58 1257 58 q 1225 51 1235 58 l 1215 72 q 1249 82 1231 82 m 1249 21 q 1258 29 1256 21 l 1258 33 l 1251 33 q 1242 28 1242 33 q 1249 21 1242 21 m 1325 86 q 1306 101 1308 86 q 1325 118 1306 117 q 1343 103 1342 118 q 1325 86 1343 86 m 1310 81 l 1340 81 l 1340 4 l 1310 4 l 1310 81 m 1360 107 l 1390 107 l 1390 4 l 1360 4 l 1360 107 m 1425 3 q 1407 21 1407 3 q 1425 39 1407 39 q 1438 34 1432 39 q 1443 21 1443 29 q 1425 3 1443 4 m 1499 3 q 1467 14 1479 3 q 1454 42 1454 25 q 1467 71 1454 60 q 1499 82 1479 82 q 1536 58 1526 82 l 1513 47 q 1499 57 1507 57 q 1486 42 1486 57 q 1499 26 1486 26 q 1513 38 1506 26 l 1536 25 q 1499 3 1528 3 m 1588 3 q 1557 14 1569 3 q 1544 42 1544 25 q 1556 71 1544 60 q 1588 82 1568 82 q 1619 71 1607 82 q 1632 42 1632 60 q 1619 14 1632 25 q 1588 3 1607 3 m 1588 26 q 1600 42 1600 26 q 1588 57 1600 57 q 1576 42 1576 57 q 1588 26 1576 26 m 1746 82 q 1776 47 1776 82 l 1776 4 l 1746 4 l 1746 42 q 1738 56 1746 56 q 1728 42 1728 56 l 1728 4 l 1696 4 l 1696 42 q 1688 56 1696 56 q 1678 42 1678 56 l 1678 4 l 1647 4 l 1647 81 l 1676 81 l 1676 72 q 1699 82 1685 82 q 1721 69 1714 82 q 1746 82 1731 82 m 204 -108 l 204 -125 l 244 -125 l 244 -150 l 204 -150 l 204 -181 l 172 -181 l 172 -83 l 250 -83 l 250 -108 l 204 -108 m 304 -182 q 273 -172 285 -182 q 261 -143 261 -161 q 304 -104 261 -107 q 335 -115 324 -104 q 347 -143 347 -125 q 304 -182 347 -178 m 304 -158 q 317 -143 317 -158 q 304 -128 317 -128 q 292 -143 292 -128 q 304 -158 292 -158 m 393 -114 q 417 -104 401 -104 l 417 -132 q 410 -131 414 -131 q 394 -147 394 -131 l 394 -181 l 364 -181 l 364 -106 l 393 -106 l 393 -114 m 563 -106 l 563 -165 q 518 -210 563 -210 q 481 -200 494 -210 l 490 -178 q 514 -186 499 -186 q 532 -169 532 -186 l 532 -168 q 511 -176 525 -176 q 485 -167 496 -176 q 475 -140 475 -157 q 485 -114 475 -124 q 511 -104 496 -104 q 533 -114 528 -104 l 533 -106 l 563 -106 m 519 -153 q 532 -140 531 -153 q 519 -128 532 -131 q 507 -140 508 -128 q 519 -153 507 -150 m 663 -143 q 663 -150 663 -143 l 610 -150 q 625 -160 614 -160 q 640 -154 632 -160 l 657 -169 q 624 -182 646 -182 q 592 -171 604 -182 q 579 -143 579 -160 q 621 -104 579 -107 q 651 -114 639 -104 q 663 -143 663 -124 m 622 -125 q 610 -135 613 -125 l 633 -135 q 622 -125 631 -125 m 733 -178 q 714 -182 728 -182 q 682 -151 682 -182 l 682 -132 l 671 -132 l 671 -110 l 682 -110 l 682 -87 l 713 -87 l 713 -110 l 728 -110 l 728 -132 l 713 -132 l 713 -151 q 719 -158 713 -158 q 726 -157 724 -158 l 733 -178 m 828 -108 l 828 -125 l 868 -125 l 868 -150 l 828 -150 l 828 -181 l 796 -181 l 796 -83 l 874 -83 l 874 -108 l 828 -108 m 969 -106 l 969 -181 l 940 -181 l 940 -174 q 919 -182 932 -182 q 888 -147 888 -182 l 888 -106 l 919 -106 l 919 -142 q 929 -156 919 -156 q 939 -140 939 -156 l 939 -106 l 969 -106 m 990 -78 l 1021 -78 l 1021 -181 l 990 -181 l 990 -78 m 1040 -78 l 1072 -78 l 1072 -181 l 1040 -181 l 1040 -78 m 1242 -83 l 1201 -181 l 1169 -181 l 1129 -83 l 1164 -83 l 1188 -140 l 1211 -83 l 1242 -83 m 1325 -143 q 1325 -150 1325 -143 l 1272 -150 q 1288 -160 1278 -160 q 1303 -154 1294 -160 l 1319 -169 q 1286 -182 1310 -182 q 1242 -143 1244 -182 q 1283 -104 1242 -107 q 1313 -114 1301 -104 q 1325 -143 1325 -124 m 1283 -125 q 1272 -135 1275 -125 l 1296 -135 q 1283 -125 1293 -125 m 1369 -114 q 1394 -104 1378 -104 l 1394 -132 q 1388 -131 1392 -131 q 1371 -147 1371 -131 l 1371 -181 l 1340 -181 l 1340 -106 l 1369 -106 l 1369 -114 m 1439 -182 q 1404 -175 1418 -182 l 1413 -154 q 1439 -161 1424 -161 q 1449 -157 1449 -161 q 1438 -154 1449 -154 q 1415 -147 1424 -151 q 1406 -129 1406 -143 q 1415 -111 1406 -118 q 1444 -104 1425 -104 q 1475 -110 1464 -104 l 1465 -131 q 1444 -125 1456 -125 q 1435 -129 1435 -125 q 1446 -132 1435 -132 q 1469 -139 1460 -135 q 1478 -157 1478 -143 q 1467 -175 1478 -168 q 1439 -182 1457 -182 m 1508 -99 q 1489 -83 1492 -99 q 1508 -67 1489 -69 q 1526 -82 1525 -67 q 1508 -99 1526 -99 m 1493 -106 l 1524 -106 l 1524 -181 l 1493 -181 l 1493 -106 m 1583 -182 q 1551 -172 1564 -182 q 1539 -143 1539 -161 q 1583 -104 1539 -107 q 1615 -115 1603 -104 q 1626 -143 1626 -125 q 1583 -182 1626 -178 m 1583 -158 q 1596 -143 1596 -158 q 1583 -128 1596 -128 q 1571 -143 1571 -128 q 1583 -158 1571 -158 m 1694 -104 q 1725 -137 1725 -104 l 1725 -181 l 1694 -181 l 1694 -143 q 1685 -131 1694 -131 q 1674 -146 1674 -131 l 1674 -181 l 1643 -181 l 1643 -106 l 1672 -106 l 1672 -112 q 1694 -104 1681 -104 m 107 346 l 1781 346 l 1781 356 l 107 356 l 107 346 z "},"8":{"ha":1908,"x_min":107,"x_max":1781,"o":"m 203 782 q 138 809 164 782 q 113 875 113 836 q 139 941 113 914 q 204 968 165 968 q 269 942 243 968 q 294 875 294 915 q 268 809 294 836 q 203 782 242 782 m 203 806 q 251 826 232 806 q 271 875 271 846 q 252 925 271 906 q 204 944 233 944 q 156 924 175 944 q 136 875 136 904 q 156 826 136 846 q 203 806 175 806 m 207 824 q 167 838 183 824 q 151 875 151 853 q 167 913 151 897 q 207 928 183 928 q 254 897 243 928 l 221 881 q 207 890 217 890 q 194 875 194 890 q 207 860 194 860 q 221 869 217 860 l 254 853 q 207 824 243 824 m 488 832 l 488 783 l 321 783 l 321 821 l 403 919 l 324 919 l 324 967 l 483 967 l 483 929 l 400 832 l 488 832 m 667 831 l 667 783 l 517 783 l 517 967 l 664 967 l 664 921 l 576 921 l 576 899 l 653 899 l 653 854 l 576 854 l 576 831 l 667 831 m 853 831 l 853 783 l 703 783 l 703 967 l 849 967 l 849 921 l 763 921 l 763 899 l 839 899 l 839 854 l 763 854 l 763 831 l 853 831 m 1067 967 l 1067 783 l 1017 783 l 947 867 l 947 783 l 888 783 l 888 967 l 938 967 l 1007 883 l 1007 967 l 1067 967 m 1258 831 l 1258 783 l 1107 783 l 1107 967 l 1254 967 l 1254 921 l 1168 921 l 1168 899 l 1244 899 l 1244 854 l 1168 854 l 1168 831 l 1258 831 m 1361 779 q 1282 799 1310 779 l 1301 843 q 1361 826 1331 826 q 1385 836 1385 826 q 1378 844 1385 842 q 1354 851 1371 847 q 1303 869 1322 858 q 1285 910 1285 881 q 1307 953 1285 936 q 1369 971 1329 971 q 1438 956 1411 971 l 1419 910 q 1368 924 1393 924 q 1344 913 1344 924 q 1351 904 1344 907 q 1375 899 1358 901 q 1426 881 1407 892 q 1444 842 1444 869 q 1423 797 1444 814 q 1361 779 1401 779 m 1475 967 l 1536 967 l 1536 783 l 1475 783 l 1475 967 m 1700 815 l 1631 815 l 1619 783 l 1557 783 l 1636 967 l 1696 967 l 1775 783 l 1713 783 l 1700 815 m 1683 860 l 1665 906 l 1649 860 l 1683 860 m 363 664 l 335 664 l 335 689 l 422 689 l 422 664 l 394 664 l 394 592 l 363 592 l 363 664 m 532 689 l 532 592 l 500 592 l 500 628 l 469 628 l 469 592 l 438 592 l 438 689 l 469 689 l 469 656 l 500 656 l 500 689 l 532 689 m 554 689 l 586 689 l 586 592 l 554 592 l 554 689 m 643 590 q 601 600 618 590 l 613 624 q 643 615 625 615 q 656 621 656 615 q 640 628 656 625 q 613 637 624 631 q 603 658 603 643 q 615 682 603 672 q 647 692 626 692 q 683 683 669 692 l 674 660 q 647 667 660 667 q 635 661 635 667 q 651 653 635 657 q 678 643 668 649 q 688 622 688 638 q 676 599 688 608 q 643 590 665 590 m 783 665 l 783 649 l 824 649 l 824 624 l 783 624 l 783 592 l 751 592 l 751 689 l 829 689 l 829 665 l 783 665 m 894 590 q 856 604 871 590 q 840 640 840 618 q 856 677 840 663 q 894 692 871 692 q 933 677 918 692 q 949 640 949 663 q 933 604 949 618 q 894 590 918 590 m 894 617 q 910 623 904 617 q 917 640 917 629 q 894 665 917 664 q 880 658 886 665 q 874 640 874 651 q 894 617 874 617 m 1061 689 l 1061 592 l 1035 592 l 999 636 l 999 592 l 967 592 l 967 689 l 993 689 l 1029 646 l 1029 689 l 1061 689 m 1104 664 l 1076 664 l 1076 689 l 1164 689 l 1164 664 l 1136 664 l 1136 592 l 1104 592 l 1104 664 m 1258 665 l 1258 649 l 1299 649 l 1299 624 l 1258 624 l 1258 592 l 1226 592 l 1226 689 l 1304 689 l 1304 665 l 1258 665 m 1371 590 q 1332 604 1347 590 q 1317 640 1317 618 q 1332 677 1317 663 q 1371 692 1347 692 q 1410 677 1394 692 q 1425 640 1425 663 q 1410 604 1425 618 q 1371 590 1394 590 m 1371 617 q 1385 623 1379 617 q 1392 640 1392 629 q 1371 665 1392 664 q 1355 658 1361 665 q 1349 640 1349 651 q 1371 617 1349 617 m 1483 617 l 1475 617 l 1475 592 l 1442 592 l 1442 689 l 1489 689 q 1532 653 1528 689 q 1514 622 1532 631 l 1535 592 l 1500 592 l 1483 617 m 1500 653 q 1486 664 1500 664 l 1475 664 l 1475 642 l 1486 642 q 1500 653 1500 642 m 154 528 q 199 492 196 528 q 187 465 199 475 q 154 454 175 454 l 140 454 l 140 431 l 108 431 l 108 528 l 154 528 m 153 481 q 165 492 165 481 q 153 503 165 503 l 140 503 l 140 481 l 153 481 m 294 456 l 294 431 l 215 431 l 215 528 l 293 528 l 293 503 l 247 503 l 247 492 l 288 492 l 288 468 l 247 468 l 247 456 l 294 456 m 354 456 l 346 456 l 346 431 l 314 431 l 314 528 l 360 528 q 403 492 400 528 q 385 461 403 469 l 406 431 l 371 431 l 354 456 m 371 492 q 357 503 371 503 l 346 503 l 346 481 l 357 481 q 371 492 371 481 m 457 429 q 415 439 432 429 l 426 463 q 457 454 439 454 q 469 458 469 454 q 453 467 469 463 q 426 476 436 471 q 417 497 417 482 q 428 521 417 511 q 461 531 440 531 q 497 522 483 531 l 488 499 q 461 506 474 506 q 449 499 449 506 q 464 492 449 494 q 491 483 481 489 q 501 461 501 476 q 490 438 501 447 q 457 429 479 429 m 568 429 q 529 443 544 429 q 514 479 514 457 q 529 516 514 501 q 568 531 544 531 q 607 516 592 531 q 622 479 622 501 q 607 443 622 457 q 568 429 592 429 m 568 456 q 583 462 576 456 q 589 479 589 468 q 568 504 589 503 q 552 497 558 504 q 546 479 546 490 q 568 456 546 456 m 735 528 l 735 431 l 708 431 l 671 475 l 671 431 l 640 431 l 640 528 l 667 528 l 703 483 l 703 528 l 735 528 m 821 449 l 785 449 l 779 431 l 746 431 l 788 528 l 819 528 l 861 431 l 828 431 l 821 449 m 813 471 l 803 496 l 794 471 l 813 471 m 872 528 l 906 528 l 906 457 l 949 457 l 949 431 l 872 431 l 872 528 m 1057 429 q 1022 441 1035 429 q 1010 475 1010 453 l 1010 528 l 1043 528 l 1043 475 q 1057 456 1043 456 q 1072 475 1072 456 l 1072 528 l 1103 528 l 1103 475 q 1057 429 1103 431 m 1160 429 q 1118 439 1135 429 l 1129 463 q 1160 454 1142 454 q 1172 458 1172 454 q 1156 467 1172 463 q 1129 476 1139 471 q 1119 497 1119 482 q 1131 521 1119 511 q 1164 531 1143 531 q 1200 522 1186 531 l 1190 499 q 1164 506 1176 506 q 1151 499 1151 506 q 1167 492 1151 494 q 1194 483 1183 489 q 1204 461 1204 476 q 1193 438 1204 447 q 1160 429 1182 429 m 1300 456 l 1300 431 l 1221 431 l 1221 528 l 1299 528 l 1299 503 l 1253 503 l 1253 492 l 1293 492 l 1293 468 l 1253 468 l 1253 456 l 1300 456 m 1417 429 q 1378 443 1393 429 q 1363 479 1363 457 q 1378 516 1363 501 q 1417 531 1393 531 q 1456 516 1440 531 q 1471 479 1471 501 q 1456 443 1471 457 q 1417 429 1440 429 m 1417 456 q 1431 462 1425 456 q 1438 479 1438 468 q 1417 504 1438 503 q 1401 497 1407 504 q 1394 479 1394 490 q 1417 456 1394 456 m 1583 528 l 1583 431 l 1557 431 l 1519 475 l 1519 431 l 1489 431 l 1489 528 l 1515 528 l 1551 483 l 1551 528 l 1583 528 m 1604 528 l 1638 528 l 1638 457 l 1681 457 l 1681 431 l 1604 431 l 1604 528 m 1743 467 l 1743 431 l 1711 431 l 1711 467 l 1675 528 l 1708 528 l 1728 494 l 1747 528 l 1779 528 l 1743 467 m 276 189 l 257 218 q 253 217 256 217 l 232 217 l 232 189 l 214 189 l 214 286 l 253 286 q 294 251 294 286 q 274 221 294 231 l 296 189 l 276 189 m 276 251 q 253 271 276 271 l 232 271 l 232 232 l 253 232 q 276 251 276 232 m 388 225 q 388 221 388 225 l 329 221 q 353 203 333 203 q 374 211 365 203 l 382 200 q 353 188 374 188 q 313 226 315 188 q 350 264 313 260 q 377 253 367 264 q 388 225 388 243 m 350 250 q 329 232 332 250 l 371 232 q 350 250 368 250 m 436 264 q 469 232 469 264 l 469 189 l 453 189 l 453 199 q 429 188 446 188 q 403 210 404 188 q 433 232 403 232 l 451 232 l 451 233 q 433 250 451 250 q 411 242 419 250 l 404 254 q 436 264 415 264 m 433 200 q 451 213 447 200 l 451 221 l 433 221 q 419 211 419 221 q 433 200 419 200 m 532 188 q 503 199 514 188 q 492 226 492 210 q 532 264 492 260 q 563 247 554 264 l 550 239 q 531 249 542 249 q 515 242 521 249 q 508 226 508 236 q 531 203 508 203 q 550 213 542 203 l 563 206 q 532 188 553 188 m 624 264 q 654 232 654 264 l 654 189 l 638 189 l 638 229 q 619 249 638 249 q 600 226 600 249 l 600 189 l 582 189 l 582 292 l 600 292 l 600 254 q 624 264 608 264 m 818 264 q 849 232 849 264 l 849 189 l 832 189 l 832 229 q 815 249 832 249 q 796 226 796 249 l 796 189 l 779 189 l 779 229 q 763 249 779 249 q 743 226 743 249 l 743 189 l 726 189 l 726 263 l 743 263 l 743 254 q 767 264 753 264 q 792 251 783 264 q 818 264 800 264 m 946 225 q 946 221 946 225 l 889 221 q 913 203 892 203 q 932 211 924 203 l 942 200 q 913 188 931 188 q 872 226 875 188 q 910 264 872 260 q 935 253 925 264 q 946 225 946 243 m 910 250 q 889 232 892 250 l 931 232 q 910 250 928 250 m 1053 264 q 1090 226 1086 264 q 1053 188 1090 192 q 1029 199 1038 188 l 1029 189 l 1013 189 l 1013 292 l 1029 292 l 1029 254 q 1053 264 1039 264 m 1051 203 q 1074 226 1069 203 q 1051 249 1074 247 q 1035 242 1042 249 q 1029 226 1029 236 q 1051 203 1029 206 m 1179 263 l 1144 183 q 1117 161 1135 161 q 1097 168 1104 161 l 1104 181 q 1117 175 1110 175 q 1129 186 1125 175 l 1131 189 l 1099 263 l 1117 263 l 1139 208 l 1163 263 l 1179 263 m 1308 225 q 1308 221 1308 225 l 1251 221 q 1275 203 1254 203 q 1294 211 1286 203 l 1304 200 q 1274 188 1294 188 q 1244 199 1256 188 q 1233 226 1233 210 q 1272 264 1233 260 q 1298 253 1288 264 q 1308 225 1308 243 m 1272 250 q 1251 232 1254 250 l 1292 232 q 1272 250 1289 250 m 1424 264 q 1453 232 1453 264 l 1453 189 l 1436 189 l 1436 229 q 1419 249 1436 249 q 1401 226 1401 249 l 1401 189 l 1383 189 l 1383 229 q 1367 249 1383 249 q 1349 226 1349 249 l 1349 189 l 1331 189 l 1331 263 l 1347 263 l 1347 254 q 1371 264 1357 264 q 1396 251 1388 264 q 1424 264 1404 264 m 1510 264 q 1543 232 1543 264 l 1543 189 l 1526 189 l 1526 199 q 1503 188 1519 188 q 1476 210 1478 188 q 1507 232 1476 232 l 1525 232 l 1525 233 q 1507 250 1525 250 q 1485 242 1493 250 l 1478 254 q 1510 264 1489 264 m 1507 200 q 1525 213 1521 200 l 1525 221 l 1508 221 q 1493 211 1493 221 q 1507 200 1493 200 m 1579 275 q 1568 286 1568 275 q 1579 296 1568 294 q 1590 286 1590 296 q 1579 275 1590 275 m 1571 263 l 1588 263 l 1588 189 l 1571 189 l 1571 263 m 1617 292 l 1633 292 l 1633 189 l 1617 189 l 1617 292 m 183 26 l 183 4 l 111 4 l 111 22 l 142 57 l 113 57 l 113 81 l 181 81 l 181 63 l 150 26 l 183 26 m 276 42 q 276 35 276 42 l 225 35 q 240 26 228 26 q 256 32 249 26 l 271 15 q 239 3 261 3 q 193 42 197 3 q 205 71 193 60 q 236 82 217 82 q 265 72 254 82 q 276 42 276 61 m 236 60 q 224 50 226 60 l 249 50 q 236 60 246 60 m 372 42 q 372 35 372 42 l 321 35 q 335 26 322 26 q 351 32 344 26 l 367 15 q 335 3 356 3 q 289 42 293 3 q 301 71 289 60 q 332 82 313 82 q 361 72 350 82 q 372 42 372 61 m 332 60 q 319 50 322 60 l 343 50 q 332 60 343 58 m 440 82 q 471 47 471 82 l 471 4 l 440 4 l 440 42 q 431 56 440 56 q 419 40 419 56 l 419 4 l 389 4 l 389 81 l 418 81 l 418 72 q 440 82 428 82 m 531 82 q 560 72 549 82 q 572 42 572 61 q 572 39 572 42 q 571 35 571 36 l 519 35 q 535 26 522 26 q 550 32 543 26 l 567 15 q 533 3 554 3 q 488 42 492 3 q 499 71 488 60 q 531 82 511 82 m 531 60 q 518 50 521 60 l 543 50 q 531 60 540 60 m 617 3 q 583 10 594 3 l 592 31 q 618 24 603 24 q 626 28 626 24 q 615 31 626 31 q 592 38 601 33 q 583 56 583 42 q 594 74 583 67 q 622 82 604 82 q 653 75 639 82 l 644 54 q 622 60 633 60 q 613 57 613 60 q 624 53 613 54 q 647 45 639 50 q 656 28 656 40 q 646 10 656 17 q 617 3 636 3 m 686 86 q 668 101 669 86 q 686 118 668 118 q 706 103 703 118 q 686 86 706 89 m 671 81 l 701 81 l 701 4 l 671 4 l 671 81 m 756 82 q 796 44 796 82 l 796 4 l 767 4 l 767 14 q 746 3 763 3 q 718 26 718 3 q 753 49 718 49 l 765 49 q 750 58 764 58 q 732 51 739 58 l 722 72 q 756 82 736 82 m 756 21 q 765 29 764 21 l 765 33 l 757 33 q 747 28 747 33 q 756 21 747 21 m 881 103 q 928 85 910 103 q 947 43 947 68 q 938 13 947 24 q 914 3 928 3 q 893 15 900 3 q 872 3 886 3 q 851 12 860 3 q 843 38 843 21 q 872 72 843 69 q 889 65 882 72 l 889 71 l 915 71 l 915 31 q 921 24 915 24 q 928 43 928 24 q 915 74 928 63 q 881 86 901 86 q 847 72 860 86 q 833 39 833 58 q 847 6 833 19 q 881 -7 860 -7 q 908 -1 896 -7 l 914 -18 q 881 -25 900 -25 q 831 -7 850 -25 q 813 39 813 11 q 831 85 813 67 q 881 103 850 103 m 879 25 q 889 38 889 25 q 879 50 889 50 q 869 38 869 50 q 879 25 869 25 m 1047 81 l 1047 19 q 1001 -24 1047 -24 q 964 -15 979 -24 l 975 7 q 999 -1 983 -1 q 1017 15 1017 -1 l 1017 17 q 996 8 1008 8 q 970 18 981 8 q 960 44 960 28 q 996 82 960 78 q 1018 71 1010 82 l 1018 81 l 1047 81 m 1004 32 q 1017 44 1014 32 q 1004 57 1017 57 q 990 44 990 57 q 1004 32 990 33 m 1167 82 q 1196 47 1196 82 l 1196 4 l 1165 4 l 1165 42 q 1157 56 1165 56 q 1147 42 1147 56 l 1147 4 l 1117 4 l 1117 42 q 1108 56 1117 56 q 1099 42 1099 56 l 1099 4 l 1067 4 l 1067 81 l 1096 81 l 1096 72 q 1118 82 1106 82 q 1142 69 1133 82 q 1167 82 1150 82 m 1249 82 q 1289 44 1289 82 l 1289 4 l 1261 4 l 1261 14 q 1240 3 1254 3 q 1213 26 1213 3 q 1246 49 1213 49 l 1258 49 q 1244 58 1257 58 q 1225 51 1235 58 l 1215 72 q 1249 82 1231 82 m 1249 21 q 1258 29 1256 21 l 1258 33 l 1251 33 q 1242 28 1242 33 q 1249 21 1242 21 m 1325 86 q 1306 101 1308 86 q 1325 118 1306 117 q 1343 103 1342 118 q 1325 86 1343 86 m 1310 81 l 1340 81 l 1340 4 l 1310 4 l 1310 81 m 1360 107 l 1390 107 l 1390 4 l 1360 4 l 1360 107 m 1425 3 q 1407 21 1407 3 q 1425 39 1407 39 q 1438 34 1432 39 q 1443 21 1443 29 q 1425 3 1443 4 m 1499 3 q 1467 14 1479 3 q 1454 42 1454 25 q 1467 71 1454 60 q 1499 82 1479 82 q 1536 58 1526 82 l 1513 47 q 1499 57 1507 57 q 1486 42 1486 57 q 1499 26 1486 26 q 1513 38 1506 26 l 1536 25 q 1499 3 1528 3 m 1588 3 q 1557 14 1569 3 q 1544 42 1544 25 q 1556 71 1544 60 q 1588 82 1568 82 q 1619 71 1607 82 q 1632 42 1632 60 q 1619 14 1632 25 q 1588 3 1607 3 m 1588 26 q 1600 42 1600 26 q 1588 57 1600 57 q 1576 42 1576 57 q 1588 26 1576 26 m 1746 82 q 1776 47 1776 82 l 1776 4 l 1746 4 l 1746 42 q 1738 56 1746 56 q 1728 42 1728 56 l 1728 4 l 1696 4 l 1696 42 q 1688 56 1696 56 q 1678 42 1678 56 l 1678 4 l 1647 4 l 1647 81 l 1676 81 l 1676 72 q 1699 82 1685 82 q 1721 69 1714 82 q 1746 82 1731 82 m 204 -108 l 204 -125 l 244 -125 l 244 -150 l 204 -150 l 204 -181 l 172 -181 l 172 -83 l 250 -83 l 250 -108 l 204 -108 m 304 -182 q 273 -172 285 -182 q 261 -143 261 -161 q 304 -104 261 -107 q 335 -115 324 -104 q 347 -143 347 -125 q 304 -182 347 -178 m 304 -158 q 317 -143 317 -158 q 304 -128 317 -128 q 292 -143 292 -128 q 304 -158 292 -158 m 393 -114 q 417 -104 401 -104 l 417 -132 q 410 -131 414 -131 q 394 -147 394 -131 l 394 -181 l 364 -181 l 364 -106 l 393 -106 l 393 -114 m 563 -106 l 563 -165 q 518 -210 563 -210 q 481 -200 494 -210 l 490 -178 q 514 -186 499 -186 q 532 -169 532 -186 l 532 -168 q 511 -176 525 -176 q 485 -167 496 -176 q 475 -140 475 -157 q 485 -114 475 -124 q 511 -104 496 -104 q 533 -114 528 -104 l 533 -106 l 563 -106 m 519 -153 q 532 -140 531 -153 q 519 -128 532 -131 q 507 -140 508 -128 q 519 -153 507 -150 m 663 -143 q 663 -150 663 -143 l 610 -150 q 625 -160 614 -160 q 640 -154 632 -160 l 657 -169 q 624 -182 646 -182 q 592 -171 604 -182 q 579 -143 579 -160 q 621 -104 579 -107 q 651 -114 639 -104 q 663 -143 663 -124 m 622 -125 q 610 -135 613 -125 l 633 -135 q 622 -125 631 -125 m 733 -178 q 714 -182 728 -182 q 682 -151 682 -182 l 682 -132 l 671 -132 l 671 -110 l 682 -110 l 682 -87 l 713 -87 l 713 -110 l 728 -110 l 728 -132 l 713 -132 l 713 -151 q 719 -158 713 -158 q 726 -157 724 -158 l 733 -178 m 828 -108 l 828 -125 l 868 -125 l 868 -150 l 828 -150 l 828 -181 l 796 -181 l 796 -83 l 874 -83 l 874 -108 l 828 -108 m 969 -106 l 969 -181 l 940 -181 l 940 -174 q 919 -182 932 -182 q 888 -147 888 -182 l 888 -106 l 919 -106 l 919 -142 q 929 -156 919 -156 q 939 -140 939 -156 l 939 -106 l 969 -106 m 990 -78 l 1021 -78 l 1021 -181 l 990 -181 l 990 -78 m 1040 -78 l 1072 -78 l 1072 -181 l 1040 -181 l 1040 -78 m 1242 -83 l 1201 -181 l 1169 -181 l 1129 -83 l 1164 -83 l 1188 -140 l 1211 -83 l 1242 -83 m 1325 -143 q 1325 -150 1325 -143 l 1272 -150 q 1288 -160 1278 -160 q 1303 -154 1294 -160 l 1319 -169 q 1286 -182 1310 -182 q 1242 -143 1244 -182 q 1283 -104 1242 -107 q 1313 -114 1301 -104 q 1325 -143 1325 -124 m 1283 -125 q 1272 -135 1275 -125 l 1296 -135 q 1283 -125 1293 -125 m 1369 -114 q 1394 -104 1378 -104 l 1394 -132 q 1388 -131 1392 -131 q 1371 -147 1371 -131 l 1371 -181 l 1340 -181 l 1340 -106 l 1369 -106 l 1369 -114 m 1439 -182 q 1404 -175 1418 -182 l 1413 -154 q 1439 -161 1424 -161 q 1449 -157 1449 -161 q 1438 -154 1449 -154 q 1415 -147 1424 -151 q 1406 -129 1406 -143 q 1415 -111 1406 -118 q 1444 -104 1425 -104 q 1475 -110 1464 -104 l 1465 -131 q 1444 -125 1456 -125 q 1435 -129 1435 -125 q 1446 -132 1435 -132 q 1469 -139 1460 -135 q 1478 -157 1478 -143 q 1467 -175 1478 -168 q 1439 -182 1457 -182 m 1508 -99 q 1489 -83 1492 -99 q 1508 -67 1489 -69 q 1526 -82 1525 -67 q 1508 -99 1526 -99 m 1493 -106 l 1524 -106 l 1524 -181 l 1493 -181 l 1493 -106 m 1583 -182 q 1551 -172 1564 -182 q 1539 -143 1539 -161 q 1583 -104 1539 -107 q 1615 -115 1603 -104 q 1626 -143 1626 -125 q 1583 -182 1626 -178 m 1583 -158 q 1596 -143 1596 -158 q 1583 -128 1596 -128 q 1571 -143 1571 -128 q 1583 -158 1571 -158 m 1694 -104 q 1725 -137 1725 -104 l 1725 -181 l 1694 -181 l 1694 -143 q 1685 -131 1694 -131 q 1674 -146 1674 -131 l 1674 -181 l 1643 -181 l 1643 -106 l 1672 -106 l 1672 -112 q 1694 -104 1681 -104 m 107 346 l 1781 346 l 1781 356 l 107 356 l 107 346 z "},"9":{"ha":1908,"x_min":107,"x_max":1781,"o":"m 203 782 q 138 809 164 782 q 113 875 113 836 q 139 941 113 914 q 204 968 165 968 q 269 942 243 968 q 294 875 294 915 q 268 809 294 836 q 203 782 242 782 m 203 806 q 251 826 232 806 q 271 875 271 846 q 252 925 271 906 q 204 944 233 944 q 156 924 175 944 q 136 875 136 904 q 156 826 136 846 q 203 806 175 806 m 207 824 q 167 838 183 824 q 151 875 151 853 q 167 913 151 897 q 207 928 183 928 q 254 897 243 928 l 221 881 q 207 890 217 890 q 194 875 194 890 q 207 860 194 860 q 221 869 217 860 l 254 853 q 207 824 243 824 m 488 832 l 488 783 l 321 783 l 321 821 l 403 919 l 324 919 l 324 967 l 483 967 l 483 929 l 400 832 l 488 832 m 667 831 l 667 783 l 517 783 l 517 967 l 664 967 l 664 921 l 576 921 l 576 899 l 653 899 l 653 854 l 576 854 l 576 831 l 667 831 m 853 831 l 853 783 l 703 783 l 703 967 l 849 967 l 849 921 l 763 921 l 763 899 l 839 899 l 839 854 l 763 854 l 763 831 l 853 831 m 1067 967 l 1067 783 l 1017 783 l 947 867 l 947 783 l 888 783 l 888 967 l 938 967 l 1007 883 l 1007 967 l 1067 967 m 1258 831 l 1258 783 l 1107 783 l 1107 967 l 1254 967 l 1254 921 l 1168 921 l 1168 899 l 1244 899 l 1244 854 l 1168 854 l 1168 831 l 1258 831 m 1361 779 q 1282 799 1310 779 l 1301 843 q 1361 826 1331 826 q 1385 836 1385 826 q 1378 844 1385 842 q 1354 851 1371 847 q 1303 869 1322 858 q 1285 910 1285 881 q 1307 953 1285 936 q 1369 971 1329 971 q 1438 956 1411 971 l 1419 910 q 1368 924 1393 924 q 1344 913 1344 924 q 1351 904 1344 907 q 1375 899 1358 901 q 1426 881 1407 892 q 1444 842 1444 869 q 1423 797 1444 814 q 1361 779 1401 779 m 1475 967 l 1536 967 l 1536 783 l 1475 783 l 1475 967 m 1700 815 l 1631 815 l 1619 783 l 1557 783 l 1636 967 l 1696 967 l 1775 783 l 1713 783 l 1700 815 m 1683 860 l 1665 906 l 1649 860 l 1683 860 m 363 664 l 335 664 l 335 689 l 422 689 l 422 664 l 394 664 l 394 592 l 363 592 l 363 664 m 532 689 l 532 592 l 500 592 l 500 628 l 469 628 l 469 592 l 438 592 l 438 689 l 469 689 l 469 656 l 500 656 l 500 689 l 532 689 m 554 689 l 586 689 l 586 592 l 554 592 l 554 689 m 643 590 q 601 600 618 590 l 613 624 q 643 615 625 615 q 656 621 656 615 q 640 628 656 625 q 613 637 624 631 q 603 658 603 643 q 615 682 603 672 q 647 692 626 692 q 683 683 669 692 l 674 660 q 647 667 660 667 q 635 661 635 667 q 651 653 635 657 q 678 643 668 649 q 688 622 688 638 q 676 599 688 608 q 643 590 665 590 m 783 665 l 783 649 l 824 649 l 824 624 l 783 624 l 783 592 l 751 592 l 751 689 l 829 689 l 829 665 l 783 665 m 894 590 q 856 604 871 590 q 840 640 840 618 q 856 677 840 663 q 894 692 871 692 q 933 677 918 692 q 949 640 949 663 q 933 604 949 618 q 894 590 918 590 m 894 617 q 910 623 904 617 q 917 640 917 629 q 894 665 917 664 q 880 658 886 665 q 874 640 874 651 q 894 617 874 617 m 1061 689 l 1061 592 l 1035 592 l 999 636 l 999 592 l 967 592 l 967 689 l 993 689 l 1029 646 l 1029 689 l 1061 689 m 1104 664 l 1076 664 l 1076 689 l 1164 689 l 1164 664 l 1136 664 l 1136 592 l 1104 592 l 1104 664 m 1258 665 l 1258 649 l 1299 649 l 1299 624 l 1258 624 l 1258 592 l 1226 592 l 1226 689 l 1304 689 l 1304 665 l 1258 665 m 1371 590 q 1332 604 1347 590 q 1317 640 1317 618 q 1332 677 1317 663 q 1371 692 1347 692 q 1410 677 1394 692 q 1425 640 1425 663 q 1410 604 1425 618 q 1371 590 1394 590 m 1371 617 q 1385 623 1379 617 q 1392 640 1392 629 q 1371 665 1392 664 q 1355 658 1361 665 q 1349 640 1349 651 q 1371 617 1349 617 m 1483 617 l 1475 617 l 1475 592 l 1442 592 l 1442 689 l 1489 689 q 1532 653 1528 689 q 1514 622 1532 631 l 1535 592 l 1500 592 l 1483 617 m 1500 653 q 1486 664 1500 664 l 1475 664 l 1475 642 l 1486 642 q 1500 653 1500 642 m 154 528 q 199 492 196 528 q 187 465 199 475 q 154 454 175 454 l 140 454 l 140 431 l 108 431 l 108 528 l 154 528 m 153 481 q 165 492 165 481 q 153 503 165 503 l 140 503 l 140 481 l 153 481 m 294 456 l 294 431 l 215 431 l 215 528 l 293 528 l 293 503 l 247 503 l 247 492 l 288 492 l 288 468 l 247 468 l 247 456 l 294 456 m 354 456 l 346 456 l 346 431 l 314 431 l 314 528 l 360 528 q 403 492 400 528 q 385 461 403 469 l 406 431 l 371 431 l 354 456 m 371 492 q 357 503 371 503 l 346 503 l 346 481 l 357 481 q 371 492 371 481 m 457 429 q 415 439 432 429 l 426 463 q 457 454 439 454 q 469 458 469 454 q 453 467 469 463 q 426 476 436 471 q 417 497 417 482 q 428 521 417 511 q 461 531 440 531 q 497 522 483 531 l 488 499 q 461 506 474 506 q 449 499 449 506 q 464 492 449 494 q 491 483 481 489 q 501 461 501 476 q 490 438 501 447 q 457 429 479 429 m 568 429 q 529 443 544 429 q 514 479 514 457 q 529 516 514 501 q 568 531 544 531 q 607 516 592 531 q 622 479 622 501 q 607 443 622 457 q 568 429 592 429 m 568 456 q 583 462 576 456 q 589 479 589 468 q 568 504 589 503 q 552 497 558 504 q 546 479 546 490 q 568 456 546 456 m 735 528 l 735 431 l 708 431 l 671 475 l 671 431 l 640 431 l 640 528 l 667 528 l 703 483 l 703 528 l 735 528 m 821 449 l 785 449 l 779 431 l 746 431 l 788 528 l 819 528 l 861 431 l 828 431 l 821 449 m 813 471 l 803 496 l 794 471 l 813 471 m 872 528 l 906 528 l 906 457 l 949 457 l 949 431 l 872 431 l 872 528 m 1057 429 q 1022 441 1035 429 q 1010 475 1010 453 l 1010 528 l 1043 528 l 1043 475 q 1057 456 1043 456 q 1072 475 1072 456 l 1072 528 l 1103 528 l 1103 475 q 1057 429 1103 431 m 1160 429 q 1118 439 1135 429 l 1129 463 q 1160 454 1142 454 q 1172 458 1172 454 q 1156 467 1172 463 q 1129 476 1139 471 q 1119 497 1119 482 q 1131 521 1119 511 q 1164 531 1143 531 q 1200 522 1186 531 l 1190 499 q 1164 506 1176 506 q 1151 499 1151 506 q 1167 492 1151 494 q 1194 483 1183 489 q 1204 461 1204 476 q 1193 438 1204 447 q 1160 429 1182 429 m 1300 456 l 1300 431 l 1221 431 l 1221 528 l 1299 528 l 1299 503 l 1253 503 l 1253 492 l 1293 492 l 1293 468 l 1253 468 l 1253 456 l 1300 456 m 1417 429 q 1378 443 1393 429 q 1363 479 1363 457 q 1378 516 1363 501 q 1417 531 1393 531 q 1456 516 1440 531 q 1471 479 1471 501 q 1456 443 1471 457 q 1417 429 1440 429 m 1417 456 q 1431 462 1425 456 q 1438 479 1438 468 q 1417 504 1438 503 q 1401 497 1407 504 q 1394 479 1394 490 q 1417 456 1394 456 m 1583 528 l 1583 431 l 1557 431 l 1519 475 l 1519 431 l 1489 431 l 1489 528 l 1515 528 l 1551 483 l 1551 528 l 1583 528 m 1604 528 l 1638 528 l 1638 457 l 1681 457 l 1681 431 l 1604 431 l 1604 528 m 1743 467 l 1743 431 l 1711 431 l 1711 467 l 1675 528 l 1708 528 l 1728 494 l 1747 528 l 1779 528 l 1743 467 m 276 189 l 257 218 q 253 217 256 217 l 232 217 l 232 189 l 214 189 l 214 286 l 253 286 q 294 251 294 286 q 274 221 294 231 l 296 189 l 276 189 m 276 251 q 253 271 276 271 l 232 271 l 232 232 l 253 232 q 276 251 276 232 m 388 225 q 388 221 388 225 l 329 221 q 353 203 333 203 q 374 211 365 203 l 382 200 q 353 188 374 188 q 313 226 315 188 q 350 264 313 260 q 377 253 367 264 q 388 225 388 243 m 350 250 q 329 232 332 250 l 371 232 q 350 250 368 250 m 436 264 q 469 232 469 264 l 469 189 l 453 189 l 453 199 q 429 188 446 188 q 403 210 404 188 q 433 232 403 232 l 451 232 l 451 233 q 433 250 451 250 q 411 242 419 250 l 404 254 q 436 264 415 264 m 433 200 q 451 213 447 200 l 451 221 l 433 221 q 419 211 419 221 q 433 200 419 200 m 532 188 q 503 199 514 188 q 492 226 492 210 q 532 264 492 260 q 563 247 554 264 l 550 239 q 531 249 542 249 q 515 242 521 249 q 508 226 508 236 q 531 203 508 203 q 550 213 542 203 l 563 206 q 532 188 553 188 m 624 264 q 654 232 654 264 l 654 189 l 638 189 l 638 229 q 619 249 638 249 q 600 226 600 249 l 600 189 l 582 189 l 582 292 l 600 292 l 600 254 q 624 264 608 264 m 818 264 q 849 232 849 264 l 849 189 l 832 189 l 832 229 q 815 249 832 249 q 796 226 796 249 l 796 189 l 779 189 l 779 229 q 763 249 779 249 q 743 226 743 249 l 743 189 l 726 189 l 726 263 l 743 263 l 743 254 q 767 264 753 264 q 792 251 783 264 q 818 264 800 264 m 946 225 q 946 221 946 225 l 889 221 q 913 203 892 203 q 932 211 924 203 l 942 200 q 913 188 931 188 q 872 226 875 188 q 910 264 872 260 q 935 253 925 264 q 946 225 946 243 m 910 250 q 889 232 892 250 l 931 232 q 910 250 928 250 m 1053 264 q 1090 226 1086 264 q 1053 188 1090 192 q 1029 199 1038 188 l 1029 189 l 1013 189 l 1013 292 l 1029 292 l 1029 254 q 1053 264 1039 264 m 1051 203 q 1074 226 1069 203 q 1051 249 1074 247 q 1035 242 1042 249 q 1029 226 1029 236 q 1051 203 1029 206 m 1179 263 l 1144 183 q 1117 161 1135 161 q 1097 168 1104 161 l 1104 181 q 1117 175 1110 175 q 1129 186 1125 175 l 1131 189 l 1099 263 l 1117 263 l 1139 208 l 1163 263 l 1179 263 m 1308 225 q 1308 221 1308 225 l 1251 221 q 1275 203 1254 203 q 1294 211 1286 203 l 1304 200 q 1274 188 1294 188 q 1244 199 1256 188 q 1233 226 1233 210 q 1272 264 1233 260 q 1298 253 1288 264 q 1308 225 1308 243 m 1272 250 q 1251 232 1254 250 l 1292 232 q 1272 250 1289 250 m 1424 264 q 1453 232 1453 264 l 1453 189 l 1436 189 l 1436 229 q 1419 249 1436 249 q 1401 226 1401 249 l 1401 189 l 1383 189 l 1383 229 q 1367 249 1383 249 q 1349 226 1349 249 l 1349 189 l 1331 189 l 1331 263 l 1347 263 l 1347 254 q 1371 264 1357 264 q 1396 251 1388 264 q 1424 264 1404 264 m 1510 264 q 1543 232 1543 264 l 1543 189 l 1526 189 l 1526 199 q 1503 188 1519 188 q 1476 210 1478 188 q 1507 232 1476 232 l 1525 232 l 1525 233 q 1507 250 1525 250 q 1485 242 1493 250 l 1478 254 q 1510 264 1489 264 m 1507 200 q 1525 213 1521 200 l 1525 221 l 1508 221 q 1493 211 1493 221 q 1507 200 1493 200 m 1579 275 q 1568 286 1568 275 q 1579 296 1568 294 q 1590 286 1590 296 q 1579 275 1590 275 m 1571 263 l 1588 263 l 1588 189 l 1571 189 l 1571 263 m 1617 292 l 1633 292 l 1633 189 l 1617 189 l 1617 292 m 183 26 l 183 4 l 111 4 l 111 22 l 142 57 l 113 57 l 113 81 l 181 81 l 181 63 l 150 26 l 183 26 m 276 42 q 276 35 276 42 l 225 35 q 240 26 228 26 q 256 32 249 26 l 271 15 q 239 3 261 3 q 193 42 197 3 q 205 71 193 60 q 236 82 217 82 q 265 72 254 82 q 276 42 276 61 m 236 60 q 224 50 226 60 l 249 50 q 236 60 246 60 m 372 42 q 372 35 372 42 l 321 35 q 335 26 322 26 q 351 32 344 26 l 367 15 q 335 3 356 3 q 289 42 293 3 q 301 71 289 60 q 332 82 313 82 q 361 72 350 82 q 372 42 372 61 m 332 60 q 319 50 322 60 l 343 50 q 332 60 343 58 m 440 82 q 471 47 471 82 l 471 4 l 440 4 l 440 42 q 431 56 440 56 q 419 40 419 56 l 419 4 l 389 4 l 389 81 l 418 81 l 418 72 q 440 82 428 82 m 531 82 q 560 72 549 82 q 572 42 572 61 q 572 39 572 42 q 571 35 571 36 l 519 35 q 535 26 522 26 q 550 32 543 26 l 567 15 q 533 3 554 3 q 488 42 492 3 q 499 71 488 60 q 531 82 511 82 m 531 60 q 518 50 521 60 l 543 50 q 531 60 540 60 m 617 3 q 583 10 594 3 l 592 31 q 618 24 603 24 q 626 28 626 24 q 615 31 626 31 q 592 38 601 33 q 583 56 583 42 q 594 74 583 67 q 622 82 604 82 q 653 75 639 82 l 644 54 q 622 60 633 60 q 613 57 613 60 q 624 53 613 54 q 647 45 639 50 q 656 28 656 40 q 646 10 656 17 q 617 3 636 3 m 686 86 q 668 101 669 86 q 686 118 668 118 q 706 103 703 118 q 686 86 706 89 m 671 81 l 701 81 l 701 4 l 671 4 l 671 81 m 756 82 q 796 44 796 82 l 796 4 l 767 4 l 767 14 q 746 3 763 3 q 718 26 718 3 q 753 49 718 49 l 765 49 q 750 58 764 58 q 732 51 739 58 l 722 72 q 756 82 736 82 m 756 21 q 765 29 764 21 l 765 33 l 757 33 q 747 28 747 33 q 756 21 747 21 m 881 103 q 928 85 910 103 q 947 43 947 68 q 938 13 947 24 q 914 3 928 3 q 893 15 900 3 q 872 3 886 3 q 851 12 860 3 q 843 38 843 21 q 872 72 843 69 q 889 65 882 72 l 889 71 l 915 71 l 915 31 q 921 24 915 24 q 928 43 928 24 q 915 74 928 63 q 881 86 901 86 q 847 72 860 86 q 833 39 833 58 q 847 6 833 19 q 881 -7 860 -7 q 908 -1 896 -7 l 914 -18 q 881 -25 900 -25 q 831 -7 850 -25 q 813 39 813 11 q 831 85 813 67 q 881 103 850 103 m 879 25 q 889 38 889 25 q 879 50 889 50 q 869 38 869 50 q 879 25 869 25 m 1047 81 l 1047 19 q 1001 -24 1047 -24 q 964 -15 979 -24 l 975 7 q 999 -1 983 -1 q 1017 15 1017 -1 l 1017 17 q 996 8 1008 8 q 970 18 981 8 q 960 44 960 28 q 996 82 960 78 q 1018 71 1010 82 l 1018 81 l 1047 81 m 1004 32 q 1017 44 1014 32 q 1004 57 1017 57 q 990 44 990 57 q 1004 32 990 33 m 1167 82 q 1196 47 1196 82 l 1196 4 l 1165 4 l 1165 42 q 1157 56 1165 56 q 1147 42 1147 56 l 1147 4 l 1117 4 l 1117 42 q 1108 56 1117 56 q 1099 42 1099 56 l 1099 4 l 1067 4 l 1067 81 l 1096 81 l 1096 72 q 1118 82 1106 82 q 1142 69 1133 82 q 1167 82 1150 82 m 1249 82 q 1289 44 1289 82 l 1289 4 l 1261 4 l 1261 14 q 1240 3 1254 3 q 1213 26 1213 3 q 1246 49 1213 49 l 1258 49 q 1244 58 1257 58 q 1225 51 1235 58 l 1215 72 q 1249 82 1231 82 m 1249 21 q 1258 29 1256 21 l 1258 33 l 1251 33 q 1242 28 1242 33 q 1249 21 1242 21 m 1325 86 q 1306 101 1308 86 q 1325 118 1306 117 q 1343 103 1342 118 q 1325 86 1343 86 m 1310 81 l 1340 81 l 1340 4 l 1310 4 l 1310 81 m 1360 107 l 1390 107 l 1390 4 l 1360 4 l 1360 107 m 1425 3 q 1407 21 1407 3 q 1425 39 1407 39 q 1438 34 1432 39 q 1443 21 1443 29 q 1425 3 1443 4 m 1499 3 q 1467 14 1479 3 q 1454 42 1454 25 q 1467 71 1454 60 q 1499 82 1479 82 q 1536 58 1526 82 l 1513 47 q 1499 57 1507 57 q 1486 42 1486 57 q 1499 26 1486 26 q 1513 38 1506 26 l 1536 25 q 1499 3 1528 3 m 1588 3 q 1557 14 1569 3 q 1544 42 1544 25 q 1556 71 1544 60 q 1588 82 1568 82 q 1619 71 1607 82 q 1632 42 1632 60 q 1619 14 1632 25 q 1588 3 1607 3 m 1588 26 q 1600 42 1600 26 q 1588 57 1600 57 q 1576 42 1576 57 q 1588 26 1576 26 m 1746 82 q 1776 47 1776 82 l 1776 4 l 1746 4 l 1746 42 q 1738 56 1746 56 q 1728 42 1728 56 l 1728 4 l 1696 4 l 1696 42 q 1688 56 1696 56 q 1678 42 1678 56 l 1678 4 l 1647 4 l 1647 81 l 1676 81 l 1676 72 q 1699 82 1685 82 q 1721 69 1714 82 q 1746 82 1731 82 m 204 -108 l 204 -125 l 244 -125 l 244 -150 l 204 -150 l 204 -181 l 172 -181 l 172 -83 l 250 -83 l 250 -108 l 204 -108 m 304 -182 q 273 -172 285 -182 q 261 -143 261 -161 q 304 -104 261 -107 q 335 -115 324 -104 q 347 -143 347 -125 q 304 -182 347 -178 m 304 -158 q 317 -143 317 -158 q 304 -128 317 -128 q 292 -143 292 -128 q 304 -158 292 -158 m 393 -114 q 417 -104 401 -104 l 417 -132 q 410 -131 414 -131 q 394 -147 394 -131 l 394 -181 l 364 -181 l 364 -106 l 393 -106 l 393 -114 m 563 -106 l 563 -165 q 518 -210 563 -210 q 481 -200 494 -210 l 490 -178 q 514 -186 499 -186 q 532 -169 532 -186 l 532 -168 q 511 -176 525 -176 q 485 -167 496 -176 q 475 -140 475 -157 q 485 -114 475 -124 q 511 -104 496 -104 q 533 -114 528 -104 l 533 -106 l 563 -106 m 519 -153 q 532 -140 531 -153 q 519 -128 532 -131 q 507 -140 508 -128 q 519 -153 507 -150 m 663 -143 q 663 -150 663 -143 l 610 -150 q 625 -160 614 -160 q 640 -154 632 -160 l 657 -169 q 624 -182 646 -182 q 592 -171 604 -182 q 579 -143 579 -160 q 621 -104 579 -107 q 651 -114 639 -104 q 663 -143 663 -124 m 622 -125 q 610 -135 613 -125 l 633 -135 q 622 -125 631 -125 m 733 -178 q 714 -182 728 -182 q 682 -151 682 -182 l 682 -132 l 671 -132 l 671 -110 l 682 -110 l 682 -87 l 713 -87 l 713 -110 l 728 -110 l 728 -132 l 713 -132 l 713 -151 q 719 -158 713 -158 q 726 -157 724 -158 l 733 -178 m 828 -108 l 828 -125 l 868 -125 l 868 -150 l 828 -150 l 828 -181 l 796 -181 l 796 -83 l 874 -83 l 874 -108 l 828 -108 m 969 -106 l 969 -181 l 940 -181 l 940 -174 q 919 -182 932 -182 q 888 -147 888 -182 l 888 -106 l 919 -106 l 919 -142 q 929 -156 919 -156 q 939 -140 939 -156 l 939 -106 l 969 -106 m 990 -78 l 1021 -78 l 1021 -181 l 990 -181 l 990 -78 m 1040 -78 l 1072 -78 l 1072 -181 l 1040 -181 l 1040 -78 m 1242 -83 l 1201 -181 l 1169 -181 l 1129 -83 l 1164 -83 l 1188 -140 l 1211 -83 l 1242 -83 m 1325 -143 q 1325 -150 1325 -143 l 1272 -150 q 1288 -160 1278 -160 q 1303 -154 1294 -160 l 1319 -169 q 1286 -182 1310 -182 q 1242 -143 1244 -182 q 1283 -104 1242 -107 q 1313 -114 1301 -104 q 1325 -143 1325 -124 m 1283 -125 q 1272 -135 1275 -125 l 1296 -135 q 1283 -125 1293 -125 m 1369 -114 q 1394 -104 1378 -104 l 1394 -132 q 1388 -131 1392 -131 q 1371 -147 1371 -131 l 1371 -181 l 1340 -181 l 1340 -106 l 1369 -106 l 1369 -114 m 1439 -182 q 1404 -175 1418 -182 l 1413 -154 q 1439 -161 1424 -161 q 1449 -157 1449 -161 q 1438 -154 1449 -154 q 1415 -147 1424 -151 q 1406 -129 1406 -143 q 1415 -111 1406 -118 q 1444 -104 1425 -104 q 1475 -110 1464 -104 l 1465 -131 q 1444 -125 1456 -125 q 1435 -129 1435 -125 q 1446 -132 1435 -132 q 1469 -139 1460 -135 q 1478 -157 1478 -143 q 1467 -175 1478 -168 q 1439 -182 1457 -182 m 1508 -99 q 1489 -83 1492 -99 q 1508 -67 1489 -69 q 1526 -82 1525 -67 q 1508 -99 1526 -99 m 1493 -106 l 1524 -106 l 1524 -181 l 1493 -181 l 1493 -106 m 1583 -182 q 1551 -172 1564 -182 q 1539 -143 1539 -161 q 1583 -104 1539 -107 q 1615 -115 1603 -104 q 1626 -143 1626 -125 q 1583 -182 1626 -178 m 1583 -158 q 1596 -143 1596 -158 q 1583 -128 1596 -128 q 1571 -143 1571 -128 q 1583 -158 1571 -158 m 1694 -104 q 1725 -137 1725 -104 l 1725 -181 l 1694 -181 l 1694 -143 q 1685 -131 1694 -131 q 1674 -146 1674 -131 l 1674 -181 l 1643 -181 l 1643 -106 l 1672 -106 l 1672 -112 q 1694 -104 1681 -104 m 107 346 l 1781 346 l 1781 356 l 107 356 l 107 346 z "},"\u0000":{"ha":0,"x_min":0,"x_max":0,"o":""},"\b":{"ha":0,"x_min":0,"x_max":0,"o":""},"\u001d":{"ha":0,"x_min":0,"x_max":0,"o":""},"\t":{"ha":347,"x_min":0,"x_max":0,"o":""},"\r":{"ha":347,"x_min":0,"x_max":0,"o":""}," ":{"ha":361,"x_min":0,"x_max":0,"o":""},"!":{"ha":275,"x_min":28,"x_max":247,"o":"m 79 271 l 28 972 l 247 972 l 200 271 l 79 271 m 29 0 l 29 217 l 244 217 l 244 0 l 29 0 z "},"\"":{"ha":375,"x_min":28,"x_max":347,"o":"m 60 721 l 28 972 l 181 972 l 149 721 l 60 721 m 226 721 l 194 972 l 347 972 l 315 721 l 226 721 z "},"#":{"ha":881,"x_min":28,"x_max":853,"o":"m 99 0 l 175 310 l 28 310 l 28 450 l 210 450 l 240 572 l 74 572 l 74 714 l 275 714 l 339 972 l 506 972 l 442 714 l 546 714 l 610 972 l 775 972 l 711 714 l 853 714 l 853 572 l 675 572 l 646 450 l 806 450 l 806 310 l 610 310 l 533 0 l 368 0 l 444 310 l 340 310 l 264 0 l 99 0 m 376 450 l 481 450 l 510 572 l 406 572 l 376 450 z "},"$":{"ha":886,"x_min":21,"x_max":865,"o":"m 379 983 l 379 1021 l 522 1021 l 522 976 q 749 873 660 953 q 839 654 839 793 l 601 654 q 522 793 601 747 l 522 599 l 539 596 q 778 495 692 572 q 865 304 865 418 q 769 96 865 182 q 522 -10 674 10 l 522 -50 l 379 -50 l 379 -10 q 124 94 226 8 q 21 336 21 181 l 275 336 q 379 165 275 208 l 379 406 l 303 419 q 94 510 167 443 q 21 678 21 576 q 122 886 21 800 q 379 983 222 972 m 379 624 l 379 818 q 305 788 333 811 q 276 728 276 764 q 379 624 276 656 m 615 275 q 522 375 615 344 l 522 160 q 615 275 615 189 z "},"%":{"ha":1110,"x_min":28,"x_max":1082,"o":"m 158 29 l 769 994 l 931 953 l 321 -26 l 158 29 m 93 590 q 60 622 93 590 q 28 756 28 653 q 93 922 28 858 q 264 985 158 985 q 435 922 369 985 q 500 756 500 858 q 435 590 500 653 q 264 528 369 528 q 93 590 158 528 m 214 841 q 204 824 214 841 q 194 756 194 807 q 214 671 194 704 q 264 638 233 638 q 314 671 294 638 q 333 756 333 704 q 314 841 333 807 q 264 875 294 875 q 214 841 233 875 m 675 63 q 642 94 675 63 q 610 228 610 125 q 674 394 610 331 q 846 457 739 457 q 1017 394 953 457 q 1082 228 1082 331 q 1017 63 1082 125 q 846 0 951 0 q 675 63 740 0 m 796 313 q 786 296 796 313 q 776 228 776 279 q 796 143 776 176 q 846 110 815 110 q 896 143 876 110 q 915 228 915 176 q 896 313 915 279 q 846 347 876 347 q 796 313 815 347 z "},"&":{"ha":944,"x_min":28,"x_max":917,"o":"m 744 453 l 888 453 q 769 176 861 293 l 917 0 l 650 0 l 613 46 q 386 -7 510 -7 q 131 65 235 -7 q 28 251 28 136 q 85 401 28 336 q 243 492 143 467 l 233 504 q 122 742 122 638 q 206 915 122 849 q 424 982 290 982 q 637 924 547 982 q 726 757 726 865 q 661 606 726 667 q 489 514 596 544 l 679 286 q 744 453 724 360 m 424 593 q 542 743 542 663 q 511 813 542 789 q 439 838 481 838 q 370 813 397 838 q 343 749 343 788 q 424 593 343 693 m 531 144 l 310 413 q 238 279 238 356 q 295 166 238 208 q 431 124 353 124 q 531 144 485 124 z "},"'":{"ha":208,"x_min":28,"x_max":181,"o":"m 60 721 l 28 972 l 181 972 l 149 721 l 60 721 z "},"(":{"ha":425,"x_min":28,"x_max":397,"o":"m 281 777 q 259 706 281 777 q 238 489 238 635 q 281 201 238 343 q 397 -22 324 58 l 279 -22 q 99 188 171 44 q 28 489 28 332 q 99 790 28 646 q 279 1000 171 933 l 397 1000 q 281 777 324 919 z "},")":{"ha":425,"x_min":28,"x_max":397,"o":"m 144 201 q 166 272 144 201 q 188 489 188 343 q 144 777 188 635 q 28 1000 101 919 l 146 1000 q 326 790 254 933 q 397 489 397 646 q 326 188 397 332 q 146 -22 254 44 l 28 -22 q 144 201 101 58 z "},"*":{"ha":368,"x_min":17,"x_max":349,"o":"m 161 744 l 106 697 q 42 692 68 665 q 35 742 17 714 q 67 764 44 757 l 131 786 l 69 807 q 32 858 24 822 q 68 890 39 888 q 108 875 89 892 l 163 829 l 149 900 q 175 958 139 947 q 222 939 206 968 q 226 900 231 924 l 214 836 l 260 875 q 322 881 294 906 q 332 831 349 858 q 299 807 322 815 l 238 786 l 301 764 q 339 714 344 749 q 308 682 335 686 q 263 697 286 678 l 215 738 l 226 683 q 200 625 236 638 q 153 643 168 615 q 149 683 143 660 l 161 744 z "},"+":{"ha":624,"x_min":28,"x_max":596,"o":"m 233 51 l 233 300 l 28 300 l 28 457 l 233 457 l 233 626 l 390 626 l 390 457 l 596 457 l 596 300 l 390 300 l 390 51 l 233 51 z "},",":{"ha":271,"x_min":28,"x_max":243,"o":"m 243 217 l 243 13 q 204 -112 243 -58 q 83 -165 165 -165 q 31 -162 58 -165 l 31 -101 l 53 -106 q 108 -86 96 -106 q 121 -22 121 -67 l 121 0 l 28 0 l 28 217 l 243 217 z "},"-":{"ha":540,"x_min":28,"x_max":513,"o":"m 28 283 l 28 432 l 513 432 l 513 283 l 28 283 z "},".":{"ha":271,"x_min":28,"x_max":243,"o":"m 28 0 l 28 217 l 243 217 l 243 0 l 28 0 z "},"/":{"ha":536,"x_min":28,"x_max":508,"o":"m 28 -26 l 389 994 l 508 994 l 149 -26 l 28 -26 z "},":":{"ha":271,"x_min":28,"x_max":243,"o":"m 243 217 l 243 13 q 204 -112 243 -58 q 83 -165 165 -165 q 31 -162 58 -165 l 31 -101 l 53 -106 q 108 -86 96 -106 q 121 -22 121 -67 l 121 0 l 28 0 l 28 217 l 243 217 z "},";":{"ha":271,"x_min":28,"x_max":243,"o":"m 28 479 l 28 696 l 243 696 l 243 479 l 28 479 m 28 0 l 28 217 l 243 217 l 243 0 l 28 0 z "},"<":{"ha":510,"x_min":28,"x_max":482,"o":"m 297 15 l 28 356 l 297 696 l 482 696 l 208 356 l 482 15 l 297 15 z "},"=":{"ha":628,"x_min":28,"x_max":600,"o":"m 28 415 l 28 561 l 600 561 l 600 415 l 28 415 m 28 183 l 28 329 l 600 329 l 600 183 l 28 183 z "},">":{"ha":510,"x_min":28,"x_max":482,"o":"m 213 15 l 28 15 l 301 356 l 28 696 l 213 696 l 482 356 l 213 15 z "},"?":{"ha":726,"x_min":28,"x_max":699,"o":"m 214 290 l 214 307 q 242 419 214 371 q 310 499 269 467 q 390 561 350 531 q 457 637 429 592 q 485 742 485 682 q 453 846 485 808 q 368 883 421 883 q 279 847 315 883 q 243 731 243 810 l 28 731 q 58 881 28 817 q 141 979 89 944 q 251 1031 193 1014 q 372 1047 308 1047 q 608 965 518 1047 q 699 729 699 883 q 671 588 699 647 q 603 496 643 528 q 524 438 564 464 q 456 382 483 413 q 428 311 428 351 l 428 290 l 214 290 m 428 0 l 213 0 l 213 217 l 428 217 l 428 0 z "},"@":{"ha":1150,"x_min":28,"x_max":1122,"o":"m 849 226 q 944 295 908 226 q 981 467 981 364 q 879 731 981 635 q 607 828 778 828 q 301 714 417 828 q 185 428 185 600 q 281 177 185 271 q 521 83 376 83 l 550 83 l 550 -56 l 519 -56 q 167 76 306 -56 q 28 424 28 208 q 188 812 28 656 q 600 968 349 968 q 975 837 828 968 q 1122 489 1122 706 q 1049 237 1122 339 q 844 135 976 135 q 706 178 758 135 q 654 288 654 222 l 654 325 q 585 259 635 285 q 475 233 536 233 q 362 272 401 233 q 322 371 322 311 q 356 456 322 425 q 439 495 390 486 q 537 510 488 504 q 620 528 586 515 q 654 571 654 542 q 632 612 654 597 q 572 626 610 626 q 499 606 529 626 q 469 549 469 586 l 322 549 q 394 689 322 643 q 565 735 465 735 q 734 692 664 735 q 804 574 804 649 l 804 293 q 815 247 804 264 q 838 228 826 231 l 849 226 m 654 458 l 654 481 q 612 449 643 463 q 551 429 581 436 q 497 408 521 422 q 472 371 472 393 q 490 337 472 351 q 539 322 507 322 q 623 362 592 322 q 654 458 654 401 z "},"A":{"ha":1154,"x_min":28,"x_max":1126,"o":"m 578 736 l 446 406 l 708 406 l 578 736 m 1126 0 l 885 0 l 781 239 l 374 239 l 269 0 l 28 0 l 457 972 l 697 972 l 1126 0 z "},"B":{"ha":933,"x_min":49,"x_max":892,"o":"m 264 456 l 264 167 l 507 167 q 623 210 575 167 q 671 314 671 253 q 625 415 671 374 q 511 456 579 456 l 264 456 m 264 808 l 264 622 l 508 622 q 586 649 556 622 q 617 718 617 676 q 588 784 617 760 q 508 808 558 808 l 264 808 m 479 0 l 49 0 l 49 975 l 503 975 q 747 912 657 975 q 838 742 838 849 q 794 608 838 665 q 681 533 750 550 q 833 467 774 528 q 892 306 892 406 q 777 83 892 165 q 479 0 663 0 z "},"C":{"ha":956,"x_min":42,"x_max":914,"o":"m 517 153 q 647 194 592 153 q 701 331 701 235 l 914 331 q 878 165 914 235 q 783 57 843 94 q 657 3 724 19 q 517 -14 590 -14 q 169 124 296 -14 q 42 485 42 261 q 173 849 42 713 q 524 985 304 985 q 809 892 704 985 q 914 640 914 800 l 701 640 q 647 771 701 725 q 517 817 593 817 l 514 817 q 335 725 407 815 q 263 482 263 635 q 331 244 263 336 q 517 153 400 153 z "},"D":{"ha":992,"x_min":49,"x_max":950,"o":"m 442 0 l 49 0 l 49 972 l 436 972 q 816 840 682 972 q 950 490 950 707 q 811 134 950 268 q 442 0 672 0 m 264 814 l 264 158 l 449 158 q 651 247 574 158 q 728 490 728 336 q 656 725 728 636 q 453 814 585 814 l 264 814 z "},"E":{"ha":800,"x_min":49,"x_max":751,"o":"m 49 0 l 49 972 l 751 972 l 751 806 l 264 806 l 264 593 l 711 593 l 711 426 l 264 426 l 264 167 l 751 167 l 751 0 l 49 0 z "},"F":{"ha":779,"x_min":49,"x_max":751,"o":"m 49 0 l 49 972 l 751 972 l 751 806 l 264 806 l 264 593 l 711 593 l 711 426 l 264 426 l 264 0 l 49 0 z "},"G":{"ha":969,"x_min":42,"x_max":928,"o":"m 525 153 q 658 194 601 153 q 715 331 715 235 l 715 346 l 613 346 l 613 540 l 928 540 l 928 0 l 715 0 l 715 101 q 465 -14 643 -14 q 153 122 265 -14 q 42 472 42 257 q 174 847 42 708 q 532 985 307 985 q 822 892 715 985 q 928 640 928 800 l 715 640 q 660 771 715 725 q 525 817 604 817 l 521 817 q 337 725 411 815 q 263 482 263 635 q 333 244 263 336 q 525 153 404 153 z "},"H":{"ha":981,"x_min":49,"x_max":932,"o":"m 49 0 l 49 972 l 264 972 l 264 568 l 717 568 l 717 972 l 932 972 l 932 0 l 717 0 l 717 401 l 264 401 l 264 0 l 49 0 z "},"I":{"ha":313,"x_min":49,"x_max":264,"o":"m 49 0 l 49 972 l 264 972 l 264 0 l 49 0 z "},"J":{"ha":515,"x_min":28,"x_max":467,"o":"m 467 972 l 467 296 q 396 88 467 163 q 181 14 325 14 q 28 32 93 14 l 28 231 q 125 208 69 208 q 217 235 183 208 q 251 311 251 261 l 251 972 l 467 972 z "},"K":{"ha":967,"x_min":49,"x_max":939,"o":"m 49 0 l 49 972 l 264 972 l 264 561 l 643 972 l 928 972 l 506 521 l 939 0 l 665 0 l 264 493 l 264 0 l 49 0 z "},"L":{"ha":800,"x_min":49,"x_max":751,"o":"m 49 972 l 264 972 l 264 167 l 751 167 l 751 0 l 49 0 l 49 972 z "},"M":{"ha":1224,"x_min":49,"x_max":1175,"o":"m 611 250 l 947 972 l 1175 972 l 1175 0 l 960 0 l 960 561 l 718 0 l 506 0 l 264 561 l 264 0 l 49 0 l 49 972 l 276 972 l 611 250 z "},"N":{"ha":949,"x_min":49,"x_max":900,"o":"m 49 0 l 49 972 l 272 972 l 685 360 l 685 972 l 900 972 l 900 0 l 697 0 l 264 624 l 264 0 l 49 0 z "},"O":{"ha":1106,"x_min":42,"x_max":1064,"o":"m 42 488 q 187 847 42 708 q 553 986 332 986 q 919 848 775 986 q 1064 488 1064 710 q 919 124 1064 264 q 553 -15 774 -15 q 187 125 332 -15 q 42 488 42 265 m 250 488 q 336 249 250 342 q 553 156 422 156 q 769 249 683 156 q 856 488 856 342 q 769 724 856 633 q 553 815 683 815 q 336 724 422 815 q 250 488 250 632 z "},"P":{"ha":865,"x_min":49,"x_max":824,"o":"m 264 808 l 264 510 l 447 510 q 560 553 517 510 q 603 664 603 596 q 564 769 603 729 q 461 808 525 808 l 264 808 m 468 343 l 264 343 l 264 0 l 49 0 l 49 975 l 469 975 q 727 886 631 975 q 824 650 824 797 q 729 424 824 506 q 468 343 635 343 z "},"Q":{"ha":1106,"x_min":42,"x_max":1064,"o":"m 42 488 q 187 847 42 708 q 553 986 332 986 q 919 848 775 986 q 1064 488 1064 710 q 1011 251 1064 357 q 865 79 958 146 l 996 -121 l 774 -121 l 694 1 q 553 -15 628 -15 q 187 125 332 -15 q 42 488 42 265 m 250 488 q 336 249 250 342 q 553 156 422 156 q 593 158 568 156 l 496 307 l 718 307 l 761 240 q 856 488 856 335 q 769 724 856 633 q 553 815 683 815 q 336 724 422 815 q 250 488 250 632 z "},"R":{"ha":911,"x_min":49,"x_max":883,"o":"m 264 808 l 264 510 l 463 510 q 583 553 536 510 q 631 664 631 596 q 588 769 631 729 q 478 808 546 808 l 264 808 m 264 0 l 49 0 l 49 975 l 485 975 q 751 887 650 975 q 851 651 851 799 q 785 458 851 535 q 599 356 719 382 l 883 0 l 610 0 l 343 343 l 264 343 l 264 0 z "},"S":{"ha":942,"x_min":49,"x_max":893,"o":"m 643 275 q 603 351 643 324 q 469 394 564 378 l 331 419 q 122 510 194 443 q 49 678 49 576 q 163 897 49 810 q 450 985 276 985 q 569 974 511 985 q 681 937 626 963 q 776 874 735 911 q 842 780 817 836 q 867 654 867 724 l 629 654 q 574 778 629 735 q 442 821 518 821 q 343 796 382 821 q 304 728 304 771 q 344 654 304 685 q 454 613 385 624 l 567 596 q 806 495 719 572 q 893 304 893 418 q 774 76 893 167 q 476 -14 656 -14 q 323 6 396 -14 q 187 67 250 26 q 86 176 124 107 q 49 336 49 246 l 303 336 q 356 198 303 246 q 488 150 410 150 q 599 184 554 150 q 643 275 643 218 z "},"T":{"ha":807,"x_min":28,"x_max":779,"o":"m 296 0 l 296 806 l 28 806 l 28 972 l 779 972 l 779 806 l 511 806 l 511 0 l 296 0 z "},"U":{"ha":915,"x_min":49,"x_max":867,"o":"m 49 364 l 49 972 l 264 972 l 264 375 q 283 263 264 310 q 332 194 301 217 q 392 161 363 171 q 453 151 422 151 q 515 161 483 151 q 578 194 546 171 q 631 263 611 217 q 651 375 651 310 l 651 972 l 867 972 l 867 365 q 836 201 867 272 q 762 90 806 131 q 658 25 718 50 q 549 -8 599 0 q 450 -15 500 -15 q 313 3 379 -15 q 185 61 247 21 q 86 179 124 101 q 49 364 49 257 z "},"V":{"ha":1126,"x_min":28,"x_max":1099,"o":"m 563 236 l 857 972 l 1099 972 l 683 0 l 443 0 l 28 972 l 269 972 l 563 236 z "},"W":{"ha":1650,"x_min":28,"x_max":1622,"o":"m 465 292 l 722 972 l 928 972 l 1183 292 l 1394 972 l 1622 972 l 1304 0 l 1064 0 l 825 672 l 586 0 l 346 0 l 28 972 l 256 972 l 465 292 z "},"X":{"ha":1015,"x_min":28,"x_max":988,"o":"m 719 0 l 508 299 l 296 0 l 28 0 l 374 488 l 28 975 l 297 975 l 508 678 l 718 975 l 988 975 l 642 488 l 988 0 l 719 0 z "},"Y":{"ha":1015,"x_min":28,"x_max":988,"o":"m 399 0 l 399 451 l 28 975 l 297 975 l 508 678 l 718 975 l 988 975 l 617 453 l 617 0 l 399 0 z "},"Z":{"ha":789,"x_min":28,"x_max":761,"o":"m 28 153 l 485 808 l 36 808 l 36 975 l 761 975 l 761 822 l 300 167 l 761 167 l 761 0 l 28 0 l 28 153 z "},"[":{"ha":317,"x_min":28,"x_max":289,"o":"m 28 -56 l 28 961 l 289 961 l 289 794 l 208 794 l 208 111 l 289 111 l 289 -56 l 28 -56 z "},"\\":{"ha":550,"x_min":28,"x_max":522,"o":"m 522 -26 l 388 -26 l 28 994 l 161 994 l 522 -26 z "},"]":{"ha":317,"x_min":28,"x_max":289,"o":"m 289 -56 l 28 -56 l 28 111 l 108 111 l 108 794 l 28 794 l 28 961 l 289 961 l 289 -56 z "},"^":{"ha":625,"x_min":28,"x_max":597,"o":"m 28 756 l 247 972 l 379 972 l 597 756 l 425 756 l 314 861 l 200 756 l 28 756 z "},"_":{"ha":669,"x_min":28,"x_max":642,"o":"m 28 0 l 28 153 l 642 153 l 642 0 l 28 0 z "},"`":{"ha":374,"x_min":28,"x_max":346,"o":"m 158 778 l 28 972 l 261 972 l 346 778 l 158 778 z "},"a":{"ha":781,"x_min":42,"x_max":735,"o":"m 518 310 l 518 343 q 458 299 503 318 q 371 269 414 279 q 293 237 328 258 q 258 185 258 215 q 283 135 258 156 q 353 114 307 114 q 473 171 428 114 q 518 310 518 228 m 735 476 l 735 0 l 518 0 l 518 118 q 420 22 492 60 q 261 -15 349 -15 q 99 41 156 -15 q 42 185 42 97 q 77 292 42 250 q 165 350 113 335 q 280 376 218 365 q 394 393 342 388 q 483 418 447 399 q 518 474 518 438 q 487 531 518 510 q 403 553 456 553 q 297 524 340 553 q 253 442 253 494 l 42 442 q 145 644 42 576 q 392 711 249 711 q 634 649 533 711 q 735 476 735 586 z "},"b":{"ha":831,"x_min":49,"x_max":789,"o":"m 265 388 l 265 325 q 310 201 265 251 q 415 150 356 150 q 522 204 475 150 q 568 353 568 258 q 524 494 568 444 q 418 543 479 543 q 312 499 358 543 q 265 388 265 454 m 49 975 l 265 975 l 265 528 q 331 656 269 603 q 489 710 393 710 q 703 612 617 710 q 789 346 789 514 q 707 83 789 183 q 490 -17 625 -17 q 340 31 399 -17 q 265 165 281 79 l 265 0 l 49 0 l 49 975 z "},"c":{"ha":819,"x_min":42,"x_max":778,"o":"m 429 153 q 525 180 483 153 q 567 256 567 207 l 778 256 q 674 53 778 121 q 426 -14 571 -14 q 147 83 251 -14 q 42 343 42 181 q 149 608 42 507 q 431 708 256 708 q 675 641 572 708 q 778 439 778 574 l 567 439 q 527 515 567 488 q 433 542 488 542 l 429 542 q 306 488 354 540 q 257 349 257 436 q 305 208 257 263 q 429 153 353 153 z "},"d":{"ha":844,"x_min":42,"x_max":796,"o":"m 579 325 l 579 388 q 531 499 579 454 q 419 543 482 543 q 309 493 356 543 q 263 351 263 443 q 310 204 263 258 q 422 150 358 150 q 532 201 485 150 q 579 325 579 251 m 579 528 l 579 975 l 796 975 l 796 0 l 579 0 l 579 165 q 503 31 564 79 q 347 -17 442 -17 q 126 83 210 -17 q 42 346 42 183 q 131 612 42 514 q 350 710 219 710 q 512 656 449 710 q 579 528 575 601 z "},"e":{"ha":810,"x_min":42,"x_max":768,"o":"m 265 439 l 546 439 q 506 513 546 485 q 413 542 467 542 q 265 439 306 542 m 410 144 q 509 176 472 144 q 546 256 546 208 l 768 256 q 673 60 768 133 q 419 -14 578 -14 q 142 79 243 -14 q 42 336 42 172 q 147 608 42 507 q 422 708 253 708 q 676 616 583 708 q 768 368 768 524 l 768 299 l 253 299 l 253 290 q 297 184 253 224 q 410 144 342 144 z "},"f":{"ha":568,"x_min":42,"x_max":526,"o":"m 129 515 l 42 515 l 42 696 l 129 696 l 129 717 q 192 897 129 832 q 383 961 256 961 q 526 943 461 961 l 526 744 q 440 767 485 767 q 371 750 397 767 q 344 701 344 733 l 344 696 l 517 696 l 517 515 l 344 515 l 344 3 l 129 3 l 129 515 z "},"g":{"ha":844,"x_min":42,"x_max":796,"o":"m 579 325 l 579 388 q 531 499 579 454 q 419 543 482 543 q 309 493 356 543 q 263 351 263 443 q 310 204 263 258 q 422 150 358 150 q 532 201 485 150 q 579 325 579 251 m 579 -26 l 579 165 q 503 31 564 79 q 347 -17 442 -17 q 126 83 210 -17 q 42 346 42 183 q 131 612 42 514 q 350 710 219 710 q 512 656 449 710 q 579 528 575 601 l 579 696 l 796 696 l 796 -26 q 684 -251 796 -169 q 403 -332 572 -332 q 147 -260 246 -332 q 47 -49 47 -187 l 258 -49 q 298 -141 258 -108 q 408 -174 338 -174 q 533 -133 488 -174 q 579 -26 579 -93 z "},"h":{"ha":810,"x_min":49,"x_max":761,"o":"m 540 0 l 540 404 q 503 510 540 476 q 414 543 465 543 q 309 499 353 543 q 265 388 265 454 l 265 0 l 49 0 l 49 975 l 265 975 l 265 528 q 331 656 269 603 q 494 710 392 710 q 688 635 614 710 q 761 443 761 561 l 761 0 l 540 0 z "},"i":{"ha":313,"x_min":49,"x_max":264,"o":"m 49 756 l 49 972 l 264 972 l 264 756 l 49 756 m 49 0 l 49 696 l 264 696 l 264 0 l 49 0 z "},"j":{"ha":325,"x_min":-121,"x_max":276,"o":"m 61 756 l 61 972 l 276 972 l 276 756 l 61 756 m 61 -3 l 61 696 l 276 696 l 276 -18 q 213 -198 276 -133 q 22 -262 150 -262 q -121 -244 -56 -262 l -121 -46 q -35 -68 -79 -68 q 35 -51 8 -68 q 61 -3 61 -35 z "},"k":{"ha":828,"x_min":49,"x_max":800,"o":"m 49 0 l 49 972 l 264 972 l 264 397 l 521 694 l 794 694 l 511 369 l 800 0 l 536 0 l 264 356 l 264 0 l 49 0 z "},"l":{"ha":494,"x_min":49,"x_max":446,"o":"m 49 247 l 49 961 l 264 961 l 264 263 q 290 214 264 231 q 360 197 317 197 q 446 219 404 197 l 446 21 q 303 3 381 3 q 112 67 175 3 q 49 247 49 132 z "},"m":{"ha":1278,"x_min":49,"x_max":1229,"o":"m 526 0 l 526 404 q 491 510 526 476 q 407 543 456 543 q 307 499 349 543 q 265 388 265 456 l 265 0 l 49 0 l 49 696 l 265 696 l 265 528 q 329 656 269 603 q 488 710 389 710 q 651 657 583 710 q 739 517 718 604 q 815 655 756 600 q 972 710 874 710 q 1158 635 1088 710 q 1229 443 1229 561 l 1229 0 l 1008 0 l 1008 404 q 973 510 1008 476 q 889 543 938 543 q 789 499 831 543 q 747 388 747 456 l 747 0 l 526 0 z "},"n":{"ha":810,"x_min":49,"x_max":761,"o":"m 540 0 l 540 404 q 503 510 540 476 q 414 543 465 543 q 309 499 353 543 q 265 388 265 454 l 265 0 l 49 0 l 49 696 l 265 696 l 265 528 q 331 656 269 603 q 494 710 392 710 q 688 635 614 710 q 761 443 761 561 l 761 0 l 540 0 z "},"o":{"ha":851,"x_min":42,"x_max":810,"o":"m 701 88 q 647 37 701 88 q 424 -14 593 -14 q 148 88 254 -14 q 42 351 42 190 q 148 610 42 513 q 424 708 254 708 q 702 610 594 708 q 810 351 810 511 q 701 88 810 190 m 425 153 q 542 208 494 153 q 589 350 589 264 q 542 489 589 436 q 425 542 496 542 q 308 489 354 542 q 263 350 263 436 q 308 208 263 263 q 425 153 354 153 z "},"p":{"ha":844,"x_min":49,"x_max":803,"o":"m 265 371 l 265 308 q 314 197 265 242 q 425 153 363 153 q 535 203 489 153 q 582 344 582 253 q 534 492 582 438 q 422 546 486 546 q 313 495 360 546 q 265 371 265 444 m 265 168 l 265 -279 l 49 -279 l 49 696 l 265 696 l 265 531 q 342 665 281 617 q 497 713 403 713 q 719 613 635 713 q 803 350 803 513 q 714 84 803 182 q 494 -14 625 -14 q 333 40 396 -14 q 265 168 269 94 z "},"q":{"ha":844,"x_min":42,"x_max":796,"o":"m 579 308 l 579 371 q 532 495 579 444 q 422 546 485 546 q 310 492 358 546 q 263 344 263 438 q 309 203 263 253 q 419 153 356 153 q 531 197 482 153 q 579 308 579 242 m 796 -279 l 579 -279 l 579 168 q 512 40 575 94 q 350 -14 449 -14 q 131 84 219 -14 q 42 350 42 182 q 126 613 42 513 q 347 713 210 713 q 503 665 442 713 q 579 531 564 617 l 579 696 l 796 696 l 796 -279 z "},"r":{"ha":608,"x_min":49,"x_max":581,"o":"m 581 710 l 581 476 q 501 485 543 485 q 333 440 403 485 q 264 307 264 394 l 264 0 l 49 0 l 49 694 l 264 694 l 264 483 q 371 647 290 585 q 581 710 451 710 z "},"s":{"ha":729,"x_min":28,"x_max":701,"o":"m 481 204 q 447 250 481 235 q 347 276 414 265 l 242 293 q 83 359 138 310 q 28 481 28 408 q 119 644 28 579 q 350 708 211 708 q 505 685 433 708 q 628 607 576 663 q 681 469 681 551 l 478 469 q 440 543 478 517 q 353 569 403 569 q 283 552 311 569 q 254 511 254 535 q 285 468 254 486 q 368 443 317 450 l 453 432 q 632 364 563 418 q 701 222 701 310 q 606 53 701 119 q 368 -14 511 -14 q 129 49 231 -14 q 28 239 28 113 l 231 239 q 269 154 231 183 q 361 125 307 125 q 446 149 411 125 q 481 204 481 172 z "},"t":{"ha":588,"x_min":40,"x_max":547,"o":"m 365 515 l 365 246 q 392 197 365 214 q 461 181 418 181 q 547 203 506 181 l 547 4 q 404 -14 482 -14 q 213 51 276 -14 q 150 231 150 115 l 150 515 l 40 515 l 40 696 l 150 696 l 150 828 l 365 869 l 365 696 l 529 696 l 529 515 l 365 515 z "},"u":{"ha":810,"x_min":49,"x_max":761,"o":"m 269 696 l 269 292 q 307 186 269 219 q 396 153 344 153 q 501 197 457 153 q 544 308 544 242 l 544 696 l 761 696 l 761 0 l 544 0 l 544 168 q 479 40 540 93 q 315 -14 418 -14 q 122 60 196 -14 q 49 253 49 135 l 49 696 l 269 696 z "},"v":{"ha":867,"x_min":28,"x_max":839,"o":"m 521 0 l 346 0 l 28 696 l 269 696 l 433 290 l 597 696 l 839 696 l 521 0 z "},"w":{"ha":1299,"x_min":28,"x_max":1271,"o":"m 479 0 l 304 0 l 28 696 l 269 696 l 392 310 l 556 696 l 743 696 l 907 310 l 1029 696 l 1271 696 l 994 0 l 819 0 l 650 408 l 479 0 z "},"x":{"ha":792,"x_min":28,"x_max":764,"o":"m 489 0 l 396 140 l 303 0 l 42 0 l 265 338 l 28 697 l 289 697 l 396 536 l 503 697 l 764 697 l 526 338 l 750 0 l 489 0 z "},"y":{"ha":867,"x_min":28,"x_max":839,"o":"m 383 -293 l 147 -293 l 319 63 l 28 696 l 269 696 l 435 306 l 597 696 l 839 696 l 383 -293 z "},"z":{"ha":706,"x_min":49,"x_max":657,"o":"m 49 0 l 49 167 l 354 531 l 50 531 l 50 697 l 656 697 l 656 544 l 326 167 l 657 167 l 657 0 l 49 0 z "},"{":{"ha":381,"x_min":28,"x_max":353,"o":"m 219 489 q 269 458 250 478 q 296 408 289 438 q 305 356 303 378 q 307 296 307 333 l 307 169 q 353 115 307 115 l 353 -24 q 151 27 203 -24 q 99 169 99 78 l 99 296 q 28 421 99 397 l 28 551 q 99 676 99 575 l 99 803 q 151 945 99 894 q 353 996 203 996 l 353 857 q 307 803 307 857 l 307 676 q 305 618 307 639 q 295 568 303 597 q 269 519 288 539 q 219 489 250 500 z "},"|":{"ha":199,"x_min":28,"x_max":171,"o":"m 28 -50 l 28 1021 l 171 1021 l 171 -50 l 28 -50 z "},"}":{"ha":381,"x_min":28,"x_max":353,"o":"m 161 483 q 111 515 131 494 q 85 565 92 535 q 76 617 78 594 q 74 676 74 639 l 74 803 q 28 857 74 857 l 28 996 q 230 945 178 996 q 282 803 282 894 l 282 676 q 353 551 282 575 l 353 421 q 282 296 282 397 l 282 169 q 230 27 282 78 q 28 -24 178 -24 l 28 115 q 74 169 74 115 l 74 296 q 76 354 74 333 q 85 404 78 375 q 112 453 93 433 q 161 483 131 472 z "},"~":{"ha":481,"x_min":28,"x_max":453,"o":"m 311 949 q 356 972 356 949 l 453 972 q 449 929 453 953 q 434 877 444 906 q 399 830 424 849 q 342 811 375 811 q 265 826 318 811 q 188 840 211 840 q 143 817 143 840 l 28 817 q 56 928 28 876 q 151 981 85 981 q 234 965 181 981 q 311 949 288 949 z "},"":{"ha":275,"x_min":28,"x_max":247,"o":"m 29 972 l 244 972 l 244 756 l 29 756 l 29 972 m 79 701 l 200 701 l 247 0 l 28 0 l 79 701 z "},"":{"ha":778,"x_min":21,"x_max":757,"o":"m 408 153 q 504 180 463 153 q 546 256 546 207 l 757 256 q 673 67 757 133 q 461 -11 589 1 l 461 -128 l 318 -128 l 318 -7 q 101 109 181 17 q 21 343 21 201 q 101 580 21 485 q 318 700 181 675 l 318 838 l 461 838 l 461 706 q 672 628 586 694 q 757 439 757 561 l 546 439 q 504 516 546 489 q 408 542 463 543 q 285 488 333 540 q 236 349 236 436 q 284 208 236 263 q 408 153 332 153 z "},"":{"ha":701,"x_min":28,"x_max":674,"o":"m 28 0 l 28 186 q 114 208 90 186 q 138 292 138 231 l 138 397 l 44 397 l 44 568 l 138 568 l 138 703 q 218 905 138 831 q 415 979 299 979 q 642 929 533 979 l 642 703 q 561 744 615 726 q 461 761 507 761 q 381 739 411 761 q 350 678 350 717 l 350 568 l 632 568 l 632 397 l 350 397 l 350 299 q 226 186 350 204 l 674 186 l 674 0 l 28 0 z "},"":{"ha":625,"x_min":28,"x_max":597,"o":"m 28 429 q 114 643 28 564 l 61 746 l 178 746 l 203 696 q 313 714 257 714 q 424 696 375 714 l 450 746 l 567 746 l 513 642 q 597 429 597 561 q 513 215 597 293 l 567 111 l 450 111 l 424 161 q 313 143 375 143 q 203 161 257 143 l 178 111 l 61 111 l 114 214 q 28 429 28 293 m 169 429 q 208 314 169 357 q 313 271 247 271 q 417 314 378 271 q 456 429 456 357 q 416 543 456 500 q 313 586 376 586 q 209 543 249 586 q 169 429 169 500 z "},"":{"ha":1001,"x_min":21,"x_max":981,"o":"m 222 415 l 222 561 l 314 561 l 21 975 l 290 975 l 501 678 l 711 975 l 981 975 l 686 561 l 794 561 l 794 415 l 610 415 l 610 329 l 794 329 l 794 183 l 610 183 l 610 0 l 392 0 l 392 183 l 222 183 l 222 329 l 392 329 l 392 415 l 222 415 z "},"":{"ha":215,"x_min":28,"x_max":188,"o":"m 28 475 l 28 975 l 188 975 l 188 475 l 28 475 m 28 -225 l 28 276 l 188 276 l 188 -225 l 28 -225 z "},"":{"ha":696,"x_min":28,"x_max":668,"o":"m 28 106 l 132 231 q 315 140 182 140 q 415 158 372 140 q 458 197 458 175 q 418 230 458 217 q 320 255 378 243 q 204 285 263 267 q 106 347 146 304 q 65 453 65 390 q 136 593 65 538 q 65 725 65 643 q 144 872 65 817 q 349 928 224 926 q 530 899 444 929 q 668 821 615 868 l 564 694 q 481 757 535 731 q 361 781 428 783 q 292 766 318 779 q 267 736 267 753 q 308 703 267 717 q 406 676 349 689 q 522 643 464 663 q 620 581 579 624 q 661 478 661 539 q 585 338 661 393 q 661 206 661 288 q 567 53 661 108 q 328 -3 472 -3 q 28 106 129 -3 m 360 415 q 431 437 403 422 q 458 469 458 451 q 404 507 458 492 q 361 508 390 508 q 292 494 318 507 q 267 464 267 481 q 360 415 267 436 z "},"":{"ha":508,"x_min":28,"x_max":481,"o":"m 60 803 q 44 817 60 803 q 28 874 28 831 q 60 944 28 917 q 138 972 93 972 q 217 944 186 972 q 247 874 247 917 q 215 803 247 831 q 138 775 182 775 q 60 803 93 775 m 294 803 q 277 817 294 803 q 261 874 261 831 q 294 944 261 917 q 371 972 326 972 q 450 944 419 972 q 481 874 481 917 q 448 803 481 831 q 371 775 415 775 q 294 803 326 775 z "},"":{"ha":624,"x_min":28,"x_max":596,"o":"m 313 443 q 107 517 186 443 q 28 715 28 590 q 107 915 28 839 q 313 990 186 990 q 516 914 436 990 q 596 715 596 838 q 517 517 596 592 q 313 443 438 443 m 313 507 q 468 565 407 507 q 529 715 529 622 q 468 868 529 810 q 313 926 407 926 q 156 868 217 926 q 94 715 94 810 q 156 564 94 621 q 313 507 217 507 m 317 625 q 359 638 340 625 q 378 674 378 651 l 468 674 q 424 586 468 615 q 319 557 379 557 q 196 601 243 557 q 149 717 149 646 q 196 828 149 786 q 318 871 243 871 q 424 842 379 871 q 468 754 468 813 l 378 754 q 359 790 378 778 q 315 803 340 803 q 263 778 283 801 q 242 715 242 754 q 263 650 242 675 q 317 625 283 625 z "},"":{"ha":426,"x_min":21,"x_max":406,"o":"m 406 703 l 406 438 l 285 438 l 285 503 q 230 450 269 471 q 142 429 190 429 q 52 460 83 429 q 21 539 21 492 q 62 618 21 592 q 153 647 103 644 q 244 662 203 650 q 285 701 285 674 q 267 733 285 721 q 221 744 250 744 q 162 728 186 744 q 138 683 138 713 l 21 683 q 78 796 21 758 q 215 833 136 833 q 350 799 294 833 q 406 703 406 764 m 285 610 l 285 628 q 207 588 274 608 q 140 540 140 568 q 154 513 140 525 q 193 501 168 501 q 260 533 235 501 q 285 610 285 564 z "},"":{"ha":678,"x_min":28,"x_max":650,"o":"m 260 29 l 28 349 l 260 667 l 440 667 l 208 349 l 440 29 l 260 29 m 469 29 l 238 349 l 469 667 l 650 667 l 418 349 l 650 29 l 469 29 z "},"":{"ha":671,"x_min":28,"x_max":643,"o":"m 28 307 l 28 446 l 643 446 l 643 168 l 504 168 l 504 307 l 28 307 z "},"":{"ha":624,"x_min":28,"x_max":596,"o":"m 313 443 q 107 517 186 443 q 28 715 28 590 q 107 915 28 839 q 313 990 186 990 q 516 914 436 990 q 596 715 596 838 q 517 517 596 592 q 313 443 438 443 m 313 507 q 468 565 407 507 q 529 715 529 622 q 468 868 529 810 q 313 926 407 926 q 156 868 217 926 q 94 715 94 810 q 156 564 94 621 q 313 507 217 507 m 210 582 l 210 851 l 325 851 q 397 826 369 851 q 424 761 424 801 q 361 681 424 696 l 440 582 l 364 582 l 290 676 l 268 676 l 268 582 l 210 582 m 268 722 l 319 722 q 351 735 339 722 q 363 765 363 747 q 351 794 363 783 q 324 806 340 806 l 268 806 l 268 722 z "},"":{"ha":571,"x_min":28,"x_max":543,"o":"m 28 307 l 28 446 l 543 446 l 543 307 l 28 307 z "},"":{"ha":468,"x_min":21,"x_max":447,"o":"m 232 431 q 80 487 139 431 q 21 633 21 543 q 79 776 21 722 q 232 831 138 831 q 388 776 328 831 q 447 633 447 722 q 387 488 447 544 q 232 431 326 431 m 169 553 q 182 538 169 553 q 233 522 194 522 q 298 553 272 522 q 324 632 324 583 q 298 710 324 681 q 233 739 272 739 q 169 710 194 739 q 143 632 143 681 q 169 553 143 583 z "},"":{"ha":624,"x_min":28,"x_max":596,"o":"m 233 175 l 233 361 l 28 361 l 28 518 l 233 518 l 233 694 l 390 694 l 390 518 l 596 518 l 596 361 l 390 361 l 390 175 l 233 175 m 28 157 l 596 157 l 596 0 l 28 0 l 28 157 z "},"":{"ha":414,"x_min":21,"x_max":393,"o":"m 275 825 q 257 874 275 856 q 210 893 239 893 q 160 873 181 893 q 140 808 140 853 l 21 808 q 78 942 21 900 q 213 985 135 985 q 342 942 292 985 q 393 826 393 900 q 356 717 393 764 q 274 649 318 671 q 192 601 229 628 q 154 549 154 575 l 154 538 l 379 538 l 379 438 l 32 438 l 32 546 q 57 610 32 581 q 117 663 82 640 q 189 707 153 685 q 250 759 225 729 q 275 825 275 789 z "},"":{"ha":418,"x_min":21,"x_max":397,"o":"m 279 729 q 364 691 331 725 q 397 597 397 657 q 367 500 397 542 q 286 442 336 458 q 215 431 254 431 q 78 473 136 431 q 21 606 21 515 l 140 606 q 161 542 140 563 q 211 521 182 521 q 260 541 240 521 q 279 589 279 561 q 256 642 279 621 q 197 663 232 663 l 133 663 l 133 765 l 201 765 q 258 783 236 765 q 279 831 279 801 q 260 876 279 858 q 213 893 242 893 q 161 873 182 893 q 140 808 140 853 l 21 808 q 78 942 21 900 q 214 985 135 985 q 345 944 293 985 q 397 842 397 904 q 364 761 397 790 q 279 729 331 732 z "},"":{"ha":374,"x_min":28,"x_max":346,"o":"m 215 778 l 28 778 l 113 972 l 346 972 l 215 778 z "},"":{"ha":682,"x_min":28,"x_max":654,"o":"m 469 0 l 354 0 l 354 458 l 269 458 q 96 531 164 458 q 28 717 28 603 q 106 903 28 831 q 303 975 183 975 l 654 975 l 654 0 l 538 0 l 538 863 l 469 863 l 469 0 z "},"":{"ha":281,"x_min":28,"x_max":253,"o":"m 61 453 q 44 467 61 453 q 28 529 28 481 q 61 605 28 578 q 140 632 94 632 q 219 604 185 632 q 253 529 253 576 q 219 454 253 482 q 140 426 185 426 q 61 453 94 426 z "},"":{"ha":411,"x_min":28,"x_max":383,"o":"m 113 33 l 200 33 l 167 -68 q 251 -36 201 -36 q 347 -79 310 -36 q 383 -178 383 -122 q 335 -287 383 -242 q 196 -332 288 -332 q 28 -275 88 -332 l 78 -194 q 176 -235 114 -235 q 243 -218 219 -235 q 267 -176 267 -201 q 253 -142 267 -157 q 210 -126 239 -126 q 160 -143 181 -126 l 49 -143 l 113 33 z "},"":{"ha":217,"x_min":21,"x_max":196,"o":"m 76 438 l 76 868 l 21 840 l 21 932 l 108 979 l 196 979 l 196 438 l 76 438 z "},"":{"ha":515,"x_min":24,"x_max":499,"o":"m 440 517 q 411 478 440 517 q 261 439 382 439 q 82 517 140 439 q 24 707 24 596 q 82 898 24 818 q 261 978 140 978 q 440 898 382 978 q 499 707 499 818 q 440 517 499 596 m 142 707 q 170 588 142 643 q 261 532 199 532 q 352 588 324 532 q 381 707 381 643 q 352 827 381 771 q 261 883 324 883 q 170 828 199 883 q 142 707 142 772 z "},"":{"ha":678,"x_min":28,"x_max":650,"o":"m 418 29 l 238 29 l 469 349 l 238 667 l 418 667 l 650 349 l 418 29 m 208 29 l 28 29 l 260 349 l 28 667 l 208 667 l 440 349 l 208 29 z "},"":{"ha":904,"x_min":21,"x_max":883,"o":"m 125 -26 l 569 994 l 689 994 l 246 -26 l 125 -26 m 76 438 l 76 868 l 21 840 l 21 932 l 108 979 l 196 979 l 196 438 l 76 438 m 458 219 l 724 542 l 839 542 l 839 219 l 883 219 l 860 125 l 839 125 l 839 0 l 719 0 l 719 125 l 458 125 l 458 219 m 582 219 l 719 219 l 719 383 l 582 219 z "},"":{"ha":882,"x_min":28,"x_max":854,"o":"m 142 -26 l 517 994 l 636 994 l 263 -26 l 142 -26 m 83 438 l 83 868 l 28 840 l 28 932 l 115 979 l 203 979 l 203 438 l 83 438 m 736 388 q 718 437 736 418 q 671 456 700 456 q 622 435 642 456 q 601 371 601 415 l 482 371 q 539 505 482 463 q 674 547 596 547 q 803 505 753 547 q 854 389 854 463 q 817 280 854 326 q 735 212 779 233 q 653 164 690 190 q 615 111 615 138 l 615 100 l 840 100 l 840 0 l 493 0 l 493 108 q 518 173 493 143 q 578 225 543 203 q 650 269 614 247 q 711 322 686 292 q 736 388 736 351 z "},"":{"ha":1008,"x_min":21,"x_max":988,"o":"m 229 -26 l 674 994 l 793 994 l 350 -26 l 229 -26 m 279 729 q 364 691 331 725 q 397 597 397 657 q 367 500 397 542 q 286 442 336 458 q 215 431 254 431 q 78 473 136 431 q 21 606 21 515 l 140 606 q 161 542 140 563 q 211 521 182 521 q 260 541 240 521 q 279 589 279 561 q 256 641 279 619 q 197 663 233 663 l 133 663 l 133 765 l 201 765 q 256 783 233 765 q 279 829 279 800 q 260 875 279 857 q 211 893 242 893 q 161 873 182 893 q 140 808 140 853 l 21 808 q 78 942 21 900 q 214 985 135 985 q 345 944 293 985 q 397 842 397 904 q 364 761 397 790 q 279 729 331 732 m 563 219 l 828 542 l 943 542 l 943 219 l 988 219 l 964 125 l 943 125 l 943 0 l 824 0 l 824 125 l 563 125 l 563 219 m 686 219 l 824 219 l 824 383 l 686 219 z "},"":{"ha":726,"x_min":28,"x_max":699,"o":"m 299 1047 l 514 1047 l 514 831 l 299 831 l 299 1047 m 513 757 l 513 740 q 485 628 513 676 q 417 549 457 581 q 338 486 378 517 q 269 410 297 456 q 242 306 242 365 q 274 201 242 239 q 358 164 306 164 q 447 201 411 164 q 483 317 483 238 l 699 317 q 668 167 699 231 q 585 68 638 103 q 476 17 533 33 q 354 0 418 0 q 118 81 208 0 q 28 311 28 161 q 48 433 28 379 q 98 517 68 486 q 163 576 128 547 q 228 624 199 604 q 278 673 258 644 q 299 736 299 701 l 299 757 l 513 757 z "},"":{"ha":1154,"x_min":28,"x_max":1126,"o":"m 503 1014 l 372 1208 l 606 1208 l 690 1014 l 503 1014 m 885 0 l 781 239 l 374 239 l 269 0 l 28 0 l 457 972 l 697 972 l 1126 0 l 885 0 m 446 406 l 708 406 l 578 736 l 446 406 z "},"":{"ha":1154,"x_min":28,"x_max":1126,"o":"m 676 1014 l 489 1014 l 574 1208 l 807 1208 l 676 1014 m 885 0 l 781 239 l 374 239 l 269 0 l 28 0 l 457 972 l 697 972 l 1126 0 l 885 0 m 446 406 l 708 406 l 578 736 l 446 406 z "},"":{"ha":1154,"x_min":28,"x_max":1126,"o":"m 815 1014 l 638 1014 l 585 1090 l 533 1014 l 356 1014 l 506 1199 l 665 1199 l 815 1014 m 885 0 l 781 239 l 374 239 l 269 0 l 28 0 l 457 972 l 697 972 l 1126 0 l 885 0 m 446 406 l 708 406 l 578 736 l 446 406 z "},"":{"ha":1154,"x_min":28,"x_max":1126,"o":"m 500 1196 q 565 1188 521 1196 q 622 1181 608 1181 q 654 1201 654 1181 l 779 1201 q 775 1156 779 1181 q 759 1100 771 1132 q 719 1047 747 1068 q 653 1026 692 1026 q 594 1033 633 1026 q 542 1040 556 1040 q 511 1018 511 1040 l 368 1018 q 373 1071 368 1044 q 391 1128 378 1097 q 432 1177 404 1158 q 500 1196 460 1196 m 885 0 l 781 239 l 374 239 l 269 0 l 28 0 l 457 972 l 697 972 l 1126 0 l 885 0 m 446 406 l 708 406 l 578 736 l 446 406 z "}}}
